<?xml version="1.0" encoding="UTF-8"?>
<svg width="349px" height="388px" viewBox="0 0 349 388" version="1.1" xmlns="http://www.w3.org/2000/svg" xmlns:xlink="http://www.w3.org/1999/xlink">
    <!-- Generator: sketchtool 42 (36781) - http://www.bohemiancoding.com/sketch -->
    <title>CF3BFA97-B501-4072-8D83-63B065E9E5D5</title>
    <desc>Created with sketchtool.</desc>
    <defs></defs>
    <g id="Page-1" stroke="none" stroke-width="1" fill="none" fill-rule="evenodd">
        <g id="1--landingpage" transform="translate(-670.000000, -83.000000)">
            <g id="banner-icons" transform="translate(671.000000, 83.000000)">
                <g id="balls" transform="translate(19.000000, 0.000000)" fill="#F8FAFC">
                    <circle id="Oval-2" cx="245" cy="39" r="39"></circle>
                    <circle id="Oval-2" cx="125.5" cy="59.5" r="27.5"></circle>
                    <circle id="Oval-3" cx="57.5" cy="50.5" r="6.5"></circle>
                    <circle id="Oval-3" cx="185.5" cy="128.5" r="6.5"></circle>
                    <circle id="Oval-3" cx="23.5" cy="99.5" r="11.5"></circle>
                    <circle id="Oval-3" cx="186" cy="14" r="14"></circle>
                    <circle id="Oval-3" cx="295" cy="145" r="14"></circle>
                    <circle id="Oval-3" cx="149.5" cy="348.5" r="14.5"></circle>
                    <circle id="Oval-3" cx="9.5" cy="299.5" r="9.5"></circle>
                    <circle id="Oval-2" cx="82" cy="149" r="34"></circle>
                    <circle id="Oval-2" cx="284.5" cy="211.5" r="44.5"></circle>
                    <circle id="Oval-2" cx="238.5" cy="341.5" r="46.5"></circle>
                    <circle id="Oval-2" cx="91" cy="254" r="25"></circle>
                    <circle id="Oval-2" cx="35.5" cy="353.5" r="26.5"></circle>
                </g>
                <g id="fill" transform="translate(45.000000, 21.252502)" fill="#A5D6FE">
                    <path d="M236.808967,20.9954981 C236.68241,28.0723804 230.872894,29.5889093 230.872894,29.5889093 L214.32646,29.5889093 L214.32646,74.2006407 L194.622911,74.2006407 L194.622911,53.8533721 C183.129679,51.0735746 188.181366,34.3917564 188.181366,27.3141159 C188.181366,20.2372337 195.507297,20.9954981 195.507297,20.9954981 L236.808967,20.9954981 Z" id="Fill-2"></path>
                    <polygon id="Fill-4" points="125.451999 21.2754568 112.821266 27.8473349 112.821266 57.9246531 101.453834 49.7103742 101.453834 10.5331242 112.821266 3.58287211 125.348176 9.64216343"></polygon>
                    <polygon id="Fill-6" points="69.1174474 151.763799 0.155025678 151.763799 0.155025678 145.88725 6.65947035 145.88725 11.3330006 136.59851 24.4055476 136.59851 25.1004766 141.021467 34.6362365 141.021467 46.7614975 127.30977 53.771414 127.30977 60.7813305 118.021031 70.3170904 118.021031"></polygon>
                    <polygon id="Fill-8" points="65.9490292 233.277457 95.8749311 233.277457 95.8749311 225.31568 65.9490292 225.31568"></polygon>
                    <polygon id="Fill-10" points="67.5821503 258.300184 116.083194 258.300184 116.083194 249.706773 67.5821503 249.706773"></polygon>
                    <polygon id="Fill-11" points="188.24472 352.104339 207.948269 352.104339 207.948269 333.084791 188.24472 333.084791"></polygon>
                    <polygon id="Fill-12" points="226.515075 352.104339 244.892424 352.104339 244.892424 324.363992 226.515075 324.363992"></polygon>
                    <path d="M2.84150543,319.359758 C2.84150543,319.359758 6.46468497,330.122564 0.154244468,335.495626 L7.5991547,349.219454 C7.5991547,349.219454 31.1448958,330.308338 14.1392173,308.552214 L2.84150543,319.359758 Z" id="Fill-13"></path>
                    <path d="M158.841872,165.602901 L158.841872,200.62562 C158.841872,200.62562 183.466761,231.054773 223.325525,217.250568 C244.892575,211.439987 252.182131,198.871754 252.182131,198.871754 L252.182131,156.59851 C252.182131,156.59851 253.744774,179.485206 211.942179,183.472161 C170.139584,187.459874 158.841872,165.602901 158.841872,165.602901" id="Fill-14"></path>
                    <path d="M231.062124,128.353159 L219.694692,152.428056 L265.16442,145.982808 C265.16442,145.982808 256.270541,129.900777 231.062124,128.353159" id="Fill-15"></path>
                    <polygon id="Fill-1" points="260.175557 33.7598946 273.311004 33.7598946 273.311004 0.269628099 260.175557 0.269628099"></polygon>
                </g>
                <g id="strokes" transform="translate(0.757829, 8.769031)" stroke="#55749C" stroke-width="3" stroke-linecap="round" stroke-linejoin="round">
                    <path d="M267.283965,26.7919857 L267.283965,4.92894649 C267.283965,0.379359711 268.547266,0.12609938 272.209853,0.12609938 L324.752397,0.12609938 C328.794656,0.12609938 330.436114,1.5167564 330.436114,5.18144855 L330.436114,50.1715539 C330.436114,52.6996076 328.668099,55.1002729 325.510226,55.1002729 L278.777955,55.1002729" id="Stroke-26"></path>
                    <polyline id="Stroke-28" points="277.514654 45.2431382 317.679581 45.2431382 317.679581 11.3737395 304.417577 11.3737395 304.417577 44.7373758"></polyline>
                    <polyline id="Stroke-30" points="304.417577 29.4459114 291.786844 29.4459114 291.786844 45.2428349"></polyline>
                    <polyline id="Stroke-32" points="291.787072 29.4459114 291.787072 17.566182 277.514882 17.566182 277.514882 27.6131862"></polyline>
                    <path d="M248,85.6838843 L248,60.408655" id="Stroke-34"></path>
                    <path d="M258.568934,85.6838843 L258.568934,40.6937789 L275.11461,40.6937789 C280.293613,40.6937789 281.051441,32.4787417 281.051441,32.4787417 L239.749771,32.4787417 C233.81294,32.4787417 232.42384,35.5117996 232.42384,38.7981178 L232.42384,58.3863636 C232.42384,63.5675847 238.865385,64.4206322 238.865385,64.4206322 L238.865385,43.6002066 L238.865385,85.6838843" id="Stroke-36"></path>
                    <path d="M256.453303,18.3199727 C256.453303,23.2388343 253.046105,27.2257888 248.843186,27.2257888 C244.640268,27.2257888 241.233827,23.2388343 241.233827,18.3199727 C241.233827,13.4011112 244.640268,9.41415661 248.843186,9.41415661 C253.046105,9.41415661 256.453303,13.4011112 256.453303,18.3199727 Z" id="Stroke-38"></path>
                    <path d="M43.0611213,326.473654 L54.3095743,315.713123 C50.9061651,312.777881 46.8017643,310.638817 42.279042,309.577247 L40.3958374,325.100437 C41.3400921,325.459855 42.2373614,325.914813 43.0611213,326.473654 Z" id="Stroke-40"></path>
                    <path d="M34.5131154,324.300923 L36.3894996,308.835361 C36.1826123,308.830812 35.9772407,308.819438 35.7695956,308.819438 C28.7323973,308.819438 22.2976729,311.384646 17.3338942,315.623345 L28.16251,326.709929 C29.9835727,325.392066 32.1524787,324.527644 34.5131154,324.300923 Z" id="Stroke-42"></path>
                    <path d="M64.1884033,337.254279 C64.1884033,330.780975 62.0225286,324.815709 58.3811612,320.03561 L47.0834493,330.843153 C48.1580505,332.736539 48.7794701,334.921099 48.7794701,337.254279 C48.7794701,341.127494 47.0796601,344.595037 44.3961883,346.979021 L51.8410985,360.702849 C59.2966184,355.57774 64.1884033,346.988878 64.1884033,337.254279 Z" id="Stroke-44"></path>
                    <path d="M35.769823,350.271178 C28.584848,350.271178 22.7601758,344.443157 22.7601758,337.254052 C22.7601758,335.07025 23.3042969,333.015353 24.2546142,331.207651 L13.2403303,319.930742 C9.5504618,324.728281 7.35124259,330.732977 7.35124259,337.254052 C7.35124259,352.958467 20.0744305,365.688969 35.769823,365.688969 C39.6150463,365.688969 43.2791486,364.920847 46.624205,363.536256 L39.1747478,349.804845 C38.0880213,350.09981 36.9497624,350.271178 35.769823,350.271178 Z" id="Stroke-46"></path>
                    <path d="M52.5517904,306.069592 C53.8976944,306.796009 55.1913081,307.607352 56.4250534,308.496038" id="Stroke-48"></path>
                    <path d="M9.49824739,313.526971 C10.2121221,312.736101 10.960857,311.977837 11.7421785,311.254452" id="Stroke-50"></path>
                    <path d="M5.52434468,318.856508 C6.01541775,318.049715 6.53831962,317.264153 7.090019,316.501339" id="Stroke-52"></path>
                    <path d="M2.77448706,324.421336 C3.00638267,323.82534 3.25343486,323.236926 3.51640146,322.657612" id="Stroke-54"></path>
                    <path d="M7.35025741,358.36148 C2.97076472,352.467491 0.378990188,345.163887 0.378990188,337.254431 C0.378990188,334.093985 0.792764718,331.030596 1.56878142,328.114311" id="Stroke-56"></path>
                    <path d="M15.3003363,366.145065 C13.9127518,365.159321 12.5994344,364.075761 11.3702361,362.905001" id="Stroke-58"></path>
                    <path d="M64.9329701,357.322355 C64.0455526,358.610646 63.0755317,359.83676 62.0304858,360.993871" id="Stroke-60"></path>
                    <path d="M67.5496015,352.855798 C67.2919397,353.381275 67.020637,353.898412 66.7379668,354.408724" id="Stroke-62"></path>
                    <path d="M70.143801,345.717117 C69.8308177,346.995551 69.4481142,348.245929 69.0002374,349.465218" id="Stroke-64"></path>
                    <path d="M61.7696411,313.2292 C67.5988603,319.541752 71.1606557,327.981994 71.1606557,337.254052 C71.1606557,338.797878 71.062138,340.318957 70.8704073,341.810463" id="Stroke-66"></path>
                    <path d="M249.91703,172.631568 L260.526633,153.674956 C260.526633,153.674956 246.759915,148.921396 223.203564,156.518448 C212.334784,160.023905 204.27679,165.958082 203.209009,172.462475 C202.02528,179.676603 209.095823,189.000981 231.160767,193.673407 C266.968178,201.256051 298.274844,182.459434 296.424226,168.081981 L249.91703,172.631568 Z" id="Stroke-68"></path>
                    <path d="M203.08859,174.070071 L203.08859,211.303131 C203.08859,211.303131 216.601435,234.366503 252.758964,231.143879 C288.916492,227.921255 296.424302,210.355301 296.424302,210.355301 L296.424302,168.082057" id="Stroke-70"></path>
                    <path d="M275.304295,139.83663 L263.936863,163.911527 L309.406591,157.466279 C309.406591,157.466279 302.017761,142.680122 275.304295,139.83663 Z" id="Stroke-72"></path>
                    <polyline id="Stroke-74" points="296.424453 196.706465 309.406819 196.706465 309.406819 157.466279"></polyline>
                    <path d="M111,293.416256 L111,295.311917" id="Stroke-76"></path>
                    <path d="M111,286.607799 L111,288.740039" id="Stroke-78"></path>
                    <path d="M111,231.230381 L111,282.042441" id="Stroke-80"></path>
                    <path d="M111,225.551283 L111,227.296808" id="Stroke-82"></path>
                    <polyline id="Stroke-84" points="145.042838 272.690083 145.042838 280.020225 111.824928 280.020225"></polyline>
                    <polyline id="Stroke-86" points="111.824625 269.783427 160.325668 269.783427 160.325668 261.190016 111.824625 261.190016"></polyline>
                    <polyline id="Stroke-88" points="111.824625 255.376403 127.233558 255.376403 127.233558 249.057785"></polyline>
                    <polyline id="Stroke-90" points="111.824625 244.7607 140.116648 244.7607 140.116648 236.798923 111.824625 236.798923"></polyline>
                    <path d="M221.561577,363 L322.605165,363" id="Stroke-92"></path>
                    <polyline id="Stroke-94" points="308.080391 362.766382 308.080391 314.04789 289.134671 314.04789 289.134671 335.847994 289.134671 363.587582"></polyline>
                    <path d="M289.134671,335 L270.757322,335" id="Stroke-96"></path>
                    <polyline id="Stroke-98" points="270.757322 363.58781 270.757322 320.3038 252.190516 320.3038 252.190516 344.568262 252.190516 363.58781"></polyline>
                    <polyline id="Stroke-100" points="252.190516 344.568262 232.486967 344.568262 232.486967 362.76661"></polyline>
                    <path d="M228.003122,330.476903 L224.151078,334.331161" id="Stroke-102"></path>
                    <path d="M234.255209,324.221221 L230.339508,328.139174" id="Stroke-104"></path>
                    <path d="M239.757349,318.715918 L237.483863,320.990711" id="Stroke-106"></path>
                    <path d="M245.1806,313.289626 L242.970013,315.501483" id="Stroke-108"></path>
                    <polyline id="Stroke-110" points="308.080391 294.712146 307.985662 281.726868 278.146153 311.583531 262.515934 295.944326 245.1806 313.289626"></polyline>
                    <path d="M294.060558,281 L307.985662,281" id="Stroke-112"></path>
                    <path d="M116.012019,163 L30.6933785,163" id="Stroke-114"></path>
                    <path d="M39,110.168758 L39,163.24727" id="Stroke-116"></path>
                    <path d="M33.0297647,110 L33.9770507,110" id="Stroke-118"></path>
                    <path d="M33.0297647,120 L33.9770507,120" id="Stroke-120"></path>
                    <path d="M33.0297647,129 L33.9770507,129" id="Stroke-122"></path>
                    <path d="M33.0297647,138 L33.9770507,138" id="Stroke-124"></path>
                    <path d="M33.0297647,148 L33.9770507,148" id="Stroke-126"></path>
                    <path d="M33.0297647,157 L33.9770507,157" id="Stroke-128"></path>
                    <polyline id="Stroke-130" points="44.3971969 157.370721 50.8387418 157.370721 55.5751718 148.081981 68.6477188 148.081981 69.4055476 152.821134 78.8784077 152.821134 91.0036687 138.793242 98.0135852 138.793242 105.023502 129.504502 113.359619 129.504502"></polyline>
                    <polyline id="Stroke-132" points="44.3971969 129.504502 49.5125413 129.504502 53.1122282 122.111423 59.5537731 122.111423 62.5850883 116.234874 67.1320612 116.234874 73.0052344 130.831465 78.8784077 130.831465 82.6864975 122.797653 87.593439 122.490556 91.0036687 127.608841 97.0662992 127.608841 104.45513 114.907911 113.359619 114.907911"></polyline>
                    <polygon id="Stroke-17" points="145.696232 22.0168986 145.696232 61.1941486 157.063664 68.0185287 157.063664 29.0937808"></polygon>
                    <polyline id="Stroke-18" points="145.696232 22.0168986 157.063664 15.0658882 169.694397 22.0168986"></polyline>
                    <polyline id="Stroke-19" points="169.69417 32.7589279 182.071788 39.330806 169.69417 46.9134506 157.063437 39.330806 169.69417 32.7589279 169.69417 22.0165952 157.063437 29.0942357"></polyline>
                    <polyline id="Stroke-20" points="182.072015 39.3305785 182.072015 69.0295227 169.694397 75.4747707 169.694397 46.9132231"></polyline>
                    <path d="M157.063664,68.0182254 L169.694397,75.4742399" id="Stroke-21"></path>
                    <polyline id="Stroke-22" points="145.696232 61.1938452 132.055314 52.9795663 132.055314 41.2264671 145.696232 48.8091118"></polyline>
                    <path d="M144.938403,34.4650229 L132.055314,41.2264671" id="Stroke-23"></path>
                    <path d="M267.567924,55 L266.794181,55" id="Stroke-24"></path>
                    <path d="M274.799051,55 L271.957192,55" id="Stroke-25"></path>
                </g>
            </g>
        </g>
    </g>
</svg>