<svg width="244" height="80" xmlns="http://www.w3.org/2000/svg">
 <metadata id="metadata7">image/svg+xml</metadata>

 <g>
  <title>background</title>
  <rect fill="none" id="canvas_background" height="82" width="246" y="-1" x="-1"/>
 </g>
 <g>
  <title>Layer 1</title>
  <path stroke="null" id="svg_2" d="m35.904505,44.330643l-1.765646,-6.631231c0.51744,-0.487067 1.003109,-1.008216 1.461531,-1.565933l6.175142,1.894685c0.651326,-1.017965 1.211886,-2.099234 1.713428,-3.221876l-4.595599,-4.773142c0.220102,-0.701365 0.410754,-1.414882 0.546914,-2.150357l6.193314,-1.665721c0.045371,-0.613701 0.088514,-1.229805 0.088514,-1.858117s-0.045418,-1.242013 -0.088514,-1.855714l-6.193314,-1.665693c-0.138434,-0.735447 -0.329086,-1.44902 -0.546914,-2.150357l4.597874,-4.773114c-0.503817,-1.120267 -1.064377,-2.203966 -1.715703,-3.221904l-6.175142,1.892199c-0.456172,-0.555231 -0.944091,-1.076352 -1.461531,-1.565877l1.765646,-6.628801c-0.94864,-0.696504 -1.958525,-1.300428 -3.004731,-1.838673l-4.448114,4.933887c-0.651349,-0.2362 -1.318548,-0.438346 -2.003943,-0.586883l-1.550023,-6.648328c-0.574137,-0.046234 -1.146045,-0.094955 -1.731554,-0.094955s-1.157417,0.048721 -1.729326,0.094955l-1.552297,6.648328c-0.685371,0.148536 -1.35032,0.350682 -2.00392,0.586883l-4.448091,-4.933887c-1.043978,0.545509 -2.051589,1.14703 -3.000229,1.845937l1.765623,6.628856c-0.517417,0.487067 -1.005337,1.010646 -1.459234,1.563446l-6.17744,-1.894629c-0.651302,1.017937 -1.211862,2.101636 -1.713405,3.224306l4.597874,4.773114c-0.217874,0.701337 -0.408503,1.41491 -0.546914,2.150357l-6.195588,1.665749c-0.043097,0.613673 -0.088514,1.229777 -0.088514,1.855659s0.045418,1.242013 0.088514,1.858117l6.195588,1.665721c0.138411,0.735475 0.32904,1.448992 0.546914,2.150357l-4.597874,4.773142c0.50152,1.120239 1.062103,2.203911 1.713405,3.221876l6.17744,-1.894629c0.453897,0.557661 0.941817,1.076352 1.459234,1.565877l-1.765623,6.631231c0.94864,0.696476 1.958525,1.297997 3.00248,1.838617l4.448114,-4.933831c0.6536,0.236228 1.318525,0.440777 2.003897,0.586883l1.55232,6.64587c0.571909,0.048721 1.146045,0.094983 1.731554,0.094983s1.157417,-0.048721 1.7316,-0.094983l1.550023,-6.64587c0.685371,-0.148509 1.352594,-0.353113 2.00392,-0.586883l4.448091,4.933831c1.041703,-0.545481 2.051589,-1.147002 3.000229,-1.843478zm-12.736136,-11.691752c-4.259713,0 -7.713816,-3.706484 -7.713816,-8.27748s3.454103,-8.275078 7.713816,-8.275078s7.711588,3.704026 7.711588,8.275078s-3.451828,8.27748 -7.711588,8.27748zm35.158214,17.302643c0.043097,-1.332079 -0.136183,-2.688547 -0.521989,-4.027973l2.823177,-4.317727c-0.426651,-0.852332 -0.907771,-1.660832 -1.454708,-2.396307l-4.815725,1.083671c-0.971337,-0.886414 -2.07656,-1.578029 -3.258925,-2.072415l-1.38664,-5.062924c-0.876,-0.165605 -1.763348,-0.2557 -2.662068,-0.258102l-2.210399,4.714644c-0.6332,0.131551 -1.266354,0.311739 -1.888183,0.567439c-0.58328,0.238686 -1.12792,0.535787 -1.649909,0.859651l-4.552502,-1.994473c-0.674023,0.638034 -1.289028,1.32719 -1.84504,2.074846l2.058365,4.792614c-0.587783,1.205473 -0.991737,2.50347 -1.17784,3.859937l-4.291485,2.581384c0.043097,0.944884 0.172457,1.889796 0.372183,2.837111l4.774879,1.263915c0.524263,1.276039 1.227783,2.418181 2.078834,3.392314l-0.798857,5.206627c0.72624,0.56012 1.497828,1.04227 2.298937,1.461144l3.892079,-3.214529c1.216434,0.343363 2.489612,0.474831 3.771817,0.365265l3.295246,3.913491c0.453897,-0.138815 0.905497,-0.287379 1.352571,-0.470026c0.397177,-0.160717 0.771635,-0.350682 1.146092,-0.543051l0.083942,-5.272361c1.032606,-0.825569 1.913154,-1.819174 2.6144,-2.936983l4.904286,-0.326294c0.344937,-0.874262 0.633154,-1.782605 0.835154,-2.715338l-3.787691,-3.365551zm-9.447714,4.887624c-2.725565,1.115323 -5.775713,-0.35071 -6.81737,-3.275457s0.324514,-6.200204 3.050102,-7.318013c2.725611,-1.115379 5.780262,0.350682 6.821965,3.275429c1.039382,2.924775 -0.329086,6.200232 -3.054697,7.318041z" stroke-opacity="null" stroke-width="0" fill="#ffffff"/>
  <text font-weight="bold" stroke="null" transform="matrix(0.9379592043220972,0,0,2.3964517583746083,31.22197072725836,29.340017759995238) " xml:space="preserve" text-anchor="start" font-family="'Courier New', Courier, monospace" font-size="28" id="svg_4" y="11.333343" x="41.167217" stroke-opacity="null" stroke-width="0" fill="#ffffff">OpenBigData</text>
 </g>
</svg>