<?xml version="1.0" encoding="UTF-8"?>
<svg width="24px" height="24px" viewBox="0 0 24 24" version="1.1" xmlns="http://www.w3.org/2000/svg" xmlns:xlink="http://www.w3.org/1999/xlink">
    <!-- Generator: sketchtool 42 (36781) - http://www.bohemiancoding.com/sketch -->
    <title>168B1451-B87C-48F7-A58E-33BC3C4438D9</title>
    <desc>Created with sketchtool.</desc>
    <defs></defs>
    <g id="Page-1" stroke="none" stroke-width="1" fill="none" fill-rule="evenodd">
        <g id="1--landingpage" transform="translate(-898.000000, -2886.000000)" fill="#3E5881">
            <g id="footer" transform="translate(0.000000, 2853.000000)">
                <g id="post-facebook" transform="translate(898.000000, 33.000000)">
                    <path d="M21.6,0 L2.4,0 C1.08,0 0,1.08 0,2.4 L0,21.6 C0,22.92 1.08,24 2.4,24 L21.6,24 C22.92,24 24,22.92 24,21.6 L24,2.4 C24,1.08 22.92,0 21.6,0 L21.6,0 Z M20.4,2.4 L20.4,6 L18,6 C17.28,6 16.8,6.48 16.8,7.2 L16.8,9.6 L20.4,9.6 L20.4,13.2 L16.8,13.2 L16.8,21.6 L13.2,21.6 L13.2,13.2 L10.8,13.2 L10.8,9.6 L13.2,9.6 L13.2,6.6 C13.2,4.32 15.12,2.4 17.4,2.4 L20.4,2.4 L20.4,2.4 Z" id="Shape"></path>
                </g>
            </g>
        </g>
    </g>
</svg>