<?xml version="1.0" encoding="UTF-8"?>
<svg width="122px" height="32px" viewBox="0 0 122 32" version="1.1" xmlns="http://www.w3.org/2000/svg" xmlns:xlink="http://www.w3.org/1999/xlink">
    <!-- Generator: sketchtool 42 (36781) - http://www.bohemiancoding.com/sketch -->
    <title>27CBAE1E-2422-4D70-A48C-C313A9488DBA</title>
    <desc>Created with sketchtool.</desc>
    <defs>
        <polygon id="path-1" points="0.0148178138 25.9307007 0.0148178138 31.9996622 111.351672 31.9996622 111.351672 25.9307007 0.0148178138 25.9307007"></polygon>
    </defs>
    <g id="Page-1" stroke="none" stroke-width="1" fill="none" fill-rule="evenodd">
        <g id="1--landingpage" transform="translate(-107.000000, -629.000000)">
            <g id="Group-11" transform="translate(107.000000, 613.000000)">
                <g id="logo-ibge" transform="translate(0.000000, 16.000000)">
                    <mask id="mask-2" fill="white">
                        <use xlink:href="#path-1"></use>
                    </mask>
                    <g id="Clip-2"></g>
                    <path d="M0,30.6884885 L0.524797571,30.6884885 L0.524797571,26.0223511 L0,26.0223511 L0,30.6884885 Z M0.524797571,26.0223511 L0,26.0223511 L0.524797571,26.0223511 Z M1.44893522,27.4384122 L1.90631174,27.4384122 L1.90631174,27.8829924 C2.11178543,27.5300153 2.41752632,27.3507176 2.82081781,27.3468092 C2.99245749,27.3468092 3.15076113,27.3819847 3.29350607,27.4498931 C3.6254251,27.6015878 3.79805263,27.9841221 3.82398381,28.6016489 L3.82595951,28.7570076 L3.82595951,30.6884885 L3.33795951,30.6884885 L3.33795951,28.7399084 C3.33795951,28.2694351 3.21917004,27.9765496 2.98183806,27.8592977 C2.89317814,27.8153282 2.79365182,27.7952977 2.6867166,27.7952977 C2.19081377,27.7913893 1.94286235,28.1062595 1.93718219,28.7399084 L1.93718219,30.6884885 L1.44893522,30.6884885 L1.44893522,27.4384122 Z M5.01261943,29.7094351 C5.03953846,30.1293435 5.23636842,30.3362443 5.59718219,30.3362443 C6.00417814,30.3286718 6.20891093,30.1530382 6.2165668,29.8000611 C6.2165668,29.6388397 6.15087449,29.5186565 6.01874899,29.4487939 C5.93008907,29.4040916 5.83352632,29.3667176 5.73029555,29.3325191 C5.55964372,29.2760916 5.38775709,29.2218626 5.21710526,29.1634809 C4.99138057,29.085313 4.83604049,28.9907786 4.75306073,28.8820763 C4.63921053,28.7399084 4.58240891,28.551084 4.58240891,28.3104733 C4.57845749,28.1167634 4.62562753,27.9469924 4.72021457,27.7952977 C4.81381377,27.642626 4.92963968,27.5339237 5.07238462,27.4660153 C5.23834413,27.3839389 5.41591093,27.3468092 5.60582591,27.3468092 C5.91650607,27.3468092 6.15680162,27.4117863 6.330417,27.539542 C6.45488664,27.6350534 6.53959514,27.7447328 6.58997571,27.8658931 C6.62553846,27.9604275 6.64776518,28.1101679 6.65640891,28.3124275 L6.14815789,28.3124275 C6.12593117,27.9670229 5.95799595,27.7952977 5.64262348,27.7952977 C5.48530769,27.798229 5.36577733,27.8287634 5.27983401,27.8829924 C5.14869636,27.9709313 5.08497976,28.0891603 5.08967206,28.2418321 C5.08497976,28.4145344 5.15338866,28.5376489 5.30206073,28.605313 C5.4398664,28.6617405 5.64731579,28.733313 5.92712551,28.8180763 C6.0545587,28.8581374 6.17211336,28.9050382 6.2802834,28.9575573 C6.57046559,29.1024122 6.71716194,29.3630534 6.72210121,29.7436336 C6.72210121,30.085374 6.60923887,30.3535878 6.37956275,30.5538931 C6.2010081,30.707542 5.95404453,30.786687 5.64534008,30.7810687 C5.21710526,30.786687 4.91037652,30.6750534 4.72219028,30.4469008 C4.59772065,30.3020458 4.52634818,30.0585038 4.50807287,29.7094351 L5.01261943,29.7094351 Z M7.15428745,27.4384122 L7.69538462,27.4384122 L7.69538462,26.8287023 L8.18461943,26.5814962 L8.18461943,27.4384122 L8.85018623,27.4384122 L8.85018623,27.8754198 L8.18461943,27.8754198 L8.18461943,29.8410992 L8.1922753,30.0509313 L8.21252632,30.1598779 C8.24240891,30.2820153 8.33699595,30.3401527 8.49431174,30.3362443 C8.58766397,30.3362443 8.70645344,30.319145 8.85018623,30.2856794 L8.85018623,30.7331908 C8.64940486,30.7637252 8.48369231,30.7810687 8.35625911,30.7810687 C7.93864372,30.7810687 7.71761134,30.5700153 7.69834818,30.1598779 L7.69538462,29.8200916 L7.69538462,27.8754198 L7.15428745,27.8754198 L7.15428745,27.4384122 Z M9.51970445,30.6884885 L10.0086923,30.6884885 L10.0086923,27.4384122 L9.51970445,27.4384122 L9.51970445,30.6884885 Z M10.0086923,27.4384122 L9.51970445,27.4384122 L10.0086923,27.4384122 Z M9.49747773,26.6386565 L10.0338826,26.6386565 L10.0338826,26.0157557 L9.49747773,26.0157557 L9.49747773,26.6386565 Z M10.0328947,26.0157557 L9.49747773,26.0157557 L10.0328947,26.0157557 Z M10.586587,27.4384122 L11.1286721,27.4384122 L11.1286721,26.8287023 L11.616919,26.5814962 L11.616919,27.4384122 L12.2824858,27.4384122 L12.2824858,27.8754198 L11.616919,27.8754198 L11.616919,29.8410992 L11.6245749,30.0509313 L11.6448259,30.1598779 C11.6747085,30.2820153 11.7692955,30.3401527 11.9266113,30.3362443 C12.0202105,30.3362443 12.138753,30.319145 12.2824858,30.2856794 L12.2824858,30.7331908 C12.0799757,30.7637252 11.915004,30.7810687 11.7885587,30.7810687 C11.3709433,30.7810687 11.1499109,30.5700153 11.1306478,30.1598779 L11.1286721,29.8200916 L11.1286721,27.8754198 L10.586587,27.8754198 L10.586587,27.4384122 Z M13.4027126,27.4384122 L13.4027126,29.3029618 C13.4027126,29.5472366 13.4237045,29.7494962 13.4681579,29.9087634 C13.5375547,30.1904122 13.7393239,30.3325802 14.0729717,30.3362443 C14.3142551,30.3401527 14.5061457,30.2446412 14.6558057,30.0509313 C14.7521215,29.9261069 14.802502,29.6759695 14.802502,29.3029618 L14.802502,27.4384122 L15.2914899,27.4384122 L15.2914899,30.6884885 L14.8390526,30.6884885 L14.8390526,30.2370687 C14.6335789,30.5968855 14.3335182,30.7810687 13.9331903,30.7810687 C13.5570648,30.7810687 13.2839231,30.643542 13.1063563,30.3697099 C12.9801579,30.1730687 12.9154534,29.814229 12.9154534,29.2856183 L12.9154534,27.4384122 L13.4027126,27.4384122 Z M15.8528381,27.4384122 L16.3941822,27.4384122 L16.3941822,26.8287023 L16.88317,26.5814962 L16.88317,27.4384122 L17.5489838,27.4384122 L17.5489838,27.8754198 L16.88317,27.8754198 L16.88317,29.8410992 L16.8918138,30.0509313 L16.9113239,30.1598779 C16.9421943,30.2820153 17.0348057,30.3401527 17.1928623,30.3362443 C17.2864615,30.3362443 17.4059919,30.319145 17.5489838,30.2856794 L17.5489838,30.7331908 C17.3472146,30.7637252 17.1822429,30.7810687 17.0550567,30.7810687 C16.6381822,30.7810687 16.4173968,30.5700153 16.3978866,30.1598779 L16.3941822,29.8200916 L16.3941822,27.8754198 L15.8528381,27.8754198 L15.8528381,27.4384122 Z M18.0920567,29.058687 C18.0881053,28.7027786 18.144166,28.3945038 18.2570283,28.1236031 C18.3891538,27.8114198 18.5773401,27.5976794 18.8233158,27.475542 C18.9969312,27.3878473 19.1851174,27.3468092 19.3923198,27.3468092 C19.5911255,27.3468092 19.7696802,27.3878473 19.933664,27.4660153 C20.211498,27.5976794 20.4169717,27.849771 20.5414413,28.2188702 C20.6271377,28.4680305 20.6706032,28.7494351 20.6686275,29.0557557 C20.6686275,29.4250992 20.6138016,29.7436336 20.4999514,30.0079389 C20.3618988,30.3230534 20.1680324,30.5385038 19.920081,30.6550229 C19.743502,30.7390534 19.5572915,30.7810687 19.3587328,30.7810687 C18.9534656,30.7810687 18.632166,30.6178931 18.4054534,30.2886107 C18.1989919,29.9947481 18.0940324,29.5843664 18.0920567,29.058687 Z M18.5993198,29.085313 C18.5975911,29.3420458 18.6274737,29.5748397 18.6911903,29.7734351 C18.7981255,30.1425344 19.0278016,30.3286718 19.3760202,30.3362443 C19.648915,30.3401527 19.8563644,30.200916 19.994417,29.9192672 C20.1043158,29.6920916 20.1603765,29.4001832 20.1603765,29.0423206 C20.1603765,28.7904733 20.1265425,28.5606107 20.0608502,28.3478473 C19.9509514,27.980458 19.7281903,27.798229 19.3952834,27.7952977 C19.1223887,27.798229 18.9119757,27.9374656 18.7702186,28.2112977 C18.6583441,28.4211298 18.6022834,28.7132824 18.5993198,29.085313 Z M23.3728785,26.0223511 L24.6605466,26.0223511 C24.8148988,26.0223511 24.9586316,26.0338321 25.0966842,26.0538626 C25.3658745,26.0939237 25.5819676,26.2121527 25.7439757,26.4021985 C25.9195668,26.6120305 26.0082267,26.8763359 26.0141538,27.1980458 C26.0111903,27.4193588 25.9669838,27.6150229 25.8790648,27.7818626 C25.7711417,27.9765496 25.6476599,28.1062595 25.5056559,28.1663511 C25.4661417,28.1873588 25.4044008,28.2047023 25.3204332,28.2227786 C25.8751134,28.3744733 26.1549231,28.7770382 26.1549231,29.434626 C26.1492429,29.9192672 25.986247,30.2722443 25.6688988,30.4879389 C25.5231903,30.5900458 25.3572308,30.6511145 25.1749717,30.671145 C25.0793968,30.6816489 24.9067692,30.6845802 24.6605466,30.6884885 L23.3728785,30.6884885 L23.3728785,26.0223511 Z M23.898664,30.1501069 L24.6741296,30.1501069 C24.9944413,30.1501069 25.2105344,30.109313 25.3290769,30.0348092 C25.5278826,29.903145 25.6274089,29.6720611 25.6274089,29.3459542 C25.6214818,28.8 25.3041336,28.5300763 24.6741296,28.5222595 L23.898664,28.5222595 L23.898664,30.1501069 Z M23.898664,27.9841221 L24.6827733,27.9841221 C25.2241174,27.980458 25.4923198,27.7476641 25.4863927,27.279145 C25.4863927,26.8047634 25.2191781,26.5643969 24.6827733,26.5604885 L23.898664,26.5604885 L23.898664,27.9841221 Z M26.7819636,27.4384122 L27.2721862,27.4384122 L27.2721862,27.7952977 L27.3791215,27.6521527 C27.4601255,27.5510229 27.5480445,27.4794504 27.6446073,27.4325496 C27.7554939,27.3783206 27.8760121,27.3468092 28.0044332,27.3468092 L28.1558219,27.3468092 L28.1558219,27.9003359 L27.9868988,27.8869008 C27.7110405,27.8869008 27.5122348,28.0146565 27.3897409,28.2694351 C27.3136761,28.4421374 27.2721862,28.7237863 27.2721862,29.112916 L27.2721862,30.6884885 L26.7819636,30.6884885 L26.7819636,27.4384122 Z M28.8087935,28.2963053 C28.8280567,28.0852519 28.8552227,27.941374 28.8860931,27.8563664 C28.9382024,27.7276336 29.0231579,27.618687 29.1426883,27.5339237 C29.3229717,27.4117863 29.5632672,27.3468092 29.8633279,27.3468092 C30.1979636,27.3468092 30.4488785,27.4193588 30.6205182,27.554687 C30.8269798,27.7161527 30.9302105,27.9919389 30.9351498,28.3849771 L30.9351498,29.6512977 L30.9388543,29.903145 L30.9437935,30.227542 C30.9494737,30.3631145 30.9600931,30.4679084 30.9736761,30.5424122 L31.0092389,30.6884885 L30.5385263,30.6884885 C30.493332,30.5328855 30.4681417,30.383145 30.4624615,30.2417099 L30.4209717,30.319145 C30.3745425,30.4002443 30.3197166,30.4747481 30.256,30.5328855 C30.0900405,30.695084 29.8776518,30.7810687 29.6230324,30.7810687 C29.4523806,30.7810687 29.2921012,30.7427176 29.1426883,30.668458 C29.0364939,30.6205802 28.9515385,30.5499847 28.8811538,30.4583817 C28.819413,30.383145 28.7692794,30.2886107 28.7364332,30.1835725 C28.690251,30.0548397 28.6709879,29.9231756 28.6709879,29.7770992 C28.6709879,29.644458 28.6862996,29.5186565 28.7277895,29.3965191 C28.7673036,29.2760916 28.8280567,29.1634809 28.9100486,29.0662595 C29.0075992,28.943145 29.1088543,28.8581374 29.2180121,28.8114809 C29.449417,28.7103511 29.7388583,28.6558779 30.0813968,28.6522137 L30.4469028,28.6522137 C30.4469028,28.3239084 30.418996,28.1101679 30.3639231,28.0109924 C30.2742753,27.8698015 30.1122672,27.7952977 29.8739474,27.7952977 C29.7079879,27.7952977 29.5805547,27.8287634 29.4909069,27.8925191 C29.402247,27.9574962 29.3414939,28.0891603 29.3163036,28.2963053 L28.8087935,28.2963053 Z M30.4469028,29.0892214 L30.1344939,29.0892214 C29.8825911,29.0928855 29.6781053,29.1224427 29.5198016,29.1883969 C29.2940769,29.2760916 29.178251,29.4661374 29.178251,29.7560916 C29.178251,29.9498015 29.2362874,30.0958779 29.3471741,30.1930992 C29.4580607,30.2886107 29.5891984,30.3362443 29.7428097,30.3362443 C30.0794211,30.3362443 30.289587,30.1694046 30.3715789,29.8447634 C30.4209717,29.6512977 30.4469028,29.4001832 30.4469028,29.0892214 Z M32.1148947,29.7094351 C32.1428016,30.1293435 32.3396316,30.3362443 32.7014332,30.3362443 C33.1076883,30.3286718 33.3111862,30.1530382 33.31983,29.8000611 C33.31983,29.6388397 33.2541377,29.5186565 33.1210243,29.4487939 C33.0333522,29.4040916 32.9367895,29.3667176 32.8345466,29.3325191 C32.661919,29.2760916 32.4910202,29.2218626 32.3203684,29.1634809 C32.0936559,29.085313 31.9383158,28.9907786 31.8563239,28.8820763 C31.7424737,28.7399084 31.6846842,28.551084 31.6846842,28.3104733 C31.6817206,28.1167634 31.7291377,27.9469924 31.8234777,27.7952977 C31.9160891,27.642626 32.031915,27.5339237 32.1766356,27.4660153 C32.3425951,27.3839389 32.5191741,27.3468092 32.7090891,27.3468092 C33.0187814,27.3468092 33.2590769,27.4117863 33.4336802,27.539542 C33.5581498,27.6350534 33.6431053,27.7447328 33.692251,27.8658931 C33.7288016,27.9604275 33.7510283,28.1101679 33.7596721,28.3124275 L33.2514211,28.3124275 C33.2282065,27.9670229 33.0602713,27.7952977 32.7448988,27.7952977 C32.587583,27.798229 32.4690405,27.8287634 32.384085,27.8829924 C32.2509717,27.9709313 32.1872551,28.0891603 32.1929352,28.2418321 C32.1872551,28.4145344 32.2566518,28.5376489 32.4063117,28.605313 C32.5431296,28.6617405 32.7515668,28.733313 33.0294008,28.8180763 C33.1558462,28.8581374 33.2763644,28.9050382 33.3835466,28.9575573 C33.6739757,29.1024122 33.8204251,29.3630534 33.8253644,29.7436336 C33.8253644,30.085374 33.7115142,30.3535878 33.4838138,30.5538931 C33.3035304,30.707542 33.0573077,30.786687 32.7486032,30.7810687 C32.3203684,30.786687 32.0136397,30.6750534 31.8254534,30.4469008 C31.7009838,30.3020458 31.6296113,30.0585038 31.6103482,29.7094351 L32.1148947,29.7094351 Z M34.5506964,30.6884885 L35.0389433,30.6884885 L35.0389433,27.4384122 L34.5506964,27.4384122 L34.5506964,30.6884885 Z M35.0389433,27.4384122 L34.5506964,27.4384122 L35.0389433,27.4384122 Z M34.5284696,26.6386565 L35.0648745,26.6386565 L35.0648745,26.0157557 L34.5284696,26.0157557 L34.5284696,26.6386565 Z M35.0638866,26.0157557 L34.5284696,26.0157557 L35.0638866,26.0157557 Z M35.8956599,30.6884885 L36.3846478,30.6884885 L36.3846478,26.0157557 L35.8956599,26.0157557 L35.8956599,30.6884885 Z M37.636753,29.1473588 C37.650336,29.4451298 37.6765142,29.6615573 37.7140526,29.7941985 C37.7834494,30.0272366 37.9022389,30.1865038 38.0652348,30.2646718 C38.158834,30.3132824 38.2561377,30.3362443 38.3633198,30.3362443 C38.7288259,30.3286718 38.938251,30.1034504 38.9933239,29.6483664 L39.5025628,29.6483664 C39.4630486,29.9363664 39.4022955,30.1425344 39.324996,30.2722443 C39.2054656,30.4583817 39.0656842,30.5900458 38.8967611,30.668458 C38.7308016,30.746626 38.5542227,30.7837557 38.3662834,30.7810687 C37.9523725,30.7837557 37.6397166,30.6274198 37.4295506,30.319145 C37.2258057,30.0177099 37.1255385,29.6178321 37.1314656,29.112916 C37.128502,28.760916 37.1736964,28.4450687 37.2616154,28.1663511 C37.3445951,27.9098626 37.4903036,27.7027176 37.7054089,27.5471145 C37.8916194,27.4117863 38.1094413,27.344855 38.3633198,27.3468092 C39.080996,27.3543817 39.4677409,27.798229 39.5181215,28.6827481 L39.5267652,29.1473588 L37.636753,29.1473588 Z M37.636753,28.7103511 L39.0182672,28.7103511 C39.0096235,28.3905954 38.9604777,28.1663511 38.87083,28.0425038 C38.7587085,27.8793282 38.5870688,27.7952977 38.3546761,27.7952977 C37.9869474,27.7952977 37.7641862,28.0146565 37.6812065,28.4489771 L37.636753,28.7103511 Z M40.2590121,30.6884885 L40.748,30.6884885 L40.748,27.4384122 L40.2590121,27.4384122 L40.2590121,30.6884885 Z M40.7489879,27.4384122 L40.2590121,27.4384122 L40.7489879,27.4384122 Z M40.2367854,26.6386565 L40.7731903,26.6386565 L40.7731903,26.0157557 L40.2367854,26.0157557 L40.2367854,26.6386565 Z M40.7731903,26.0157557 L40.2367854,26.0157557 L40.7731903,26.0157557 Z M41.6027409,27.4384122 L42.0909879,27.4384122 L42.0909879,27.7952977 L42.1989109,27.6521527 C42.2789271,27.5510229 42.367834,27.4794504 42.4641498,27.4325496 C42.5752834,27.3783206 42.6967895,27.3468092 42.8229879,27.3468092 L42.9756113,27.3468092 L42.9756113,27.9003359 L42.8066883,27.8869008 C42.53083,27.8869008 42.3320243,28.0146565 42.2105182,28.2694351 C42.1332186,28.4421374 42.0909879,28.7237863 42.0909879,29.112916 L42.0909879,30.6884885 L41.6027409,30.6884885 L41.6027409,27.4384122 Z M43.4645992,29.058687 C43.4616356,28.7027786 43.5186842,28.3945038 43.6305587,28.1236031 C43.7636721,27.8114198 43.9518583,27.5976794 44.197834,27.475542 C44.3714494,27.3878473 44.5596356,27.3468092 44.7660972,27.3468092 C44.9656437,27.3468092 45.1441984,27.3878473 45.3071943,27.4660153 C45.587004,27.5976794 45.790502,27.849771 45.9149717,28.2188702 C46.000915,28.4680305 46.0451215,28.7494351 46.0424049,29.0557557 C46.0424049,29.4250992 45.987332,29.7436336 45.8734818,30.0079389 C45.736417,30.3230534 45.5425506,30.5385038 45.2945992,30.6550229 C45.1172794,30.7390534 44.9320567,30.7810687 44.7322632,30.7810687 C44.326996,30.7810687 44.0066842,30.6178931 43.7799717,30.2886107 C43.5727692,29.9947481 43.4685506,29.5843664 43.4645992,29.058687 Z M43.974085,29.085313 C43.9711215,29.3420458 44.0019919,29.5748397 44.0647206,29.7734351 C44.1726437,30.1425344 44.4023198,30.3286718 44.7495506,30.3362443 C45.0226923,30.3401527 45.2308826,30.200916 45.3689352,29.9192672 C45.4778462,29.6920916 45.5348947,29.4001832 45.5348947,29.0423206 C45.5348947,28.7904733 45.5010607,28.5606107 45.4346275,28.3478473 C45.3244818,27.980458 45.1036964,27.798229 44.7698016,27.7952977 C44.495919,27.798229 44.2855061,27.9374656 44.143749,28.2112977 C44.0318745,28.4211298 43.9758138,28.7132824 43.974085,29.085313 Z M50.501085,26.0157557 L50.9873563,26.0157557 L50.9873563,30.6884885 L50.501085,30.6884885 L50.501085,30.2685802 C50.3188259,30.6100763 50.040004,30.7810687 49.6705466,30.7810687 C49.5075506,30.7837557 49.3578907,30.7495573 49.2257652,30.6750534 C48.7501134,30.4278473 48.5130283,29.8955725 48.5177206,29.0757863 C48.5177206,28.5806412 48.6093441,28.1846718 48.7888866,27.8869008 C49.0069555,27.5300153 49.3050405,27.3507176 49.681166,27.3468092 C49.9849312,27.3507176 50.2212753,27.4660153 50.3941498,27.6961221 L50.501085,27.852458 L50.501085,26.0157557 Z M49.0232551,29.112916 C49.0232551,29.4507481 49.0733887,29.7265344 49.1756316,29.9327023 C49.3087449,30.1970076 49.4989069,30.3325802 49.7468583,30.3362443 C50.2474534,30.3267176 50.4991093,29.8916641 50.501085,29.0327939 C50.501085,28.7904733 50.4702146,28.5606107 50.4047692,28.3429618 C50.3573522,28.1846718 50.2753603,28.0520305 50.15583,27.943084 C50.0459312,27.8458626 49.918498,27.7952977 49.7727895,27.7952977 C49.4949555,27.7952977 49.2944211,27.941374 49.1699514,28.2352366 C49.0704251,28.4680305 49.0202915,28.7648244 49.0232551,29.112916 Z M52.2367449,29.1473588 C52.250081,29.4451298 52.2762591,29.6615573 52.3137976,29.7941985 C52.3831943,30.0272366 52.5019838,30.1865038 52.6649798,30.2646718 C52.7595668,30.3132824 52.8558826,30.3362443 52.9630648,30.3362443 C53.32783,30.3286718 53.537996,30.1034504 53.5930688,29.6483664 L54.100332,29.6483664 C54.0627935,29.9363664 54.0020405,30.1425344 53.9249879,30.2722443 C53.8052105,30.4583817 53.6654291,30.5900458 53.4965061,30.668458 C53.3305466,30.746626 53.1549555,30.7837557 52.9670162,30.7810687 C52.5521174,30.7837557 52.2394615,30.6274198 52.0292955,30.319145 C51.8257976,30.0177099 51.7252834,29.6178321 51.7312105,29.112916 C51.7292348,28.760916 51.7727004,28.4450687 51.8613603,28.1663511 C51.9443401,27.9098626 52.0900486,27.7027176 52.3051538,27.5471145 C52.4903765,27.4117863 52.7094332,27.344855 52.9630648,27.3468092 C53.6817287,27.3543817 54.0677328,27.798229 54.1178664,28.6827481 L54.1265101,29.1473588 L52.2367449,29.1473588 Z M52.2367449,28.7103511 L53.6170243,28.7103511 C53.6103563,28.3905954 53.5602227,28.1663511 53.4705749,28.0425038 C53.3587004,27.8793282 53.1868138,27.7952977 52.9554089,27.7952977 C52.5869393,27.7952977 52.3639312,28.0146565 52.2809514,28.4489771 L52.2367449,28.7103511 Z M58.5525911,28.1512061 L59.9387976,28.1512061 L59.9387976,30.5089466 C59.3841174,30.6884885 58.939336,30.7810687 58.6027247,30.7810687 C58.2535182,30.7837557 57.9418502,30.7151145 57.665004,30.5834504 C57.3320972,30.4241832 57.0764899,30.1293435 56.9028745,29.6950229 C56.757166,29.3361832 56.6867814,28.9087023 56.6907328,28.4116031 C56.6867814,27.6760916 56.8364413,27.0864122 57.1372429,26.6464733 C57.4661984,26.1645191 57.9245628,25.9268397 58.5130769,25.9307481 C58.72917,25.9307481 58.939336,25.9642137 59.1411053,26.0338321 C59.6320688,26.1989618 59.8973077,26.5643969 59.9350931,27.1340458 L59.9387976,27.2188092 L59.4120243,27.2188092 L59.3705344,27.032916 C59.339664,26.9212824 59.2895304,26.8287023 59.2258138,26.7541985 C59.1381417,26.6491603 59.0329352,26.5775878 58.9134049,26.5348397 C58.7946154,26.4908702 58.668417,26.4688855 58.5353036,26.4688855 C58.3451417,26.4688855 58.1628826,26.5099237 57.990996,26.5910229 C57.5723927,26.7857099 57.3234534,27.2112366 57.245413,27.8793282 C57.2271377,28.0385954 57.2155304,28.2047023 57.2155304,28.3705649 C57.2155304,28.736 57.2597368,29.0691908 57.3476559,29.3667176 C57.5136154,29.9498015 57.93617,30.2417099 58.6163077,30.2417099 C58.8254858,30.2446412 59.0465182,30.2104427 59.2828623,30.1359389 L59.4120243,30.0890382 L59.4120243,28.6893435 L58.5525911,28.6893435 L58.5525911,28.1512061 Z M61.2267126,29.1473588 C61.2402955,29.4451298 61.2662267,29.6615573 61.304753,29.7941985 C61.3734089,30.0272366 61.4909636,30.1865038 61.6549474,30.2646718 C61.7495344,30.3132824 61.8451093,30.3362443 61.9530324,30.3362443 C62.3177976,30.3286718 62.5282105,30.1034504 62.5830364,29.6483664 L63.0915344,29.6483664 C63.0527611,29.9363664 62.9920081,30.1425344 62.9149555,30.2722443 C62.796166,30.4583817 62.6544089,30.5900458 62.4867206,30.668458 C62.3207611,30.746626 62.14517,30.7837557 61.9569838,30.7810687 C61.5410972,30.7837557 61.2296761,30.6274198 61.020251,30.319145 C60.8157652,30.0177099 60.715498,29.6178321 60.7211781,29.112916 C60.7192024,28.760916 60.762668,28.4450687 60.850587,28.1663511 C60.9333198,27.9098626 61.0800162,27.7027176 61.2961093,27.5471145 C61.4803441,27.4117863 61.6994008,27.344855 61.9530324,27.3468092 C62.6719433,27.3543817 63.0577004,27.798229 63.107834,28.6827481 L63.1164777,29.1473588 L61.2267126,29.1473588 Z M61.2267126,28.7103511 L62.6082267,28.7103511 C62.599583,28.3905954 62.5501903,28.1663511 62.4615304,28.0425038 C62.348668,27.8793282 62.1780162,27.7952977 61.9443887,27.7952977 C61.5769069,27.7952977 61.3541457,28.0146565 61.271166,28.4489771 L61.2267126,28.7103511 Z M63.7215385,29.058687 C63.7185749,28.7027786 63.7743887,28.3945038 63.887251,28.1236031 C64.0203644,27.8114198 64.2085506,27.5976794 64.4535385,27.475542 C64.6274008,27.3878473 64.8153401,27.3468092 65.0227895,27.3468092 C65.2215951,27.3468092 65.4008907,27.3878473 65.5648745,27.4660153 C65.8427085,27.5976794 66.0481822,27.849771 66.1726518,28.2188702 C66.2576073,28.4680305 66.3020607,28.7494351 66.2990972,29.0557557 C66.2990972,29.4250992 66.2440243,29.7436336 66.1311619,30.0079389 C65.9923684,30.3230534 65.7994899,30.5385038 65.5505506,30.6550229 C65.3739717,30.7390534 65.188749,30.7810687 64.9899433,30.7810687 C64.5849231,30.7810687 64.2636235,30.6178931 64.0369109,30.2886107 C63.8304494,29.9947481 63.7242551,29.5843664 63.7215385,29.058687 Z M64.2307773,29.085313 C64.2278138,29.3420458 64.2576964,29.5748397 64.321413,29.7734351 C64.429583,30.1425344 64.6580243,30.3286718 65.0064899,30.3362443 C65.2803725,30.3401527 65.4878219,30.200916 65.6256275,29.9192672 C65.7357733,29.6920916 65.7905992,29.4001832 65.7905992,29.0423206 C65.7905992,28.7904733 65.758,28.5606107 65.6913198,28.3478473 C65.5804332,27.980458 65.3594008,27.798229 65.0247652,27.7952977 C64.7526113,27.798229 64.5414575,27.9374656 64.4014291,28.2112977 C64.2875789,28.4211298 64.232753,28.7132824 64.2307773,29.085313 Z M67.5455223,30.9422901 L67.5484858,31.0509924 C67.5763927,31.3868702 67.7798907,31.5529771 68.1599676,31.5529771 C68.5864737,31.5529771 68.8247935,31.2952672 68.869,30.7810687 C68.8776437,30.6474504 68.882583,30.5233588 68.882583,30.4078168 L68.882583,30.0814656 L68.8005911,30.227542 C68.6173441,30.5033282 68.3587733,30.6379237 68.015247,30.6340153 C67.6815992,30.6379237 67.4240162,30.5157863 67.2444737,30.2722443 C67.1432186,30.1398473 67.0651781,29.9908397 67.018749,29.8276641 C66.9377449,29.580458 66.8992186,29.306626 66.9029231,29.0137405 C66.9029231,28.733313 66.9377449,28.4680305 67.0147976,28.2227786 C67.093085,27.9574962 67.2328664,27.7447328 67.4383401,27.5776489 C67.6314656,27.4222901 67.8475587,27.344855 68.089583,27.3468092 C68.407919,27.3468092 68.6538947,27.4833588 68.8228178,27.7476641 L68.882583,27.852458 L68.882583,27.4384122 L69.3715709,27.4384122 L69.3715709,30.4173435 C69.3688543,30.6980153 69.3542834,30.9127328 69.330081,31.0509924 C69.2945182,31.2818321 69.2201822,31.4669924 69.1006518,31.6130687 C68.8971538,31.8744427 68.5758543,31.9995115 68.1426802,31.9995115 C67.4605668,32.007084 67.0950607,31.7293435 67.045668,31.1596947 L67.0380121,30.9422901 L67.5455223,30.9422901 Z M67.4074696,29.0252214 C67.4074696,29.8039695 67.6477652,30.1930992 68.1310729,30.1904122 C68.6279636,30.1865038 68.8796194,29.7790534 68.8882632,28.967084 C68.8882632,28.6187481 68.8361538,28.3505344 68.7329231,28.1607328 C68.5951174,27.9098626 68.3992753,27.7877252 68.1473725,27.7952977 C67.6527045,27.7877252 67.4074696,28.1978626 67.4074696,29.0252214 Z M70.2196437,27.4384122 L70.7096194,27.4384122 L70.7096194,27.7952977 L70.8168016,27.6521527 C70.8978057,27.5510229 70.9857247,27.4794504 71.0830283,27.4325496 C71.1929271,27.3783206 71.3146802,27.3468092 71.4418664,27.3468092 L71.593502,27.3468092 L71.593502,27.9003359 L71.4245789,27.8869008 C71.1487206,27.8869008 70.949915,28.0146565 70.8274211,28.2694351 C70.7511093,28.4421374 70.7096194,28.7237863 70.7096194,29.112916 L70.7096194,30.6884885 L70.2196437,30.6884885 L70.2196437,27.4384122 Z M72.2464737,28.2963053 C72.2657368,28.0852519 72.2929028,27.941374 72.3237733,27.8563664 C72.3756356,27.7276336 72.4605911,27.618687 72.5803684,27.5339237 C72.7606518,27.4117863 73.0009474,27.3468092 73.3010081,27.3468092 C73.6356437,27.3468092 73.8865587,27.4193588 74.0581984,27.554687 C74.2646599,27.7161527 74.3678907,27.9919389 74.372583,28.3849771 L74.372583,29.6512977 L74.3814737,30.227542 C74.3871538,30.3631145 74.3977733,30.4679084 74.4113563,30.5424122 L74.4479069,30.6884885 L73.9762065,30.6884885 C73.9307652,30.5328855 73.9058219,30.383145 73.8998947,30.2417099 L73.8593927,30.319145 C73.8122227,30.4002443 73.7571498,30.4747481 73.6934332,30.5328855 C73.5277206,30.695084 73.315332,30.7810687 73.0617004,30.7810687 C72.8900607,30.7810687 72.7297814,30.7427176 72.5803684,30.668458 C72.4761498,30.6205802 72.3892186,30.5499847 72.318834,30.4583817 C72.2570931,30.383145 72.2069595,30.2886107 72.1741134,30.1835725 C72.1279312,30.0548397 72.1084211,29.9231756 72.1084211,29.7770992 C72.1084211,29.644458 72.1239798,29.5186565 72.1654696,29.3965191 C72.2049838,29.2760916 72.2657368,29.1634809 72.3487166,29.0662595 C72.4452794,28.943145 72.5465344,28.8581374 72.6554453,28.8114809 C72.8870972,28.7103511 73.1775263,28.6558779 73.5198178,28.6522137 L73.884583,28.6522137 C73.884583,28.3239084 73.8566761,28.1101679 73.8016032,28.0109924 C73.7119555,27.8698015 73.5497004,27.7952977 73.3116275,27.7952977 C73.1476437,27.7952977 73.0202105,27.8287634 72.928587,27.8925191 C72.840668,27.9574962 72.779915,28.0891603 72.7539838,28.2963053 L72.2464737,28.2963053 Z M73.884583,29.0892214 L73.5719271,29.0892214 C73.3202713,29.0928855 73.1165263,29.1224427 72.9594575,29.1883969 C72.7317571,29.2760916 72.6159312,29.4661374 72.6159312,29.7560916 C72.6159312,29.9498015 72.6739676,30.0958779 72.7848543,30.1930992 C72.8957409,30.2886107 73.0268785,30.3362443 73.1802429,30.3362443 C73.5171012,30.3362443 73.7272672,30.1694046 73.810247,29.8447634 C73.8593927,29.6512977 73.884583,29.4001832 73.884583,29.0892214 Z M75.4955263,27.4384122 L75.497502,27.0795725 C75.4955263,26.7370992 75.5197287,26.5043053 75.5698623,26.3782595 C75.6528421,26.1684275 75.8111457,26.0472672 76.0425506,26.0023206 C76.1361498,25.9852214 76.2354291,25.9756947 76.3416235,25.9756947 L76.5228947,25.9852214 L76.6058745,25.9984122 L76.6058745,26.4459237 L76.4159595,26.422229 C76.3435992,26.422229 76.2828462,26.4298015 76.2307368,26.4459237 C76.1102186,26.4803664 76.0358826,26.5604885 76.0097045,26.6865344 C75.9894534,26.7818015 75.9808097,26.9098015 75.9837733,27.0690687 L75.9837733,27.4384122 L76.6058745,27.4384122 L76.6058745,27.8754198 L75.9837733,27.8754198 L75.9837733,30.6884885 L75.4955263,30.6884885 L75.4955263,27.8754198 L74.9766559,27.8754198 L74.9766559,27.4384122 L75.4955263,27.4384122 Z M77.2726761,30.6884885 L77.761664,30.6884885 L77.761664,27.4384122 L77.2726761,27.4384122 L77.2726761,30.6884885 Z M77.7606761,27.4384122 L77.2726761,27.4384122 L77.7606761,27.4384122 Z M77.2504494,26.6386565 L77.7868543,26.6386565 L77.7868543,26.0157557 L77.2504494,26.0157557 L77.2504494,26.6386565 Z M77.7868543,26.0157557 L77.2504494,26.0157557 L77.7868543,26.0157557 Z M78.6675263,28.2963053 C78.6877773,28.0852519 78.7156842,27.941374 78.7455668,27.8563664 C78.7966883,27.7276336 78.8836194,27.618687 79.0024089,27.5339237 C79.1817045,27.4117863 79.422,27.3468092 79.7228016,27.3468092 C80.0566964,27.3468092 80.3085992,27.4193588 80.4802389,27.554687 C80.6867004,27.7161527 80.7889433,27.9919389 80.7956113,28.3849771 L80.7956113,29.6512977 L80.797587,29.903145 L80.8025263,30.227542 C80.8091943,30.3631145 80.8198138,30.4679084 80.8333968,30.5424122 L80.8699474,30.6884885 L80.3972591,30.6884885 C80.3537935,30.5328855 80.3278623,30.383145 80.3229231,30.2417099 L80.2814332,30.319145 C80.2342632,30.4002443 80.1791903,30.4747481 80.1154737,30.5328855 C79.9495142,30.695084 79.7373725,30.7810687 79.4837409,30.7810687 C79.3111134,30.7810687 79.150834,30.7427176 79.0024089,30.668458 C78.8972024,30.6205802 78.812247,30.5499847 78.7398866,30.4583817 C78.6791336,30.383145 78.629,30.2886107 78.5961538,30.1835725 C78.5497247,30.0548397 78.5294737,29.9231756 78.5294737,29.7770992 C78.5294737,29.644458 78.5460202,29.5186565 78.588498,29.3965191 C78.6260364,29.2760916 78.6877773,29.1634809 78.7697692,29.0662595 C78.8673198,28.943145 78.9695628,28.8581374 79.076498,28.8114809 C79.3091377,28.7103511 79.5993198,28.6558779 79.9408704,28.6522137 L80.3056356,28.6522137 C80.3056356,28.3239084 80.2794575,28.1101679 80.2226559,28.0109924 C80.1347368,27.8698015 79.9717409,27.7952977 79.7344089,27.7952977 C79.5686964,27.7952977 79.442251,27.8287634 79.3506275,27.8925191 C79.2627085,27.9574962 79.2009676,28.0891603 79.1770121,28.2963053 L78.6675263,28.2963053 Z M80.3056356,29.0892214 L79.9929798,29.0892214 C79.7423117,29.0928855 79.5375789,29.1224427 79.3805101,29.1883969 C79.1537976,29.2760916 79.0389595,29.4661374 79.0389595,29.7560916 C79.0389595,29.9498015 79.0957611,30.0958779 79.2068947,30.1930992 C79.3177814,30.2886107 79.4499069,30.3362443 79.6012955,30.3362443 C79.9381538,30.3362443 80.1483198,30.1694046 80.2312996,29.8447634 C80.2814332,29.6512977 80.3056356,29.4001832 80.3056356,29.0892214 Z M83.8789514,29.1473588 C83.8922874,29.4451298 83.9164899,29.6615573 83.9550162,29.7941985 C84.024413,30.0272366 84.1432024,30.1865038 84.3071862,30.2646718 C84.4007854,30.3132824 84.4973482,30.3362443 84.6052713,30.3362443 C84.9700364,30.3286718 85.1802024,30.1034504 85.2352753,29.6483664 L85.7427854,29.6483664 C85.7030243,29.9363664 85.6432591,30.1425344 85.5662065,30.2722443 C85.447417,30.4583817 85.3066478,30.5900458 85.1387126,30.668458 C84.9717652,30.746626 84.7954332,30.7837557 84.607247,30.7810687 C84.193336,30.7837557 83.8806802,30.6274198 83.671502,30.319145 C83.4670162,30.0177099 83.3674899,29.6178321 83.373417,29.112916 C83.3694656,28.760916 83.4149069,28.4450687 83.5025789,28.1663511 C83.5855587,27.9098626 83.7322551,27.7027176 83.9473603,27.5471145 C84.132583,27.4117863 84.3506518,27.344855 84.6052713,27.3468092 C85.3229474,27.3543817 85.7099393,27.798229 85.759085,28.6827481 L85.7677287,29.1473588 L83.8789514,29.1473588 Z M83.8789514,28.7103511 L85.2592308,28.7103511 C85.250587,28.3905954 85.2014413,28.1663511 85.1127814,28.0425038 C84.999919,27.8793282 84.8280324,27.7952977 84.5966275,27.7952977 C84.2291457,27.7952977 84.0051498,28.0146565 83.92217,28.4489771 L83.8789514,28.7103511 Z M88.4756842,26.0223511 L90.7986235,26.0223511 L90.7986235,26.5604885 L89.0004818,26.5604885 L89.0004818,28.0175878 L90.7146559,28.0175878 L90.7146559,28.5576794 L89.0004818,28.5576794 L89.0004818,30.1501069 L90.8546842,30.1501069 L90.8546842,30.6884885 L88.4756842,30.6884885 L88.4756842,26.0223511 Z M91.9371255,29.7094351 C91.9650324,30.1293435 92.1618623,30.3362443 92.5226761,30.3362443 C92.9296721,30.3286718 93.13317,30.1530382 93.1418138,29.8000611 C93.1418138,29.6388397 93.0763684,29.5186565 92.9422672,29.4487939 C92.8543482,29.4040916 92.7570445,29.3667176 92.6557895,29.3325191 C92.4839028,29.2760916 92.313251,29.2218626 92.1425992,29.1634809 C91.9148988,29.085313 91.7605466,28.9907786 91.6785547,28.8820763 C91.5647045,28.7399084 91.5056802,28.551084 91.5056802,28.3104733 C91.5039514,28.1167634 91.5501336,27.9469924 91.6437328,27.7952977 C91.7383198,27.642626 91.8541457,27.5339237 91.9978785,27.4660153 C92.1645789,27.3839389 92.3411579,27.3468092 92.5313198,27.3468092 C92.8400243,27.3468092 93.0810607,27.4117863 93.255664,27.539542 C93.3791457,27.6350534 93.4650891,27.7447328 93.5152227,27.8658931 C93.5510324,27.9604275 93.5732591,28.1101679 93.580915,28.3124275 L93.072417,28.3124275 C93.0501903,27.9670229 92.8815142,27.7952977 92.5668826,27.7952977 C92.4098138,27.798229 92.2910243,27.8287634 92.2060688,27.8829924 C92.0719676,27.9709313 92.0092389,28.0891603 92.015166,28.2418321 C92.0092389,28.4145344 92.0788826,28.5376489 92.2273077,28.605313 C92.3653603,28.6617405 92.5728097,28.733313 92.8516316,28.8180763 C92.97783,28.8581374 93.0976073,28.9050382 93.2055304,28.9575573 C93.4959595,29.1024122 93.6426559,29.3630534 93.6473482,29.7436336 C93.6473482,30.085374 93.533498,30.3535878 93.3040688,30.5538931 C93.1245263,30.707542 92.8795385,30.786687 92.570834,30.7810687 C92.1425992,30.786687 91.8346356,30.6750534 91.6476842,30.4469008 C91.5232146,30.3020458 91.4508543,30.0585038 91.4315911,29.7094351 L91.9371255,29.7094351 Z M94.0795344,27.4384122 L94.6198907,27.4384122 L94.6198907,26.8287023 L95.1088785,26.5814962 L95.1088785,27.4384122 L95.7746923,27.4384122 L95.7746923,27.8754198 L95.1088785,27.8754198 L95.1088785,29.8410992 L95.1175223,30.0509313 L95.1370324,30.1598779 C95.1679028,30.2820153 95.2612551,30.3401527 95.4185709,30.3362443 C95.51217,30.3362443 95.6317004,30.319145 95.7746923,30.2856794 L95.7746923,30.7331908 C95.5729231,30.7637252 95.4069636,30.7810687 95.2807652,30.7810687 C94.8638907,30.7810687 94.6421174,30.5700153 94.6235951,30.1598779 L94.6198907,29.8200916 L94.6198907,27.8754198 L94.0795344,27.8754198 L94.0795344,27.4384122 Z M96.4797733,28.2963053 C96.5000243,28.0852519 96.5279312,27.941374 96.5570729,27.8563664 C96.6099231,27.7276336 96.6958664,27.618687 96.8146559,27.5339237 C96.9939514,27.4117863 97.234247,27.3468092 97.5360364,27.3468092 C97.8689433,27.3468092 98.1208462,27.4193588 98.291498,27.554687 C98.4989474,27.7161527 98.6011903,27.9919389 98.6058826,28.3849771 L98.6058826,29.6512977 L98.609834,29.903145 L98.616502,30.227542 C98.6214413,30.3631145 98.6320607,30.4679084 98.6456437,30.5424122 L98.6821943,30.6884885 L98.2095061,30.6884885 C98.1640648,30.5328855 98.1401093,30.383145 98.13517,30.2417099 L98.0936802,30.319145 C98.0465101,30.4002443 97.9914372,30.4747481 97.9277206,30.5328855 C97.7617611,30.695084 97.5496194,30.7810687 97.295,30.7810687 C97.1233603,30.7810687 96.963081,30.7427176 96.8146559,30.668458 C96.7094494,30.6205802 96.6244939,30.5499847 96.5521336,30.4583817 C96.4913806,30.383145 96.4422348,30.2886107 96.4084008,30.1835725 C96.3622186,30.0548397 96.3417206,29.9231756 96.3417206,29.7770992 C96.3417206,29.644458 96.3582672,29.5186565 96.4007449,29.3965191 C96.4382834,29.2760916 96.5000243,29.1634809 96.583004,29.0662595 C96.6795668,28.943145 96.7818097,28.8581374 96.8887449,28.8114809 C97.1213846,28.7103511 97.4118138,28.6558779 97.7531174,28.6522137 L98.1178826,28.6522137 C98.1178826,28.3239084 98.0917045,28.1101679 98.0349028,28.0109924 C97.9469838,27.8698015 97.7839879,27.7952977 97.5466559,27.7952977 C97.3806964,27.7952977 97.2525223,27.8287634 97.1628745,27.8925191 C97.0749555,27.9574962 97.0132146,28.0891603 96.9882713,28.2963053 L96.4797733,28.2963053 Z M98.1178826,29.0892214 L97.8052267,29.0892214 C97.5545587,29.0928855 97.3500729,29.1224427 97.1927571,29.1883969 C96.9660445,29.2760916 96.8502186,29.4661374 96.8502186,29.7560916 C96.8502186,29.9498015 96.9080081,30.0958779 97.0181538,30.1930992 C97.1300283,30.2886107 97.261166,30.3362443 97.4135425,30.3362443 C97.7504008,30.3362443 97.9605668,30.1694046 98.0435466,29.8447634 C98.0936802,29.6512977 98.1178826,29.4001832 98.1178826,29.0892214 Z M99.1405587,27.4384122 L99.6836316,27.4384122 L99.6836316,26.8287023 L100.171632,26.5814962 L100.171632,27.4384122 L100.836457,27.4384122 L100.836457,27.8754198 L100.171632,27.8754198 L100.171632,29.8410992 L100.180275,30.0509313 L100.199785,30.1598779 C100.229668,30.2820153 100.324008,30.3401527 100.481324,30.3362443 C100.573935,30.3362443 100.693713,30.319145 100.836457,30.2856794 L100.836457,30.7331908 C100.634688,30.7637252 100.469717,30.7810687 100.343518,30.7810687 C99.9256559,30.7810687 99.7048704,30.5700153 99.6856073,30.1598779 L99.6836316,29.8200916 L99.6836316,27.8754198 L99.1405587,27.8754198 L99.1405587,27.4384122 Z M101.501036,30.6884885 L101.989283,30.6884885 L101.989283,27.4384122 L101.501036,27.4384122 L101.501036,30.6884885 Z M101.990271,27.4384122 L101.501036,27.4384122 L101.990271,27.4384122 Z M101.970761,26.0394504 L102.644231,26.0394504 L101.935198,27.0356031 L101.467202,27.0356031 L101.970761,26.0394504 Z M103.22015,29.7094351 C103.247069,30.1293435 103.443899,30.3362443 103.804713,30.3362443 C104.211955,30.3286718 104.416441,30.1530382 104.424097,29.8000611 C104.424097,29.6388397 104.357417,29.5186565 104.225291,29.4487939 C104.137619,29.4040916 104.040069,29.3667176 103.937826,29.3325191 C103.767174,29.2760916 103.595534,29.2218626 103.423648,29.1634809 C103.196935,29.085313 103.043571,28.9907786 102.960591,28.8820763 C102.846741,28.7399084 102.787964,28.551084 102.787964,28.3104733 C102.785988,28.1167634 102.833405,27.9469924 102.927745,27.7952977 C103.021344,27.642626 103.13717,27.5339237 103.279915,27.4660153 C103.445874,27.3839389 103.623441,27.3468092 103.813356,27.3468092 C104.122061,27.3468092 104.362356,27.4117863 104.53696,27.539542 C104.662417,27.6350534 104.747372,27.7447328 104.797506,27.8658931 C104.833069,27.9604275 104.854308,28.1101679 104.862951,28.3124275 L104.355688,28.3124275 C104.332474,27.9670229 104.163551,27.7952977 103.849166,27.7952977 C103.692838,27.798229 103.573308,27.8287634 103.487364,27.8829924 C103.354251,27.9709313 103.291522,28.0891603 103.297449,28.2418321 C103.291522,28.4145344 103.360919,28.5376489 103.509591,28.605313 C103.648385,28.6617405 103.854846,28.733313 104.133668,28.8180763 C104.262089,28.8581374 104.379644,28.9050382 104.486826,28.9575573 C104.778243,29.1024122 104.923704,29.3630534 104.928644,29.7436336 C104.928644,30.085374 104.816769,30.3535878 104.587093,30.5538931 C104.407798,30.707542 104.161822,30.786687 103.853117,30.7810687 C103.423648,30.786687 103.117907,30.6750534 102.929721,30.4469008 C102.805251,30.3020458 102.732891,30.0585038 102.713628,29.7094351 L103.22015,29.7094351 Z M105.36083,27.4384122 L105.902915,27.4384122 L105.902915,26.8287023 L106.391162,26.5814962 L106.391162,27.4384122 L107.057717,27.4384122 L107.057717,27.8754198 L106.391162,27.8754198 L106.391162,29.8410992 L106.399806,30.0509313 L106.420057,30.1598779 C106.449939,30.2820153 106.543538,30.3401527 106.701842,30.3362443 C106.795441,30.3362443 106.913984,30.319145 107.057717,30.2856794 L107.057717,30.7331908 C106.855206,30.7637252 106.689247,30.7810687 106.561814,30.7810687 C106.146174,30.7810687 105.925142,30.5700153 105.905879,30.1598779 L105.902915,29.8200916 L105.902915,27.8754198 L105.36083,27.8754198 L105.36083,27.4384122 Z M107.727235,30.6884885 L108.215482,30.6884885 L108.215482,27.4384122 L107.727235,27.4384122 L107.727235,30.6884885 Z M108.21647,27.4384122 L107.727235,27.4384122 L108.21647,27.4384122 Z M107.705008,26.6386565 L108.240425,26.6386565 L108.240425,26.0157557 L107.705008,26.0157557 L107.705008,26.6386565 Z M108.240425,26.0157557 L107.705008,26.0157557 L108.240425,26.0157557 Z M110.812304,28.4716947 C110.764146,28.0251603 110.558672,27.798229 110.20181,27.7952977 C110.094628,27.7952977 109.992385,27.8153282 109.898785,27.8619847 C109.727146,27.9469924 109.614283,28.0891603 109.559211,28.293374 C109.498457,28.5090687 109.467587,28.7399084 109.467587,28.9841832 C109.467587,29.4001832 109.504138,29.7025954 109.578474,29.8916641 C109.6943,30.1930992 109.898785,30.3401527 110.188227,30.3362443 C110.517182,30.3362443 110.718704,30.1865038 110.79304,29.8916641 C110.812304,29.814229 110.832555,29.7150534 110.843174,29.6004885 L111.351672,29.6004885 C111.323765,29.8315725 111.293636,30.0003664 111.258073,30.1054046 C111.205964,30.2610076 111.116316,30.3943817 110.995551,30.5033282 C110.788348,30.6884885 110.519158,30.7810687 110.193907,30.7810687 C109.777279,30.7810687 109.464623,30.6244885 109.257174,30.3152366 C109.058615,30.0177099 108.959089,29.6139237 108.959089,29.110229 C108.959089,28.551084 109.058615,28.1262901 109.257174,27.8458626 C109.493518,27.5138931 109.818769,27.3468092 110.241324,27.3468092 C110.624364,27.3507176 110.906891,27.472855 111.08915,27.7161527 C111.192381,27.852458 111.258073,28.0146565 111.288943,28.201771 L111.321789,28.4716947 L110.812304,28.4716947 Z" id="Fill-1" fill="#8291AA"></path>
                    <path d="M112.111826,28.2963053 C112.131089,28.0852519 112.158996,27.9394198 112.188879,27.8553893 C112.240988,27.7276336 112.326931,27.618687 112.445474,27.5329466 C112.625016,27.4108092 112.865312,27.3468092 113.167101,27.3468092 C113.500008,27.3468092 113.751911,27.4183817 113.923551,27.5529771 C114.130012,27.7161527 114.232255,27.9899847 114.236947,28.384 L114.236947,29.6512977 L114.240899,29.9011908 L114.247567,30.227542 C114.252506,30.3631145 114.263126,30.4679084 114.276709,30.5424122 L114.313259,30.6875115 L113.840571,30.6875115 C113.79513,30.5319084 113.771174,30.383145 113.765247,30.2409771 L113.724745,30.319145 C113.677575,30.4002443 113.622502,30.4747481 113.558785,30.5319084 C113.392826,30.695084 113.180684,30.7791145 112.927053,30.7791145 C112.754178,30.7791145 112.595134,30.7427176 112.445474,30.668458 C112.340514,30.6196031 112.255559,30.5499847 112.183198,30.4583817 C112.122445,30.383145 112.0733,30.2876336 112.039466,30.1825954 C111.992296,30.0548397 111.972785,29.9221985 111.972785,29.7770992 C111.972785,29.644458 111.989332,29.5186565 112.03181,29.3965191 C112.069348,29.2751145 112.131089,29.1634809 112.214069,29.0652824 C112.310632,28.943145 112.412874,28.8581374 112.51981,28.8114809 C112.752449,28.7083969 113.042632,28.6558779 113.384182,28.6522137 L113.748947,28.6522137 C113.748947,28.3219542 113.721781,28.1101679 113.665968,28.0109924 C113.578049,27.8688244 113.415053,27.7933435 113.177721,27.7933435 C113.011761,27.7933435 112.884575,27.8287634 112.793939,27.8925191 C112.70602,27.9565191 112.644279,28.0891603 112.619336,28.2963053 L112.111826,28.2963053 Z M113.748947,29.0892214 L113.437279,29.0892214 C113.185623,29.0928855 112.981879,29.1224427 112.823822,29.1864427 C112.597109,29.2751145 112.481283,29.4641832 112.481283,29.7560916 C112.481283,29.9498015 112.540061,30.0949008 112.649219,30.1930992 C112.760105,30.2876336 112.892231,30.3352672 113.044607,30.3352672 C113.382206,30.3352672 113.591632,30.1694046 113.674611,29.8447634 C113.724745,29.6512977 113.748947,29.4001832 113.748947,29.0892214 Z" id="Fill-4" fill="#8291AA"></path>
                    <path d="M14.5930769,10.4642443 C15.1630688,8.95560305 16.6574453,7.93453435 18.2916032,7.93453435 C20.4631538,7.93453435 22.2353644,9.68745038 22.2353644,11.8353588 C22.2353644,13.9842443 20.4631538,15.7371603 18.2916032,15.7371603 C16.1193117,15.7371603 14.3471012,13.9842443 14.3471012,11.8353588 C14.3471012,11.3773435 14.4397126,10.8907481 14.5930769,10.4642443 Z" id="Fill-5" fill="#8291AA"></path>
                    <path d="M34.5005628,12.551084 L30.8445142,22.4442137 C30.5955749,23.1272061 30.2905749,23.1596947 29.7013198,23.1596947 L14.8901741,23.1596947 C14.8901741,23.1596947 14.3740202,23.1560305 14.8901741,22.4442137 C19.5044413,16.098687 25.0956964,11.6140458 34.2622429,11.8448855 C34.2622429,11.8448855 34.7611093,11.8409771 34.5005628,12.551084 Z" id="Fill-6" fill="#8291AA"></path>
                    <path d="M2.06634413,11.151145 L5.72165182,1.25801527 C5.97157895,0.574778626 6.27633198,0.542290076 6.86583401,0.542290076 L21.7377328,0.546198473 C21.7377328,0.546198473 22.2519109,0.548152672 21.7377328,1.25801527 C17.1301336,7.6101374 11.4712105,12.0872061 2.30466397,11.8573435 C2.30466397,11.8573435 1.80505668,11.8600305 2.06634413,11.151145 Z" id="Fill-7" fill="#8291AA"></path>
                    <path d="M1.17307692,21.7389924 C0.0288947368,20.317313 -0.436137652,18.1835725 0.562336032,15.3773435 L1.31779757,13.2589924 C1.45955466,12.8620458 1.57735628,12.5527939 2.31725911,12.5527939 L5.72560324,12.5527939 C10.3213482,12.5527939 12.606749,12.5527939 13.7711822,13.9651908 C14.9356154,15.3773435 15.5354899,17.4192366 14.470583,20.3268397 L13.6928947,22.4451908 C13.5647206,22.7952366 13.4681579,23.1596947 12.5835344,23.1596947 L9.15691498,23.1596947 C5.42060324,23.1596947 2.31725911,23.1596947 1.17307692,21.7389924 Z" id="Fill-9" fill="#8291AA"></path>
                    <path d="M35.4671781,1.94027481 C36.6103725,3.36122137 37.0754049,5.49569466 36.0759433,8.30094656 L35.3214696,10.4202748 C35.1787247,10.8162443 35.0631457,11.1264733 34.322996,11.1264733 L30.9139109,11.1264733 C26.3189069,11.1264733 24.0335061,11.1264733 22.8693198,9.71407634 C21.7048866,8.30094656 21.1037773,6.25905344 22.169919,3.35242748 L22.9473603,1.23407634 C23.0757814,0.884030534 23.1711093,0.517618321 24.0567206,0.517618321 L27.4823522,0.517618321 C31.2196518,0.517618321 34.322996,0.517618321 35.4671781,1.94027481 Z" id="Fill-11" fill="#8291AA"></path>
                    <path d="M36.586417,23.1491908 L44.9088421,0.511755725 L51.3886721,0.511755725 L43.3188907,23.1491908 L36.586417,23.1491908 Z M47.3031538,23.1491908 L55.6255789,0.511755725 L63.8440324,0.511755725 C66.2904534,0.527145038 68.4464453,0.699847328 70.3285547,1.01276336 C72.2099231,1.32396947 73.0105789,2.43541985 72.7250891,4.35835115 C72.7221255,4.37349618 72.7171862,4.40500763 72.7124939,4.43651908 C72.7075547,4.46803053 72.7038502,4.49856489 72.7018745,4.51468702 C72.6942186,4.56158779 72.6892794,4.59285496 72.6873036,4.60726718 C72.6843401,4.62436641 72.6806356,4.65490076 72.6739676,4.70277863 C72.4163846,6.43737405 71.6861134,7.8439084 70.4646316,8.93752672 C69.2424089,10.032855 67.682587,10.7512672 65.7491093,11.111084 C67.554166,11.6120916 68.679085,12.2369466 69.1189271,13.0022595 C69.5587692,13.7695267 69.7064534,14.6921527 69.5414818,15.800916 C69.2510526,17.7560916 68.2515911,19.3812519 66.5277854,20.6636947 C64.8047206,21.9451603 63.0115182,22.7436947 61.1301498,23.0549008 C60.8542915,23.1015573 60.5841134,23.1176794 60.3141822,23.1330687 C60.0430162,23.1491908 59.7903725,23.1491908 59.5364939,23.1491908 L59.2682915,23.1491908 L58.9991012,23.1491908 L47.3031538,23.1491908 Z M55.4596194,18.4583817 L59.4419069,18.4583817 C60.0719109,18.4747481 60.6912955,18.24 61.3037652,17.7389924 C61.9145061,17.240916 62.328417,16.6922748 62.545498,16.0825649 C62.5714291,16.0051298 62.6022996,15.9115725 62.6294656,15.8324275 C62.6573725,15.7542595 62.6709555,15.6597252 62.6815749,15.5825344 C62.7539352,15.098626 62.6255142,14.6921527 62.281247,14.3477252 C61.9367328,14.0032977 61.3136437,13.8325496 60.3816032,13.8325496 L57.1624332,13.8010382 L55.4596194,18.4583817 Z M58.8748785,8.8600916 L62.6052632,8.8600916 C63.3614656,8.87645802 64.0099919,8.65783206 64.5355304,8.20372519 C65.0613158,7.75132824 65.4201538,7.25032061 65.5804332,6.70265649 C65.5900648,6.63963359 65.5987085,6.57856489 65.6209352,6.5299542 C65.6441498,6.48427481 65.6518057,6.43737405 65.6584737,6.39071756 C65.7328097,5.89068702 65.6083401,5.45270229 65.2860526,5.06235115 C64.965,4.67126718 64.375498,4.48317557 63.5081619,4.48317557 L60.288004,4.45166412 L58.8748785,8.8600916 Z M72.1973279,14.5204275 C72.9757571,10.1273893 74.9833239,6.60812214 78.2170648,3.98314504 C81.4515466,1.35719084 85.3143036,0.0432366412 89.8021255,0.0432366412 C90.2930891,0.0432366412 90.7956599,0.0586259542 91.3466356,0.0747480916 C91.8983522,0.0891603053 92.4434008,0.137770992 93.0040081,0.198839695 C94.3845344,0.371541985 95.6317004,0.808549618 96.712166,1.51279389 C97.7936194,2.21606107 98.2085182,3.46699237 97.9422915,5.26387786 C97.9037652,5.53087023 97.8420243,5.82766412 97.7617611,6.15596947 C97.6827328,6.48427481 97.5698704,6.81331298 97.4387328,7.17312977 L91.2145101,7.14161832 C91.2271053,6.31157252 91.025336,5.65496183 90.5884575,5.18644275 C90.1523198,4.71694656 89.2551012,4.48317557 87.8795142,4.48317557 C86.0309919,4.48317557 84.2600162,5.344 82.5638704,7.07859542 C80.8669838,8.81343511 79.747004,10.7207328 79.1807166,12.8315115 C79.1537976,12.9087023 79.1219393,13.018626 79.1046518,13.1283053 C79.0890931,13.2379847 79.0708178,13.3630534 79.0525425,13.487145 C79.0071012,13.7846718 78.9791943,14.0824427 78.9782065,14.4107481 C78.9772186,14.7390534 78.9917895,15.0671145 79.0216721,15.3954198 C79.1325587,16.3485802 79.5069555,17.240916 80.1310324,18.0377405 C80.7560972,18.8343206 81.7854413,19.2407939 83.2237571,19.2407939 C83.5885223,19.2407939 84.0824494,19.2092824 84.7230729,19.1465038 C85.3654251,19.084458 86.1401498,18.864855 87.0652753,18.4898931 L88.3445466,14.7705649 L83.8875951,14.7705649 L85.5592915,10.1110229 L96.5279312,10.1110229 L92.2070567,22.3982901 C89.920668,22.7896183 87.8187611,23.1015573 85.9376397,23.3218931 C84.0552834,23.5405191 82.4280405,23.6501985 81.0531943,23.6501985 L80.8785911,23.6501985 L80.7358462,23.6501985 L80.5940891,23.6501985 L80.4204737,23.6501985 C76.9242105,23.6646107 74.569413,22.8201527 73.3857166,21.1016794 C72.2020202,19.3812519 71.8007045,17.1923053 72.1923887,14.5519389 L72.1973279,14.5204275 Z M96.0784575,23.1491908 L104.180097,0.511755725 L121.849599,0.511755725 L120.184324,4.92116031 L109.247543,4.92116031 L107.576834,9.36012214 L117.787049,9.36012214 L116.111401,14.0509313 L105.900939,14.0509313 L104.234923,18.4583817 L115.456453,18.4583817 L113.748947,23.1491908 L96.0784575,23.1491908 Z" id="Fill-12" fill="#8291AA"></path>
                </g>
            </g>
        </g>
    </g>
</svg>