<?xml version="1.0" encoding="UTF-8"?>
<svg width="74px" height="63px" viewBox="0 0 74 63" version="1.1" xmlns="http://www.w3.org/2000/svg" xmlns:xlink="http://www.w3.org/1999/xlink">
    <!-- Generator: sketchtool 42 (36781) - http://www.bohemiancoding.com/sketch -->
    <title>8CD67D65-7D6C-4199-BD25-E9F9921F97F7</title>
    <desc>Created with sketchtool.</desc>
    <defs></defs>
    <g id="Page-1" stroke="none" stroke-width="1" fill="none" fill-rule="evenodd">
        <g id="1--landingpage" transform="translate(-296.000000, -613.000000)" fill="#8291AA">
            <g id="Group-11" transform="translate(107.000000, 613.000000)">
                <g id="logo-onu" transform="translate(189.000000, 0.000000)">
                    <path d="M38.6033333,51.7441099 L37.4933333,51.7441099 L37.4933333,47.6623037 C38.9971778,47.6623037 39.8828756,47.6011178 41.2928222,47.2674817 C42.6258089,46.9523168 44.0627244,46.3655262 44.7790444,46.6650236 C44.8066711,46.676733 44.8349556,46.6960288 44.8612667,46.7088927 C44.88692,46.7210969 44.9145467,46.7430314 44.9402,46.7552356 C45.5241422,47.0418691 45.81636,46.9312068 46.4747956,46.5271492 C47.58348,45.8475079 48.4231333,45.6176073 49.3006089,44.5372068 C49.8016711,43.9200707 49.6383778,43.5173325 50.69,42.7146597 C51.0304,42.4544136 51.2160578,42.1986204 51.5533333,41.9725131 L54.6669244,45.0346099 L53.0879289,46.3564555 C48.9279778,49.4835314 44.0074711,51.7441099 38.6033333,51.7441099 Z M19.4866667,44.322644 L22.1697422,41.5712592 C23.22268,42.497623 23.5495956,42.9556099 24.88768,43.8536073 C28.4418178,46.239856 32.2439378,47.6623037 36.63,47.6623037 L36.63,51.7441099 C31.48404,51.7441099 26.6316133,49.7225026 22.8398533,47.1444503 C22.2764667,46.7610079 19.8805111,44.912733 19.4866667,44.322644 Z M42.18,44.322644 C41.9154089,44.7182906 41.7021244,44.7549031 41.6866667,45.4358639 C42.0232844,45.5145314 42.5358578,45.7032016 42.7966667,45.9306283 C41.2916711,46.0562984 40.7674222,46.6727749 37.4933333,46.6727749 L37.4933333,42.8383508 C38.4086311,42.8383508 40.0081822,42.4982827 40.2625778,42.6450628 C40.7231867,42.9117408 40.3556533,42.7835969 40.3538444,42.8809005 C40.3479244,43.1462592 39.8077244,43.2339974 41.0680267,43.5811571 C41.6570667,43.7440995 41.8767644,43.8684503 42.18,44.322644 Z M50.4433333,40.8592932 C50.7664667,41.0764948 50.6983867,40.9217984 50.8133333,41.3540576 C50.5281867,41.5453665 50.5679822,41.6980838 50.3186844,41.4668639 C50.3014178,41.4507016 49.9667733,41.5724136 50.4433333,40.8592932 Z M22.94,40.8592932 L25.1297422,38.6026728 C27.1976311,39.1978743 28.3518667,40.5700209 30.23344,41.3374005 C32.0628844,42.0826806 34.0983778,42.8383508 36.63,42.8383508 L36.63,46.6727749 C33.4200444,46.6727749 30.8751022,45.8803272 28.4913156,44.8154293 C26.9920756,44.146178 23.7551511,42.0807016 22.94,40.8592932 Z M28.86,34.7984293 C30.0451511,35.5946702 29.8884356,35.8755314 31.7782311,36.819377 C32.7058622,37.2826414 34.3739867,37.9860314 35.6433333,38.0143979 C35.5045422,38.1356152 35.68576,38.0137382 35.4210044,38.1626623 C35.2945467,38.2334136 35.2707022,38.2315995 35.1743378,38.2863534 C34.3200489,38.7733665 35.14556,38.6496754 34.1671156,38.7605026 C33.6879244,38.8152565 33.9179822,38.7494529 33.5395956,38.873144 C32.5664133,39.1894634 32.7770667,39.2687906 32.6910622,39.5064424 C32.6364667,39.6558613 32.7089867,39.5592173 32.6068667,39.7930759 C32.4039422,40.2556806 32.32172,39.9941152 32.19,40.4882199 L32.8305111,41.2072775 C31.1808044,40.8632513 29.1689911,39.7435995 27.8540933,38.7758403 C27.0851511,38.2103246 26.82056,37.757945 26.3933333,37.6433246 C26.4614133,36.8251492 28.0866178,35.9568377 28.86,34.7984293 Z M39.0966667,37.0248691 C38.5531778,37.0370733 38.5197956,37.1485602 37.8633333,37.1485602 C38.1029289,36.7890314 37.8858622,36.9765471 38.2616178,36.804534 C38.3148978,36.7801257 38.4490844,36.7446675 38.5429822,36.7092094 C39.1673778,36.4740314 39.0363156,36.3033377 39.5668133,36.6635262 C39.7723689,36.802555 39.5829289,36.5540183 39.8366667,36.901178 C39.1377778,36.901178 39.3632311,37.0087068 39.22,36.6537958 C39.2027333,36.6770497 39.16672,36.6783691 39.1634311,36.7200942 L39.0966667,37.0248691 Z M45.3866667,36.0353403 C45.8967733,36.0778901 46.0219156,36.3117487 46.25,36.6537958 C45.58252,36.6537958 45.4052489,36.714322 45.3866667,36.0353403 Z M39.8366667,36.0353403 C40.2137378,36.2170838 40.6255067,36.2827225 41.1933333,36.2827225 C40.81248,36.6152042 40.9729778,36.5192199 40.5406533,36.4586937 C39.7204044,36.3439084 39.9374711,36.1674424 39.8366667,36.0353403 Z M41.3166667,38.138089 L39.7133333,38.138089 C40.0839911,37.4351937 39.6445956,37.9518927 40.9851467,37.434699 C41.9866133,37.048123 43.3478844,36.3374764 44.1687911,35.6797696 C44.5078756,35.4084738 44.3190933,35.4137513 44.77,35.2931937 C44.9452978,35.6591545 44.8933333,35.6385393 44.8933333,36.1590314 C44.4957067,36.2654058 44.3473778,36.441212 44.0609156,36.684801 C43.74732,36.9508194 43.6060622,37.0197565 43.1852489,37.1671963 C42.9597956,37.2465236 42.3623689,37.3598246 42.1665156,37.5061099 C41.7503067,37.8159974 42.1176756,38.138089 41.3166667,38.138089 Z M18.9933333,35.4168848 C19.37616,35.6739974 19.7346489,36.0308874 20.1727289,36.3401152 C21.14328,37.0248691 20.9891956,36.0025209 22.0066133,37.3425079 C22.3836844,37.8392513 23.1694,38.6091047 23.68,38.8802356 L22.3529333,40.2705236 C21.5910622,39.7493717 19.2232267,36.4083927 18.9933333,35.4168848 Z M42.7966667,35.0458115 C42.7966667,34.5226806 42.8300489,34.6909005 42.92,34.3036649 C43.3857067,34.4125131 43.2886844,34.3597382 43.5052578,34.2617749 C43.96192,34.0549634 43.4595422,33.982233 44.03,34.3036649 C43.8989378,34.4995916 42.7966667,35.9980681 42.7966667,35.0458115 Z M44.8933333,33.5615183 C44.6928756,33.9410026 44.8413689,34.0298953 44.6254533,33.8133534 C44.4148,33.6014293 44.6517644,33.6260026 44.8933333,33.5615183 Z M47.9766667,33.190445 C47.9247022,33.8146728 47.6387333,33.8089005 46.99,33.8089005 L47.4395911,33.5178141 C47.7145422,33.3624581 47.7531867,33.3405236 47.9766667,33.190445 Z M36.26,33.9325916 C36.5650444,34.3894241 36.6531867,34.3043246 36.4796978,34.8538429 L36.3910622,35.1373429 C36.3004533,35.6598141 36.4224711,35.1630707 36.5535333,35.6210576 C36.56192,35.6494241 36.63,36.3420942 36.63,36.5301047 C36.04096,36.5301047 36.1187422,36.4463246 35.6433333,36.4064136 C35.3794,36.8020602 35.4410667,36.4928325 35.3966667,37.0248691 C34.0291467,36.9946885 31.9208044,36.0089529 30.8134356,35.1894581 C30.3669689,34.8589555 29.9815111,34.4364267 29.6,34.1799738 L32.6530756,31.0575157 C32.9556533,31.2707592 33.1658133,31.4632225 33.4554,31.6739921 C34.52248,32.4515969 35.4950044,32.5540131 36.63,32.8193717 C36.63,33.9301178 36.5990844,33.303911 36.26,33.9325916 Z M47.9766667,33.190445 L48.0447467,32.9244267 L47.9766667,33.190445 Z M48.47,32.4482984 C48.3729778,32.8142592 48.5875778,32.598377 48.2233333,32.6956806 L48.47,32.4482984 Z M48.5933333,32.3246073 L48.47,32.4482984 L48.5933333,32.3246073 Z M40.33,32.4482984 C40.3744,32.9805 40.3127333,32.6712723 40.5766667,33.0667539 C39.9522711,33.2336545 40.2773778,33.1782408 40.33,33.8089005 C40.2599467,33.8423796 40.0402489,33.9268194 39.9843378,33.9571649 L39.6837333,34.150288 C39.2796933,34.3752408 39.4447956,34.3036649 38.85,34.3036649 C38.85,33.6621204 38.9598489,33.8237435 38.6033333,33.5615183 C38.3714667,34.0460576 38.5595911,34.0228037 38.6033333,34.5510471 C37.9603556,34.7230602 38.2596444,34.9974895 37.6166667,35.1695026 C37.5775289,34.6973325 37.4953067,34.5696832 37.4862622,33.9345707 C37.47656,33.205288 37.4117689,33.0082068 37.74,32.6956806 C38.2397467,33.0629607 37.8042978,32.9250864 38.1150978,33.4500314 C38.3650533,33.8714058 38.2936844,33.6053874 38.7266667,33.3141361 C38.9289333,33.6169319 39.0356578,33.8494712 39.3433333,34.0562827 C39.6870222,33.803788 39.6664667,33.5918639 39.6779778,33.2226047 C39.7031378,32.4431859 39.7049467,32.8663743 39.3433333,32.3246073 C40.1925244,32.1441832 39.7769733,32.6777042 40.33,32.4482984 Z M40.33,32.4482984 C40.5464089,32.1242277 40.3923244,32.1925052 40.8233333,32.0772251 C40.6069244,32.4012958 40.7610089,32.3330183 40.33,32.4482984 Z M39.4666667,31.0876963 L39.5033378,31.1244738 C39.5013644,31.1218351 39.4544978,31.0999005 39.4666667,31.0876963 Z M40.2066667,30.2218586 C40.58308,30.1342853 40.50464,30.0744188 40.8233333,30.2218586 C40.5388444,30.6115681 40.4911556,30.6115681 40.2066667,30.2218586 Z M24.2966667,28.4901832 C24.2966667,27.7848141 24.42,27.6347356 24.42,26.882199 L25.4066667,26.882199 C25.4066667,28.8355288 26.2828267,31.2056152 27.2296978,32.7227277 C27.5758533,33.2768639 27.9646,33.7162147 28.3666667,34.1799738 L25.8069244,36.8078325 C25.3083289,36.1055969 25.3527289,36.2466047 25.1297422,35.5709215 L24.5311644,34.038966 C24.5311644,34.0254424 24.5349467,33.9919634 24.53692,33.9789346 C24.5395511,33.9647513 24.5523778,33.9319319 24.5568178,33.917089 C24.5612578,33.9010916 24.5806622,33.868767 24.5870756,33.8514503 C24.59464,33.8321545 24.6165111,33.8004895 24.6248978,33.7798743 C25.1889422,32.3993168 24.1554089,32.390411 24.3621156,30.9170026 C24.4226311,30.4905157 24.4257556,30.0859634 24.4502578,29.6415 C24.4708133,29.2722408 24.5124178,29.5789948 24.4219733,29.1073194 C24.3673778,28.8213455 24.2966667,28.8310759 24.2966667,28.4901832 Z M53.8966667,37.7670157 C53.4720711,37.4553141 53.4077733,36.5597906 53.28,36.2827225 C52.5245422,36.4591885 52.7488444,36.4598482 52.6266622,37.2354738 C52.54,37.7889503 52.2907022,37.9880105 52.17,38.5091623 C52.35944,38.7822723 52.1898978,38.663199 52.54,38.7565445 C52.54,39.5669686 52.6595511,39.4554817 52.2097956,39.9096754 C51.9335289,40.1880628 51.7306044,40.410212 51.43,40.611911 L50.9642933,40.0894398 C51.0542444,39.8710838 51.1139378,39.6746623 51.1833333,39.375 C50.3662089,38.8261414 50.9938933,39.1526859 49.8266667,38.8802356 C49.8266667,38.1374293 49.9532889,37.9294634 50.1504578,37.3495995 C50.8042889,35.4239764 50.0971778,36.4953063 51.2372711,34.6051414 C52.4173244,32.648678 53.4033333,29.6355628 53.4033333,27.0058901 L57.2266667,27.0058901 C57.2266667,30.214767 56.4134889,32.9494948 55.0888889,35.6230366 C54.8756044,36.0546361 54.7343467,36.3046571 54.5204044,36.6608874 C54.3232356,36.9900707 53.9897422,37.417877 53.8966667,37.7670157 Z M26.3933333,27.3769634 L26.3933333,26.882199 L29.6,26.882199 C29.97444,26.882199 30.01884,27.0967618 30.0933333,27.3769634 C30.4876711,27.1122644 30.1793378,27.1741099 30.71,27.1295812 C30.7555511,27.675966 31.0331333,28.4959555 31.2431289,28.9450366 C31.3690933,29.2161675 31.4667733,29.4249581 31.6124711,29.6878429 C31.8546978,30.1238953 31.9555022,30.0511649 32.0666667,30.4692408 L29.0135911,33.5918639 C28.7077244,33.148555 28.3949511,32.7987565 28.0936889,32.3509948 C27.24384,31.0896754 26.3933333,28.9940183 26.3933333,27.3769634 Z M41.6866667,27.8717277 L41.7233378,27.9085052 C41.7213644,27.9065262 41.6744978,27.8839319 41.6866667,27.8717277 Z M55.2533333,44.322644 L52.2630756,41.3844031 C52.3903556,40.9643482 53.6833822,39.7564634 54.4156533,38.6585812 C56.6871244,35.2532827 58.2133333,31.5747094 58.2133333,27.0058901 L62.4066667,27.0058901 C62.4066667,32.5771021 60.2220222,38.4506152 56.7519156,42.7332958 C56.4236844,43.1380131 55.6631289,44.047555 55.2533333,44.322644 Z M48.5933333,32.3246073 C49.17152,29.8359424 49.79904,30.9762094 49.8266667,29.7270942 C50.8088933,29.7270942 50.75808,29.4655288 51.43,29.1086387 C51.43,28.6203063 51.39152,28.6067827 51.3066667,28.242801 C50.9925778,28.0914031 50.61156,28.2609424 50.32,27.0058901 L52.4166667,27.0058901 C52.4166667,29.1157304 51.3612622,33.0217304 50.1851556,34.2921204 C49.3724711,35.1701623 49.59924,35.9451283 48.7564622,36.2184031 C48.7493911,36.220877 48.6472711,36.2253298 48.4673689,36.2937723 C47.6939867,36.5868377 47.5167156,37.0087068 46.8666667,36.0353403 C48.0049511,35.4871414 47.9335822,37.1647225 48.9575778,33.6710262 C49.1901022,32.8780838 48.9633333,33.1698298 48.9633333,32.3246073 L48.5933333,32.3246073 Z M18.3766667,26.882199 L19.7333333,26.882199 C19.3690889,27.3802618 19.1281778,27.0058901 18.3766667,27.0058901 L18.3766667,26.882199 Z M12.8266667,30.2218586 C12.8266667,28.7575209 12.8690933,28.5874869 13.5666667,28.1191099 C13.8036311,28.614534 14.1165689,29.5570602 14.5533333,29.8507853 C14.6187822,29.5692644 14.6631822,29.2014895 14.8,28.9849476 C14.9406,29.5918586 15.3781867,30.416466 15.7866667,30.716623 C15.7866667,30.3404372 15.76348,30.3293874 15.91,30.0981675 C15.9215111,30.2353822 16.0160667,30.8081545 16.0589867,30.9382775 C16.2832889,31.6223717 16.1944889,31.0781309 16.4528311,31.5328194 C16.4585867,31.5425497 17.4998489,34.7862251 18.1691378,36.1197801 C19.7050489,39.1779188 20.7655511,39.7582775 21.5833333,40.9829843 L18.9002578,43.734534 C18.1883778,43.2339974 15.62288,39.6462958 15.1693422,38.7572042 C14.0272756,36.5216937 13.2589911,35.0735183 12.62884,32.5230079 C12.1045911,30.4036021 11.84,29.2478325 11.84,26.882199 L12.58,26.882199 C12.2626222,27.5458429 12.3307022,29.6497461 12.8266667,30.2218586 Z M32.56,26.2637435 L32.4366667,26.3874346 L32.56,26.2637435 Z M34.04,25.645288 L34.0766711,25.6820654 C34.07404,25.6800864 34.0278311,25.6574921 34.04,25.645288 Z M33.4233333,25.5215969 C33.5543956,25.3901545 33.8910133,25.7181832 33.5608089,25.5860812 C33.55752,25.5847618 33.2164622,25.7290681 33.4233333,25.5215969 Z M32.56,26.2637435 L32.56,25.7689791 L31.6966667,25.7689791 C31.8449956,25.1299084 31.9092933,24.7969319 32.6833333,24.7794503 C33.0431378,25.4610707 32.8670178,25.0416754 32.8066667,25.7689791 C33.1510133,25.6266518 33.1952489,25.704 33.4233333,26.0163613 C32.71096,26.3468639 33.1972222,25.5286885 32.56,26.2637435 Z M34.41,25.0268325 L34.41,25.3979058 C34.0271733,25.1203429 34.0271733,25.3045602 34.41,25.0268325 Z M33.7933333,25.1505236 C33.9243956,25.0190812 34.2610133,25.3471099 33.9308089,25.2150079 C33.92752,25.2136885 33.5864622,25.3579948 33.7933333,25.1505236 Z M34.41,25.0268325 L34.6502533,24.8845052 L34.41,25.0268325 Z M50.32,24.2846859 C50.32,23.8125157 50.7112133,24.3059607 51.2796978,23.391801 C51.4101022,23.1830105 51.3040356,23.3164319 51.43,23.171466 L51.43,24.5320681 C51.9991422,24.1139921 51.5970756,23.6972356 52.0466667,23.0477749 C52.2708044,24.013555 52.4166667,24.9379398 52.4166667,26.1400524 L49.95,26.1400524 C49.8394933,25.6634293 49.8940889,25.1737775 50.4433333,25.0268325 C50.4009067,24.5185445 50.32,24.7504241 50.32,24.2846859 Z M26.64,24.0373037 C26.64,24.3458717 26.63556,24.3440576 26.5166667,24.5320681 C26.5166667,24.4631309 26.5140356,24.3303691 26.5250533,24.2930969 C26.5931333,24.0565995 26.54232,24.1725393 26.64,24.0373037 Z M25.4066667,26.0163613 C23.5219689,26.0163613 24.3313644,25.3954319 24.5055111,24.6189817 C24.7842444,23.3711859 24.3821778,23.761555 25.6533333,23.7899215 C25.63656,24.5449319 25.4066667,25.1241361 25.4066667,26.0163613 Z M27.01,24.6557592 C27.3510578,25.1666859 27.2347956,24.9031414 28.12,24.9031414 C28.2015644,25.0584974 28.3447956,25.4617304 28.4245511,25.5874005 C28.6544444,25.9494031 28.7046,25.8217539 28.9833333,26.0163613 L26.27,26.0163613 C26.4010622,25.7432513 26.3413689,25.7587539 26.45056,25.4552984 C26.6733822,24.8322251 27.0723244,24.5797304 26.8152978,23.8717225 C26.7266622,23.6289581 26.8121733,24.0206466 26.64,23.5425393 C26.7209067,23.456945 26.8981778,23.3725052 27.0261156,23.0639372 C27.1923689,22.6651571 27.1782267,21.3160995 27.8733333,21.3160995 C28.4508622,21.3160995 28.6133333,21.9507173 28.6133333,22.4293194 C28.6133333,22.818534 28.4957556,22.5756047 28.3352578,23.0162749 C28.2086356,23.3614555 28.2742489,23.4742618 28.1624267,23.8324712 C27.9292444,24.5823691 27.6510044,24.3156911 27.01,24.6557592 Z M32.4366667,26.3874346 C32.4585378,26.4698953 32.3840444,26.8223325 32.9472667,26.7359136 C33.2010044,26.6966623 33.0771778,26.7276675 33.2595467,26.6071099 C33.6481289,26.3495026 33.7066711,26.0646832 34.2866667,26.0163613 C34.1980311,26.3481832 34.1189333,26.4248717 33.9115689,26.6297042 C33.90828,26.6328377 33.6532267,26.8591099 33.6494444,26.8615838 C33.1381867,27.2667958 32.4052578,27.1373325 32.3133333,28.242801 C33.2935867,28.161 32.7379289,28.1487958 33.67,28.3664921 C33.9146933,27.902733 33.7818222,28.1725445 34.04444,27.8761806 C34.9855556,26.8119424 34.64384,27.1335393 34.9033333,26.0163613 C34.7234311,25.8263717 34.7786844,25.8095497 34.41,25.7689791 C34.6805111,25.2568979 34.78,25.3424921 34.78,24.5320681 C34.3503067,24.3542827 34.6270667,24.5185445 34.4742978,24.4895183 C34.2705511,24.4515864 34.2899556,24.4877042 34.1633333,24.408377 C34.8551511,24.2467539 34.4672267,24.1372461 35.0876756,23.8511073 C35.4455067,23.6855262 35.9574222,23.5547435 36.3165689,22.6767016 L36.4752578,21.8520942 C36.4969644,21.4424293 36.2562178,21.8760079 36.63,21.3160995 C35.4043956,21.6022382 35.61768,23.0787801 34.1633333,21.8108639 C34.6604489,21.6949241 34.8808044,21.4688168 35.3787422,21.298123 C35.8970711,21.1203377 36.25556,21.0687173 37,21.0687173 C37.1812178,21.926144 36.6518711,20.8942304 37.1233333,22.9240838 C37.5826267,23.0316126 37.31672,22.9981335 37.7258578,22.938267 L37.9172711,22.9196309 C37.9223689,22.9202906 38.2512578,23.1282565 38.25652,23.1341937 C39.2739378,24.1572016 38.5513689,24.2048639 39.0234889,24.4464738 C39.5681289,24.7246963 38.9277822,23.9213639 39.8366667,24.5320681 C39.5289911,24.9933534 39.4821244,24.6912173 39.4666667,25.3979058 L39.7133333,25.3979058 L39.7133333,26.0163613 C38.8994978,26.0345026 38.7690933,26.3661597 38.3566667,26.7585079 C39.33248,26.7585079 39.6189422,27.0928037 40.27672,27.2996152 C40.2985911,27.3067068 40.3350978,27.3164372 40.3569689,27.3222094 C41.3480756,27.5870733 40.0254489,27.0581702 40.7,27.3769634 C40.5894933,27.7912461 40.4906622,27.5509555 40.33,27.9954188 C40.8253067,28.1113586 40.9621244,28.3161911 41.5633333,28.3664921 C41.1895511,28.6043089 41.22096,28.3046466 40.7848533,28.8310759 C40.2888889,29.4289162 40.7623244,29.1755969 39.96,29.1086387 C40.2997422,29.5737173 40.4089333,29.2201257 40.5766667,29.8507853 C39.9889422,29.4559634 39.4423289,29.3746571 38.6033333,29.3560209 C38.5423244,32.0887696 38.43116,31.7030183 37.5896978,31.8041152 C35.3073733,32.0778848 32.9306578,30.5935916 32.1148489,28.5655524 C31.9278756,28.1004738 31.8560133,27.4627225 31.6966667,27.1295812 C32.0494,27.0349162 31.7981289,27.1470628 31.9587911,27.014301 C32.5831867,26.4989215 31.5912578,26.835856 32.4366667,26.3874346 Z M45.2633333,20.4502618 L45.51,19.9554974 C45.92884,20.107555 45.5619644,19.8357644 45.9114089,20.2950707 C46.0187911,20.4347592 46.1562667,20.6803272 46.25,20.8213351 L45.7611067,20.6821414 C45.8786844,21.1562906 45.8813156,20.8574529 46.0033333,21.3160995 C45.5986356,21.207911 45.8344489,21.3058743 45.2633333,20.4502618 Z M51.06,20.2028796 L51.0966711,20.2396571 C51.09404,20.237678 51.0478311,20.2150838 51.06,20.2028796 Z M50.9366667,19.9554974 L50.9733378,19.9922749 C50.9707067,19.9896361 50.9244978,19.9677016 50.9366667,19.9554974 Z M30.34,19.5844241 L30.8333333,19.5844241 C30.6085378,19.727411 31.1025289,19.7229581 30.5866667,19.6861806 C30.3232267,19.6675445 30.47616,19.6713377 30.34,19.5844241 Z M28.86,19.5844241 C28.7950444,19.2308325 29.1592889,19.630767 28.9570222,19.6043796 C28.7340356,19.5753534 28.9119644,19.865945 28.86,19.5844241 Z M44.8933333,20.0791885 C44.4064133,20.0791885 44.3929289,20.0405969 44.03,19.9554974 C44.4296,19.3569974 44.5401067,19.1683272 45.2633333,19.3370419 C45.1174711,19.7287304 45.5312133,19.5141675 44.8933333,19.5844241 L44.8933333,20.0791885 Z M42.0566667,20.0791885 C42.1421778,19.7590759 42.2712667,19.630767 42.4266667,19.3370419 C42.5763111,19.2578796 42.6797467,19.2346257 42.8499467,19.1419398 L43.0336311,19.0227016 C43.1827822,18.8990105 43.2937822,18.547233 43.9066667,18.8422775 C43.7216667,19.1200052 43.4699022,19.4336859 43.1640356,19.5819503 C42.5654578,19.8736963 43.0466222,19.4143901 42.0566667,20.0791885 Z M36.63,15.6263089 L36.63,20.0791885 C34.9238889,20.0791885 33.96748,21.0139634 33.3,21.1924084 C33.2750044,20.0707775 32.4468622,19.5844241 32.3133333,19.5844241 C31.5560667,19.5844241 32.2638356,19.8138298 31.66904,19.6005864 C31.4911111,19.5367618 31.3799467,19.3995471 31.0055067,19.2887199 C30.28672,19.0767958 30.0451511,19.2237408 29.4766667,18.8422775 C30.5833778,17.1846518 34.32268,15.6779293 36.63,15.6263089 Z M23.8033333,24.7794503 L23.1866667,24.7794503 C23.1539422,23.2907042 22.4986311,23.4228063 22.4986311,23.4228063 C21.9584311,23.196534 22.6926756,23.3950995 22.0766667,23.171466 C22.2128267,21.5267042 23.8952578,18.1349293 24.9500044,16.8999974 C25.2968178,16.4941257 25.2654089,16.6229293 25.53,16.1210733 L28.2143911,18.7476126 C27.4666622,19.8976099 27.4454489,19.744233 26.64444,21.1968613 L25.3571689,22.7507513 C25.19848,22.8661963 24.1008133,23.4961963 24.1258089,24.2833665 C24.1443911,24.870322 24.4001022,24.2261387 24.2003022,24.7105131 C24.0172756,25.1562958 24.2575289,24.7794503 23.8033333,24.7794503 Z M49.3333333,18.1001309 L49.3700044,18.1369084 C49.3673733,18.1342696 49.3211644,18.1123351 49.3333333,18.1001309 Z M42.4266667,19.3370419 C42.2474222,19.235945 42.2962622,19.2771754 42.0566667,19.2133508 C41.9576711,20.1190995 41.6904489,19.0311126 41.5845467,20.1004634 C41.5215644,20.7357408 41.7540889,20.172699 41.9333333,20.9450262 C41.4483867,21.2021387 41.2640444,21.3489188 40.6299467,21.0190759 L40.1777244,20.7266702 C39.8096978,20.5205183 40.0537333,20.5739529 39.4666667,20.5739529 C39.5784889,20.1538979 39.7712178,20.1649476 40.0833333,19.9554974 L40.0833333,18.9659686 C38.6623689,19.7196597 39.1275822,19.7468717 38.85,20.3265707 C38.4722711,20.1449921 38.06116,20.0791885 37.4933333,20.0791885 L37.4933333,15.6263089 C39.5661556,15.6726518 43.1609111,16.9888901 44.1533333,18.3475131 C43.56232,18.2096387 42.9861067,18.045377 42.92,18.8422775 C42.5550978,18.6664712 42.5756533,18.7185864 42.0566667,18.7185864 C42.2962622,19.0781152 42.3059644,18.8848272 42.4266667,19.3370419 Z M49.8266667,17.9764398 L49.8633378,18.0132173 C49.8607067,18.0112382 49.8144978,17.988644 49.8266667,17.9764398 Z M50.5666667,19.2133508 C49.8189378,18.853822 49.9789422,19.0253403 49.21,19.0896597 C49.3275778,19.5954738 49.5574711,19.7996466 49.9197422,20.109534 C50.3301956,20.4593325 50.5480844,20.4593325 50.69,21.0687173 L51.06,21.0687173 L51.2514133,20.4316257 C51.4724267,21.6652382 51.5533333,20.109534 51.5533333,22.3056283 C50.2269244,22.3353141 51.6278267,23.4439162 50.4433333,23.5425393 C50.4433333,22.9389267 50.8480311,21.6691963 49.58,21.5634817 C49.4084844,21.9216911 49.5048489,22.0711099 49.3333333,22.4293194 C49.0185867,22.218055 48.9440933,22.2302592 49.1129778,21.8507749 L49.21,21.6871728 C48.31904,21.258212 48.8669689,21.8662775 48.2259644,20.9425524 C47.6298533,20.084301 47.2892889,20.6448691 46.7124178,19.8628115 C46.3688933,19.3964136 45.7091422,18.6329921 45.6333333,18.3475131 C45.8632267,18.0028272 47.0426222,16.8406257 47.4563644,16.4650995 C47.8706,16.0882539 47.7878844,16.2177173 48.1,15.75 C48.3793911,15.9375157 49.3923689,17.131877 49.4650533,17.3373691 C49.5530311,17.5867304 49.4920222,17.8314738 49.1920756,17.7942016 C48.9755022,17.7678141 49.1156089,17.7124005 48.7166667,17.6053665 C49.0435822,18.225801 49.2504533,18.2251414 49.58,18.7185864 C50.2108089,18.6658115 49.7470756,18.6245812 50.32,18.4712042 C50.4092933,18.8551414 50.4773733,18.8294136 50.5666667,19.2133508 Z M19.98,26.0163613 L16.8966667,26.0163613 C16.8966667,21.9010759 17.8512667,19.6861806 19.3633333,16.6158377 C19.7642489,15.8016204 20.5723289,14.674877 21.1246978,13.9294319 C21.6688444,13.1970157 21.9584311,13.1028455 22.0766667,12.6577225 L24.8843911,15.4079529 C23.9786311,16.8361728 23.12056,17.2252225 21.9340933,20.1835838 C21.4304,21.4384712 21.1138444,22.5208508 20.8837867,23.9541832 C20.6333378,25.5093927 20.4848444,23.8440157 19.98,26.0163613 Z M48.9633333,15.1315445 C49.1310667,14.5015445 49.6403511,14.4421728 49.95,14.0183246 C51.0785822,14.7766335 51.1904044,14.433267 52.0780756,15.3474267 C52.7846933,16.0747304 53.6287867,16.9933429 53.7733333,15.2552356 C54.5679289,15.7887565 55.7415689,18.515733 56.1025244,19.5986073 C56.9375733,22.1085471 57.2266667,23.3062068 57.2266667,26.1400524 L53.4033333,26.1400524 C53.4033333,22.1517565 52.0132844,19.1153874 49.86268,16.2086466 C49.5375733,15.7706152 49.2119733,15.5039372 48.9633333,15.1315445 Z M46.8666667,14.6367801 C47.17056,14.7179215 47.6831333,15.0819031 47.4968178,15.2687592 C47.3529289,15.4130654 47.3960133,15.3789267 47.1454,15.1277513 C46.8158533,14.7972487 46.9849022,14.8622277 46.8666667,14.6367801 Z M28.86,18.1001309 L26.2397422,15.5329634 C26.8506533,14.6323272 29.3212667,12.9676099 30.42732,12.4979136 C32.4147956,11.6526911 34.0335867,11.0497382 36.63,11.0497382 L36.63,14.7604712 C34.9617111,14.7604712 33.2884889,15.2532565 32.1475733,15.8311414 C31.4519733,16.1842382 31.0356,16.3788455 30.41252,16.8124241 C29.5679333,17.400534 29.1606044,17.8984319 28.86,18.1001309 Z M45.88,14.513089 C46.68808,15.0561754 45.9416667,14.8797094 47.2366667,15.5026178 L45.0469244,17.7594031 C44.61904,17.6228482 44.5927289,17.4816754 44.2773244,17.2336335 C42.4697511,15.8111859 39.9580267,14.7604712 37.4933333,14.7604712 L37.4933333,11.0497382 C40.3262178,11.0497382 42.9237822,11.9459215 45.21252,13.3271387 C45.58252,13.5506073 45.7546933,13.6975524 46.1266667,13.8946335 C45.98656,14.1594974 45.9648533,14.181267 45.88,14.513089 Z M51.5533333,12.4103403 C51.9843422,12.5256204 51.8302578,12.4573429 52.0466667,12.7814136 C51.3433378,12.6171518 51.6939333,12.5938979 51.5533333,12.4103403 Z M15.2933333,25.7689791 C14.3953022,25.6942696 15.0999467,25.5113717 14.6021733,25.0139686 L14.06,24.5320681 L13.5255556,24.9856021 C12.9391467,25.3817435 12.9802578,24.8251335 12.7033333,26.0163613 L11.7166667,26.0163613 C11.7166667,22.3320157 12.8580756,17.2987775 14.6824222,14.147788 C15.4308089,12.8536492 17.3033378,9.75098168 18.5,8.94698953 L21.4902578,11.8853953 C21.1304533,12.4090209 20.7867644,12.7299581 20.4187378,13.2214241 C17.8935289,16.5996754 15.91,20.8335393 15.91,25.3979058 C15.9093422,25.3979058 14.8077289,24.7543822 15.2933333,25.7689791 Z M52.4166667,11.6681937 L55.0356089,8.97601571 C56.6067111,10.0047958 59.2128267,14.4698796 59.9824267,16.0778639 C61.1874756,18.5948953 62.2833333,22.3475183 62.2833333,26.0163613 C61.1841867,26.2734738 59.7434889,26.1400524 58.5833333,26.1400524 C57.9377244,26.1400524 58.3295956,25.3779503 58.1445956,24.1055812 C57.7816667,21.5995995 57.5613111,20.351144 56.52268,17.940322 C55.7807067,16.2170576 54.7374711,14.5317251 53.5991867,13.0797565 C53.2324756,12.6120393 52.7108578,12.1088639 52.4166667,11.6681937 Z M49.4566667,10.4312827 C49.8067689,10.6664607 50.8641467,11.4988194 51.06,11.7918848 C50.8319156,11.8975995 50.8634889,12.0889084 50.1073733,11.3873325 C49.88192,11.1785419 49.5369156,10.7320995 49.4566667,10.4312827 Z M49.4566667,10.4312827 L49.3333333,10.3075916 L49.4566667,10.4312827 Z M48.84,9.93651832 L48.8766711,9.97329581 C48.87404,9.97065707 48.8278311,9.94872251 48.84,9.93651832 Z M25.53,14.7604712 L22.7864089,12.0696126 C23.0337333,11.713877 23.12944,11.6502173 23.4326756,11.4201518 C24.0718711,10.9351178 24.3987867,10.5144031 25.4791867,9.76203141 C25.9912667,9.40629581 26.4864089,9.10745812 27.01,8.82329843 C27.5778267,8.51539005 28.00752,8.22941623 28.6306,7.97494241 C31.0870711,6.96925131 33.81652,6.10209424 36.63,6.10209424 L36.63,10.0602094 C33.5081867,10.0602094 31.2020178,10.9222539 28.8221778,12.2487173 C27.0272667,13.2484712 26.0702,14.3978089 25.53,14.7604712 Z M44.03,8.32853403 C44.0845956,8.98690052 44.9640444,9.47853141 45.5106578,10.1832408 L46.25,11.5445026 C46.7683289,11.5012932 46.6566711,11.4041545 47.1133333,11.2971204 C47.3118178,11.4305419 47.6181778,11.6668743 47.7762089,11.8878691 C48.3877778,12.7434817 47.2457111,11.6185524 47.7704533,12.3730681 C47.8212667,12.4457984 49.0789378,13.4353272 49.21,13.5235602 L48.3756089,14.4184241 C47.6285378,14.1807723 46.1658044,11.9754424 41.3982311,10.5968639 C39.8841911,10.1588325 39.0599956,10.0602094 37.4933333,10.0602094 L37.4933333,6.10209424 C37.5877244,6.15239529 37.7894978,6.26503665 37.9179289,6.31269895 C38.55844,6.55051571 38.0856622,6.10209424 39.3214622,6.23864921 C40.60232,6.38114136 42.1286933,6.73341361 43.36844,7.13681152 C44.0306578,7.35186911 44.6928756,7.70051309 45.2633333,7.83376963 C44.81884,8.442 45.1612133,7.7282199 44.03,8.32853403 Z M22.0766667,11.2971204 C21.7579733,11.0832173 19.2483867,8.70026702 19.1166667,8.20484293 C19.2919644,7.96455236 19.6132889,7.77390314 19.8887333,7.49485602 C20.2401511,7.13994503 20.3526311,7.04082723 20.7361156,6.73671204 C22.4762667,5.35681414 24.33268,4.06630366 26.44464,3.18512827 C29.3597467,1.9668534 32.5715111,1.03075916 36.63,1.03075916 L36.63,5.11256545 C33.7155511,5.11256545 30.7305556,5.9719712 28.24136,7.08964398 C26.3367644,7.94459686 24.3468222,9.25753665 22.7870667,10.6489791 C22.49156,10.9125236 22.4022667,11.0781047 22.0766667,11.2971204 Z M38.9733333,5.11256545 L37.4933333,5.11256545 L37.4933333,1.03075916 C38.2912178,1.03075916 39.3959556,1.19831937 40.1976222,1.28721204 C45.1117156,1.83095812 49.8940889,4.38592147 53.6133289,7.49947382 C53.9280756,7.76235864 54.1773733,8.0102356 54.39,8.32853403 L51.7710578,11.020712 C51.5360667,10.8726126 51.5179778,10.8036754 51.2688444,10.5930707 C51.0131333,10.3778482 50.9167689,10.3230942 50.6579333,10.0918743 C50.2968133,9.76912304 49.8857022,9.43664136 49.4829778,9.16798429 C48.5959644,8.57657592 47.8648444,8.08758377 46.9064622,7.54647644 C45.8079733,6.92736126 42.1351067,5.48363874 40.5766667,5.48363874 C40.5959067,5.46698168 41.8325289,4.86518325 39.96,4.86518325 C39.4211156,4.86518325 39.5122178,5.11256545 38.9733333,5.11256545 Z M10.73,25.7689791 C10.73,33.3283194 13.6309644,39.8724031 18.6542489,44.9102592 C20.0313067,46.2914764 20.6037378,46.7778298 22.2519644,47.9812618 C29.4176311,53.2110864 40.1681867,54.3932435 48.0588889,50.5896597 L50.1960089,49.5170105 C56.3312667,46.3397984 61.0738444,39.755144 62.6789867,32.9687906 C63.9790844,27.4749267 63.4242489,20.7486047 61.0102044,15.9136021 C60.6356,15.1632094 60.3093422,14.4789503 59.9413156,13.7689634 C56.0145467,6.19098691 46.3430756,0.0412303665 37.6166667,0.0412303665 C32.2220667,0.0412303665 28.2066622,0.846541885 23.56308,3.51101309 C15.8920756,7.9111178 10.73,16.5256257 10.73,25.7689791 Z" id="Fill-1"></path>
                    <path d="M14.3066667,57.0628272 C15.2367644,58.455589 17.0759111,59.4310995 18.7800489,60.1216257 C22.8783333,61.7812304 26.7556044,59.9799581 30.0219644,57.6098717 C32.8214667,55.5791937 32.8805022,55.7022251 35.3966667,55.7022251 L35.3966667,55.9496073 C34.37152,56.1892382 31.8759111,57.913822 31.0305022,58.4974791 C30.0900444,59.1462801 27.9491422,60.9107749 27.38,61.763089 C27.6010133,62.0942513 28.4983867,62.903356 28.86,63 C29.21076,62.7641623 30.8494489,60.6130916 32.5586844,59.2879476 C37.1887822,55.6997513 36.9338933,55.9077173 39.5161644,57.6309817 C40.5457511,58.3183743 41.7605022,59.3362696 42.6399511,60.1885838 C43.0055111,60.5423403 43.2521778,60.6666911 43.6304,61.0506283 L45.51,63 C45.8472756,62.7738927 46.7671778,61.973199 46.99,61.6393979 C46.6790356,61.1743194 45.7296978,60.3734607 45.2266622,59.9445 C44.6210133,59.427801 43.9208089,58.8918063 43.2668133,58.4466832 C41.7688889,57.4281283 41.3268622,57.2463848 40.0601467,56.4676257 C39.8328844,56.3277723 39.7858533,56.2845628 39.5020222,56.1615314 C39.1660622,56.0165654 39.1057111,56.0488901 38.85,55.8259162 C40.7751511,55.6654476 41.47404,55.4729843 43.2013644,56.7806466 C46.8076311,59.5109215 51.0683867,61.7025628 55.6779289,59.8387853 C57.2768222,59.1919634 59.20444,57.9783063 60.0633333,56.6917539 C59.6920178,56.7910366 57.1559556,58.4118848 54.3983867,58.1715942 C51.8963644,57.9532382 50.7567644,57.3314843 48.84,56.5680628 C46.8191422,55.7640707 46.0431289,55.1706832 43.4865111,54.7629974 C39.4140444,54.112877 37.8801067,55.232034 37.1304044,55.2100995 C36.7520178,55.1990497 36.1198933,54.940123 35.7346,54.8685471 C35.1621689,54.7623377 34.7106044,54.7262199 34.11252,54.6393063 C30.6116622,54.1329974 25.8820756,56.6376597 23.0120267,57.7535183 C21.05152,58.5162801 17.5506622,58.5787853 15.5791378,57.6420314 C15.1154044,57.4216963 14.8141422,57.1814058 14.3066667,57.0628272 Z" id="Fill-2"></path>
                    <path d="M58.5833333,50.7545812 C59.2855111,49.7032068 61.0409556,48.8772801 61.96464,45.2401021 C62.28136,43.9941204 62.3847956,42.7740314 62.5993956,41.4236545 C62.7136844,40.7008037 62.8056089,40.2337461 62.9720267,39.5709267 C63.1433778,38.8886466 63.3920178,38.4267016 63.5166667,37.8907068 C63.0149467,38.2276414 61.4122711,40.5842042 61.0243467,41.2046387 C60.25672,42.4331387 59.7799956,43.7525105 59.2771244,45.2658298 C58.57248,47.3834215 57.98788,49.4513717 56.6478222,51.2874424 C56.1834311,51.9238743 55.6182356,52.3104503 55.2533333,52.8573298 L58.0380356,52.1867592 C61.5683289,51.4818848 64.1043911,51.1225209 66.8742933,48.6795393 C67.2217644,48.3729503 67.4838889,48.1996178 67.8050489,47.8813194 C68.6568711,47.0354372 68.4332267,47.2145419 69.03904,46.521377 C70.1580844,45.2412565 71.6566667,42.6818403 71.6566667,40.9829843 L71.5501067,41.1234974 C71.4197022,41.3232173 71.50768,41.1729738 71.4086844,41.3527382 C70.5376222,42.9336754 69.8902044,43.6507539 68.3799467,44.7471518 C68.0189911,45.009377 67.8667156,45.1073403 67.4871778,45.3360864 C66.8344978,45.7277749 66.3694489,45.9840628 65.6544444,46.3429319 C63.3734356,47.4864974 62.2530756,47.9690576 60.2554044,49.4629162 C59.7499022,49.8410812 59.1434311,50.6045026 58.5833333,50.7545812 Z" id="Fill-3"></path>
                    <path d="M15.4166667,50.8782723 C14.8430844,50.744356 14.2277333,50.1580602 13.7850489,49.7934188 C13.2691867,49.3682513 12.7316178,48.9495157 12.1258044,48.6125812 C10.0067733,47.4355366 6.55278222,46.0150681 4.97000444,44.6569398 C4.11374222,43.9232042 4.31337778,44.0590995 3.60692444,43.3029346 C3.35828444,43.0360916 3.24070667,42.8416492 3.03202667,42.5188979 L2.46666667,41.6014398 C2.46666667,44.3767382 5.91095556,48.2208927 8.21317778,49.8153534 C11.5630756,52.1364581 13.7189422,51.9586728 17.5248444,52.7220942 C18.1114178,52.8393534 18.48076,52.9849791 18.9933333,53.104712 C18.76344,52.7600262 18.6118222,52.7110445 18.3304578,52.4089084 C17.4214089,51.4335628 17.1780311,51.2030026 16.5266667,49.8887435 C16.20156,49.2341702 15.9150978,48.6731073 15.6472178,47.9258482 C15.39348,47.2165209 15.1602978,46.4524398 14.9091911,45.6974293 C14.2315156,43.6649372 12.0475289,39.3530654 10.6066667,38.3854712 C10.9112178,39.6964319 11.1578844,39.8156702 11.4879244,41.8308455 C11.9536311,44.6782147 12.2478222,47.6250314 14.3349511,49.7366859 C14.7235333,50.1296937 15.12116,50.4351283 15.4166667,50.8782723 Z" id="Fill-4"></path>
                    <path d="M45.7566667,54.5890052 L50.2890844,55.6095393 C53.5144978,56.2898403 56.4957111,57.0763508 59.8886933,55.7744607 C60.41212,55.5734215 60.7898489,55.4297749 61.2447022,55.1553455 C61.7044889,54.8782775 62.0559067,54.7237461 62.4791867,54.4145183 C63.6426311,53.5633586 65.7751467,51.687377 66.1066667,50.2598168 C65.6524711,50.5645916 65.3383822,51.0205995 64.8766222,51.3763351 C61.7148489,53.806288 56.7724711,53.1865131 52.8169244,54.0008953 C52.2856044,54.1104031 51.3413644,54.341623 50.69,54.341623 C50.7143378,54.3243063 50.7549556,54.2713665 50.7671244,54.2959398 C50.7799511,54.3196885 50.8287911,54.2591623 50.8460578,54.2507513 L51.4010578,54.0652147 C51.6368711,54.001555 51.8822222,53.9357513 52.1545422,53.831356 C56.1243956,52.3162225 56.0974267,49.221966 58.46,45.6832461 C57.4213689,45.9616335 52.2014089,51.1527016 51.3393911,52.0243115 C50.8975289,52.4714136 50.3398978,52.8342408 49.7765111,53.1781021 C48.78672,53.7825393 47.02404,54.2926414 45.7566667,54.5890052 Z" id="Fill-5"></path>
                    <path d="M0,33.5801545 L0,31.5824607 C0.329546667,32.0579293 0.182368889,32.5081649 0.655804444,33.5216073 C1.57307556,35.4820288 2.23348444,35.8356204 3.36025778,37.1183796 C3.60873333,37.4023743 3.63570222,37.5105628 3.91328444,37.8004948 C5.71641778,39.6791152 5.97393778,39.7028639 7.44949778,41.9228717 C7.74812889,42.3726126 8.13161333,43.0786414 8.51,43.3331152 L7.93444444,42.0549738 C7.72050222,41.5770314 7.60358222,41.2297068 7.47252,40.6628717 C7.25282222,39.7125942 7.19115556,38.4453377 7.28308,37.2780236 C7.47646667,34.7964503 8.14,34.5355445 8.14,30.8403141 L8.39044889,31.3312853 C9.53333778,34.030555 9.45489778,36.8162435 9.79529778,39.1991937 C9.90646222,39.9721806 9.92899111,40.685301 10.0112133,41.4564738 C10.14096,42.665678 10.4223244,44.4257199 10.9335822,45.4790733 L11.7166667,47.1675393 C11.3312089,47.0644634 10.0048,46.1465105 9.57116,45.8559188 C7.4444,44.427699 5.65343556,43.499356 3.66908444,41.5087539 C2.42933778,40.2647513 1.56090667,39.2823141 0.863333333,37.5196335 C0.166417778,35.7602513 0.0243377778,34.9240995 0,33.5801545 Z M8.63333333,43.4568063 L8.51,43.3331152 L8.63333333,43.4568063 Z" id="Fill-6"></path>
                    <path d="M74,30.9640052 L74,34.2746387 C73.9962178,34.322301 73.9916133,34.3688089 73.9865156,34.4138325 C73.6421689,37.5209529 70.9816222,40.8586335 68.5919156,42.7332958 C67.5499956,43.5503168 65.6480311,44.6293979 64.4507111,45.5067801 C64.0742978,45.7825288 63.7883289,45.9454712 63.41652,46.2012644 C63.05096,46.4530995 62.8858578,46.6843194 62.4066667,46.796466 C63.0040933,45.6639503 63.4832844,44.5591414 63.7748444,43.0972775 C64.5700978,39.1109607 64.1744444,34.1529267 65.7501511,30.7301466 L65.9833333,30.3455497 C65.9833333,33.570589 66.32768,33.8920209 66.7458622,36.7548927 C67.2584356,40.2685445 65.9826756,41.6548743 65.7366667,42.7146597 C66.1451467,42.4402304 66.5376756,41.6677382 66.8473244,41.2310262 L68.9952978,38.4377513 C69.4545911,37.8359529 69.8194933,37.7856518 70.2491867,37.2214555 C71.2134889,35.954199 73.8766667,33.8623351 73.8766667,30.9640052 L74,30.9640052 Z M65.6133333,42.9620419 L65.49,43.085733 L65.6133333,42.9620419 Z M65.7366667,42.7146597 L65.6133333,42.9620419 L65.7366667,42.7146597 Z" id="Fill-7"></path>
                    <path d="M23.68,54.5890052 C23.1095422,54.5761414 22.1588889,54.3467356 21.6764089,54.2482775 C20.8767156,54.0851702 20.4039378,54.049877 19.5233378,53.9337723 C16.2819733,53.5067906 12.2665689,53.9332775 9.33551111,51.7822068 C8.79070667,51.3821073 8.48237333,50.9440759 8.01666667,50.6308901 C8.18949778,51.2790314 9.12469333,52.4288639 9.58859111,52.8889948 C15.0499556,58.3017173 19.6844933,56.8586545 26.0708578,55.255123 C27.1802,54.9769005 28.0557022,55.0148325 28.49,54.7126963 C25.3571689,53.9809398 23.9105511,53.4017356 21.5524178,51.0329686 C20.6435333,50.1199634 20.4868178,49.9177696 19.5233378,49.1098194 C18.5115111,48.262123 17.2043422,46.806856 15.7866667,46.0543194 L18.6721733,51.324055 C19.5605022,52.6640419 20.5581867,53.533178 22.1197511,54.0510314 L23.2874711,54.3642173 C23.5560089,54.4615209 23.4795422,54.4145183 23.68,54.5890052 Z" id="Fill-8"></path>
                    <path d="M69.3133333,34.0562827 L69.3133333,34.5510471 C69.17076,34.3255995 69.1752,34.8210236 69.2118711,34.3036649 C69.2304533,34.0396257 69.2266711,34.1928377 69.3133333,34.0562827 Z M74,25.3373796 L74,25.4191806 C74.0006578,29.7148901 72.8090933,31.7854791 70.5999467,34.6044817 L68.2347422,37.7986806 C67.9611067,38.1600236 68.2141867,37.999555 67.8333333,38.138089 C68.1794889,37.4140838 68.0150444,34.5213613 67.7844933,33.7341911 C66.8280844,30.4725393 65.7295956,27.5019738 65.3763689,23.9007487 C65.2851022,22.9763639 65.3666667,22.8178743 65.3666667,21.8108639 C65.47076,21.9751257 65.9229822,23.6327513 67.3643378,25.8682618 C68.1487378,27.085877 68.9864178,28.4817723 69.34096,29.9467696 C69.79384,31.8156597 69.4366667,32.2164188 69.4366667,33.5615183 C69.6196933,33.2722461 69.8214667,32.1647984 69.8990844,31.7990026 C70.0347511,31.1579529 70.1322667,30.6818246 70.3141422,30.1123508 C71.3239956,26.9504764 73.7007111,23.5689267 72.89,20.0791885 C73.3685333,20.430966 73.6222711,21.6858534 73.76616,22.4164555 C73.9697422,23.4498534 73.9973689,24.0694634 74,25.3373796 Z M69.4366667,33.5615183 C69.4366667,33.6304555 69.4392978,33.7632173 69.42828,33.8004895 C69.3641467,34.0247827 69.39424,33.9325916 69.3133333,34.0562827 C69.3133333,33.9873455 69.3107022,33.8545838 69.32172,33.8173115 C69.3858533,33.5931832 69.35576,33.6852094 69.4366667,33.5615183 Z" id="Fill-10"></path>
                    <path d="M4.81,34.9221204 C4.81,34.605801 5.00536,34.9021649 4.88317778,34.9221204 L4.87429778,34.9240995 C4.80095556,34.927233 4.81,35.202322 4.81,34.9221204 Z M4.68666667,34.3036649 C4.81197333,34.4692461 4.81,34.0434188 4.81,34.6747382 C4.69571111,34.5233403 4.72975111,34.8139319 4.68666667,34.3036649 Z M4.68666667,34.3036649 C4.52929333,34.0549634 4.45282667,33.7033508 4.24464,32.6442251 C3.29859111,27.8382487 1.58277778,27.0535524 0.946871111,22.589788 C0.826662222,21.7458848 0.986666667,21.5377539 0.986666667,20.5739529 L0.73556,21.0642644 C-0.425911111,23.9960733 -0.0720266667,28.3407644 0.968742222,31.2295288 C1.87318667,33.7412827 4.05322667,35.5174869 5.49540444,37.6980785 C5.74716889,38.0788822 5.83333778,38.3881099 6.16666667,38.6328534 C6.16666667,34.6071204 5.65146222,36.5713351 6.82641778,32.4915079 C7.80667111,29.0867042 8.63333333,26.3005209 8.63333333,22.3056283 C8.28717778,22.5601021 8.41626667,22.484733 8.28454667,22.9453586 C7.46429778,25.8082304 4.55182222,28.1860681 4.56136,32.323288 C4.56333333,33.1434424 4.68666667,33.6703665 4.68666667,34.3036649 Z" id="Fill-11"></path>
                    <path d="M69.8066667,13.7709424 C69.8066667,14.7340838 69.6145956,18.578733 69.5080356,19.2849267 C69.2894889,20.7293089 69.6833333,22.583356 69.6833333,24.0373037 L69.56,24.0373037 C69.56,21.7503377 68.36268,20.3021623 66.9390844,18.8732827 C66.5480356,18.4802749 66.3674756,18.2765969 65.9119644,17.9243246 C65.3845911,17.5158141 63.8833778,16.0405916 63.4671689,15.4285681 C63.2423733,15.0974058 63.3124267,15.0967461 63.0233333,14.8841623 C63.0593467,16.5043508 64.2573244,18.9704215 65.1443378,20.3021623 L66.7529333,22.5233246 C68.2258622,24.3066204 69.2644933,26.1562147 69.8066667,28.4901832 L70.0283378,27.9703508 C70.0771778,27.7750838 70.1240444,27.4594241 70.1452578,27.3454634 C70.7708044,24.0689686 72.2733333,22.3732461 72.2733333,18.9659686 C72.2733333,16.6958246 71.4749556,13.7651702 70.2486933,12.0908874 C69.9987378,11.7493351 69.8716222,11.5896911 69.6351511,11.2217513 C69.3679289,10.8074686 69.3049467,10.5614058 68.82,10.4312827 C69.37056,11.4749058 69.8066667,12.4083613 69.8066667,13.7709424 Z" id="Fill-13"></path>
                    <path d="M4.31666667,24.408377 C4.31666667,25.0396963 4.31864,24.6138691 4.19333333,24.7794503 C4.19333333,24.1255366 4.19399111,24.595233 4.31666667,24.408377 Z M4.31666667,24.408377 C4.31666667,21.0855393 4.69110667,21.0809215 4.13808,17.2897068 C3.75837778,14.6908743 3.81050667,12.6080812 4.93333333,10.9260471 C4.13808,11.1392906 2.82959556,13.8367461 2.55398667,14.4769712 C1.54495556,16.8181963 1.41455111,19.5702408 2.02085778,22.0105838 C2.56681333,24.2061832 4.07,26.7797827 4.07,28.8612565 L4.31666667,28.8612565 C4.36353333,26.7418508 6.72298222,23.7054817 7.72050222,22.2559869 C8.41495111,21.2465026 9.11186667,20.351144 9.61868444,19.2120314 C9.98868444,18.3809921 10.73,16.3846178 10.73,15.2552356 C10.61752,15.3853586 10.7061556,15.2694188 10.5739422,15.4697984 C9.00530667,17.829 7.65817778,18.2038665 6.11207111,20.2718168 C5.27192444,21.3954267 4.76050222,22.2136021 4.51252,23.6154346 C4.42454222,24.1133325 4.46828444,24.1687461 4.31666667,24.408377 Z" id="Fill-14"></path>
                    <path d="M67.2166667,15.5026178 L67.34,15.75 L67.2166667,15.5026178 Z M67.2166667,15.5026178 C66.3500444,14.5028639 66.9269156,14.1200812 63.4665111,11.7184948 L61.33268,10.1477827 C60.86056,9.75032199 60.3433822,9.12543455 60.0626756,8.57657592 L59.6933333,7.95746073 C59.6933333,9.14604974 60.4802,10.9634843 60.9633378,11.7551073 C62.7317733,14.6567356 66.2120756,15.6921126 68.39672,19.1430942 L68.6966667,19.5844241 C68.6966667,17.8837539 68.4236889,17.1409476 68.6787422,14.8661859 C69.1431333,10.7147827 66.9571733,6.49774084 63.1466667,5.60732984 C63.4870667,6.11759686 63.8610133,5.98483508 64.7769689,7.43564921 C65.4566178,8.51209162 66.31732,12.4690524 66.7752978,14.0899005 C66.9191867,14.6006623 67.1788444,15.0497435 67.2166667,15.5026178 Z" id="Fill-15"></path>
                    <path d="M6.29,16.3684555 L6.32667111,16.405233 C6.32469778,16.4032539 6.27783111,16.3806597 6.29,16.3684555 Z M6.53666667,15.9973822 L6.46858667,16.2634005 L6.53666667,15.9973822 Z M6.53666667,15.9973822 C6.59192,15.3312644 7.10844,14.1613115 7.32221778,13.4455524 C7.77509778,11.9304188 7.96585333,9.55637435 8.79514667,7.99621728 C9.30656889,7.03307592 9.87242222,6.83269634 10.36,6.10209424 C8.78692444,6.46937435 7.05252889,8.01996597 6.26237333,9.29035602 C5.93858222,9.81150785 5.69898667,10.3397513 5.50379111,11.0033953 C4.70524889,13.713055 5.29757778,15.5708953 5.30777333,17.6015733 C5.31303556,18.580712 5.18,19.0517277 5.18,19.9554974 C5.57121333,19.8138298 5.53914667,19.4336859 6.25086222,18.555644 C7.27798222,17.2890471 7.68202222,16.9527723 8.84661778,16.0875942 C11.2072178,14.3326649 13.9366667,11.5619843 13.9366667,8.32853403 L13.6064622,8.86320942 C13.4497467,9.17128272 13.4407022,9.2156466 13.2506044,9.49584817 C11.9389956,11.4298822 9.18389333,12.3447016 7.32797333,14.8120916 L6.53666667,15.9973822 Z" id="Fill-16"></path>
                    <path d="M56.1166667,2.26767016 C56.68252,3.11553141 57.7264133,3.74882984 58.3629778,4.71510471 C59.63364,6.64386126 59.6541956,6.51951047 60.8899956,7.99423822 C62.2455111,9.60997382 62.0373244,9.20855497 63.2404,10.3372775 C63.8152978,10.8777251 64.5470756,11.545822 65.2433333,11.9155759 C65.1546978,11.5342775 65.0802044,11.5097042 64.9504578,11.0960812 C64.3004089,9.02037958 63.9361644,7.33191361 62.2543911,5.51266492 C61.5548444,4.75699476 60.5316711,4.00709686 59.5295467,3.54515183 C58.9546489,3.27979319 56.6594978,2.31285864 56.1166667,2.26767016 Z" id="Fill-17"></path>
                    <path d="M8.51,12.2866492 C10.06844,11.2397277 12.3012667,9.16732461 13.3213156,7.71139791 C13.9032844,6.87969895 15.5727244,4.51538482 16.3706089,3.71914398 C16.7830356,3.30815969 17.2030267,2.97963613 17.5133333,2.51505236 C17.08364,2.61565445 14.6278267,3.6424555 14.1800444,3.87252094 C11.0434311,5.48297906 9.94625778,7.32993455 9.05661333,10.4847173 C8.86454222,11.1669974 8.65257333,11.6714921 8.51,12.2866492 Z" id="Fill-18"></path>
                    <path d="M35.7666667,34.9221204 L36.1366667,34.9221204 C36.2188889,34.7656099 36.5972756,34.1799738 36.1366667,34.1799738 C35.6606,34.1799738 35.0421244,34.9221204 35.7666667,34.9221204 Z" id="Fill-19"></path>
                    <path d="M14.5533333,34.1799738 C14.4813067,33.8694267 14.4101022,33.4327147 14.3285378,33.1685105 C14.1647511,32.6435654 14.1101556,32.5558272 13.8133333,32.4482984 C14.0484889,33.4604215 14.0452,33.8385864 14.5533333,34.1799738 Z" id="Fill-20"></path>
                    <path d="M51.3066667,28.2585215 C51.7161667,28.4539812 51.7611667,28.4385095 51.8066667,27.8717277 L51.3066667,27.8717277 L51.3066667,28.2585215 Z" id="Fill-21"></path>
                    <path d="M36.26,31.2113874 L36.76,31.2113874 C36.7226667,30.8777513 36.6817778,30.8751126 36.5933333,30.5929319 L36.26,30.5929319 L36.26,31.2113874 Z" id="Fill-22"></path>
                    <path d="M47.26907,19.8757299 C47.1976536,20.0587138 46.976893,19.8265381 47.2608782,20.0893696 C47.4774379,20.2887508 47.2739011,20.1385614 47.5841424,20.2321921 C47.499703,19.8757299 47.7859987,20.160662 47.4576933,19.8664619 C47.1804297,19.6186018 47.4807986,19.7699794 47.26907,19.8757299 Z" id="Fill-23"></path>
                    <polygon id="Fill-24" points="10.9002778 38.6367801 10.9002778 38.2617801 10.4627778 38.5742801"></polygon>
                    <polygon id="Fill-25" points="2.76027778 41.8527487 2.76027778 41.4777487 2.32277778 41.7902487"></polygon>
                    <polygon id="Fill-26" points="14.6002778 57.3141361 14.6002778 56.9391361 14.1627778 57.2516361"></polygon>
                    <polygon id="Fill-27" points="56.4102778 2.51897906 56.4102778 2.14397906 55.9727778 2.45647906"></polygon>
                    <polygon id="Fill-28" points="36.63 21.6092932 37.005 21.6092932 36.6925 21.1717932"></polygon>
                </g>
            </g>
        </g>
    </g>
</svg>