<?xml version="1.0" encoding="UTF-8"?>
<svg width="85px" height="61px" viewBox="0 0 85 61" version="1.1" xmlns="http://www.w3.org/2000/svg" xmlns:xlink="http://www.w3.org/1999/xlink">
    <!-- Generator: sketchtool 42 (36781) - http://www.bohemiancoding.com/sketch -->
    <title>35AB9F71-37F7-4B0C-A743-A94FFA73FF2F</title>
    <desc>Created with sketchtool.</desc>
    <defs></defs>
    <g id="Page-1" stroke="none" stroke-width="1" fill="none" fill-rule="evenodd">
        <g id="1--landingpage" transform="translate(-437.000000, -614.000000)" fill="#8291AA">
            <g id="Group-11" transform="translate(107.000000, 613.000000)">
                <g id="logo-fiesp" transform="translate(330.000000, 1.000000)">
                    <polygon id="Fill-1" opacity="0.01" points="0 60.6093039 84.8925389 60.6093039 84.8925389 0.471157783 0 0.471157783"></polygon>
                    <polygon id="Fill-2" points="3.74528497 45.4387524 80.7469171 45.4387524 80.7469171 44.2724959 3.74528497 44.2724959"></polygon>
                    <polygon id="Fill-3" points="3.74528497 55.2738756 80.7469171 55.2738756 80.7469171 54.1076191 3.74528497 54.1076191"></polygon>
                    <polygon id="Fill-4" points="3.74528497 36.2136508 80.7469171 36.2136508 80.7469171 35.0469571 3.74528497 35.0469571"></polygon>
                    <polygon id="Fill-5" points="3.74528497 26.377653 80.7469171 26.377653 80.7469171 25.2113966 3.74528497 25.2113966"></polygon>
                    <polygon id="Fill-6" points="3.74528497 16.5692046 80.7469171 16.5692046 80.7469171 15.4029481 3.74528497 15.4029481"></polygon>
                    <polygon id="Fill-7" points="4.17248705 6.9986427 81.1472539 6.9986427 81.1472539 5.83238626 4.17248705 5.83238626"></polygon>
                    <path d="M27.2942487,23.9655531 L28.9229016,17.9742222 L33.7287047,17.9742222 L33.4886788,18.8754799 L29.9909067,18.8754799 L29.5905699,20.3600846 L32.7941451,20.3600846 L32.5541192,21.314692 L29.3501036,21.314692 L28.6291451,23.9655531 L27.2942487,23.9655531 Z M34.8504404,17.9742222 L36.2117617,17.9742222 L34.6099741,23.9655531 L33.2213472,23.9655531 L34.8504404,17.9742222 Z M36.3187824,23.9655531 L37.9474352,17.9742222 L42.7532383,17.9742222 L42.5132124,18.8754799 L39.0154404,18.8754799 L38.6146632,20.3600846 L41.8186788,20.3600846 L41.5786528,21.2880172 L38.3746373,21.2880172 L37.8941451,23.0376205 L41.4984974,23.0376205 L41.2580311,23.9655531 L36.3187824,23.9655531 Z M42.5396373,22.1096879 L43.7943782,22.1096879 C43.7146632,22.4280361 43.7943782,22.6667973 44.0079793,22.8522089 C44.2484456,23.011383 44.6223575,23.1172075 45.129715,23.1172075 C45.6102073,23.1172075 46.010544,23.0376205 46.3043005,22.8784464 C46.6249223,22.7459471 46.811658,22.5338607 46.8918135,22.268862 C46.9719689,21.9242763 46.598057,21.6855152 45.7700777,21.5530158 C45.6102073,21.5001036 45.4767617,21.5001036 45.3966062,21.4738661 C44.4351813,21.2880172 43.8212435,21.0759308 43.5543523,20.8109321 C43.2874611,20.5459335 43.2073057,20.1479982 43.3671762,19.6442384 C43.5010622,19.0875663 43.8481088,18.6371561 44.4087565,18.3454826 C44.9694041,18.0271344 45.6903627,17.8683976 46.5447668,17.8683976 C47.3458808,17.8683976 47.9598187,18.0271344 48.3068653,18.3188079 C48.6807772,18.6104813 48.7873575,19.0613288 48.6539119,19.6180009 L47.4255959,19.6180009 C47.4793264,19.3792398 47.399171,19.1671534 47.1855699,19.0346541 C46.9983938,18.8754799 46.6782124,18.7958929 46.3043005,18.7958929 C45.8238083,18.7958929 45.4230311,18.8754799 45.1561399,19.0079793 C44.8623834,19.1404786 44.6756477,19.352565 44.6223575,19.6180009 C44.5153368,19.9359118 44.9694041,20.2013478 45.9572539,20.3600846 C46.1977202,20.4134342 46.3575907,20.4396717 46.4910363,20.4663464 C47.2388601,20.5988458 47.7726425,20.8109321 48.0131088,21.0496933 C48.28,21.314692 48.3337306,21.6592777 48.2267098,22.1363627 C48.0399741,22.7459471 47.6660622,23.2234694 47.0785492,23.5680551 C46.4910363,23.9126408 45.7436528,24.0718149 44.8090933,24.0718149 C43.9282642,24.0718149 43.2605959,23.9126408 42.8602591,23.5680551 C42.4863472,23.2497069 42.3529016,22.7726218 42.5396373,22.1630375 L42.5396373,22.1096879 Z M51.2171244,20.5459335 L52.445,20.5459335 C53.0593782,20.5459335 53.4865803,20.4925839 53.7001813,20.3600846 C53.8869171,20.2542601 54.0203627,20.0421737 54.1273834,19.7238255 C54.2075389,19.4059145 54.1806736,19.1938282 54.0203627,19.0875663 C53.8869171,18.955067 53.4865803,18.9021547 52.8990674,18.9021547 L51.6443264,18.9021547 L51.2171244,20.5459335 Z M48.9476684,23.9655531 L50.5763212,17.9742222 L53.4064249,17.9742222 C53.9406477,17.9742222 54.3141192,18.0008969 54.5545855,18.0538092 C54.7946114,18.080484 54.9817876,18.1596338 55.1152332,18.2658956 C55.3288342,18.3983949 55.4622798,18.6104813 55.5155699,18.8492425 C55.5693005,19.1142411 55.5424352,19.4059145 55.4622798,19.7238255 C55.3821244,20.0421737 55.2486788,20.3071723 55.0883679,20.5459335 C54.9016321,20.7842574 54.7148964,20.9701063 54.4475648,21.1288431 C54.2339637,21.2351049 53.9939378,21.3409294 53.7270466,21.394279 C53.4332902,21.4471913 53.032513,21.4738661 52.4987306,21.4738661 L50.976658,21.4738661 L50.2825648,23.9655531 L48.9476684,23.9655531 L48.9476684,23.9655531 Z" id="Fill-8"></path>
                    <path d="M32.3136528,29.6122982 C32.3938083,29.3206248 32.3136528,29.1085384 32.1000518,28.9493643 C31.9133161,28.7906275 31.5926943,28.7110405 31.1654922,28.7110405 C30.5515544,28.7110405 30.0441969,28.8964521 29.5905699,29.29395 C29.1365026,29.6652105 28.8163212,30.1689703 28.6291451,30.8319043 C28.4692746,31.5210757 28.4956995,32.051073 28.7361658,32.4223335 C28.9761917,32.7935939 29.4302591,32.9790055 30.0710622,32.9790055 C30.5246891,32.9790055 30.8721762,32.8994185 31.1654922,32.7140069 C31.4592487,32.528158 31.6464249,32.2898341 31.7530052,31.9452484 L31.7530052,31.9185736 L33.1147668,31.9185736 L33.0879016,31.9981607 C32.9275907,32.607745 32.5541192,33.0852674 31.9666062,33.4298531 C31.3790933,33.747764 30.6317098,33.9336129 29.7240155,33.9336129 C28.6828756,33.9336129 27.9619171,33.6681769 27.5078497,33.1115049 C27.0806477,32.5548328 27.0004922,31.8127491 27.2673834,30.8319043 C27.534715,29.8510594 28.0420725,29.0818637 28.789456,28.5518663 C29.5368394,28.021869 30.471399,27.7564331 31.5662694,27.7564331 C32.3938083,27.7564331 32.9813212,27.9156072 33.3283679,28.2339554 C33.7022798,28.5518663 33.8088601,29.0027139 33.6485492,29.6122982 L32.3136528,29.6122982 Z M35.3842228,27.8360202 L36.7724093,27.8360202 L35.1437565,33.8273511 L33.7555699,33.8273511 L35.3842228,27.8360202 Z M36.8794301,33.8273511 L38.4812176,27.8360202 L43.2874611,27.8360202 L43.0469948,28.7372779 L39.5760881,28.7372779 L39.1753109,30.2218826 L42.3793264,30.2218826 L42.1124352,31.1498152 L38.9084197,31.1498152 L38.4547927,32.8994185 L42.0591451,32.8994185 L41.7922539,33.8273511 L36.8794301,33.8273511 Z M43.0738601,31.9714859 L44.328601,31.9714859 C44.2484456,32.2898341 44.328601,32.528158 44.5422021,32.7140069 C44.782228,32.873181 45.1561399,32.9790055 45.6634974,32.9790055 C46.1439896,32.9790055 46.5447668,32.8994185 46.8649482,32.7402444 C47.1587047,32.607745 47.3458808,32.3956587 47.4255959,32.13066 C47.5057513,31.7860743 47.1587047,31.5473132 46.3311658,31.4148138 C46.1439896,31.3619016 46.010544,31.3619016 45.9303886,31.3352268 C44.9694041,31.1498152 44.3818912,30.9377288 44.0881347,30.6727301 C43.8212435,30.4077315 43.7679534,30.0097962 43.901399,29.4797989 C44.0348446,28.9493643 44.4087565,28.4989541 44.9425389,28.2072806 C45.5031865,27.8889324 46.2241451,27.7301956 47.0785492,27.7301956 C47.9065285,27.7301956 48.493601,27.8889324 48.867513,28.1806059 C49.2145596,28.4722793 49.3215803,28.9231268 49.1876943,29.4797989 L47.9598187,29.4797989 C48.0131088,29.2148003 47.9329534,29.0289514 47.7193523,28.8964521 C47.5326166,28.7372779 47.2388601,28.6581282 46.8385233,28.6581282 C46.3575907,28.6581282 45.9836788,28.7372779 45.6903627,28.8697773 C45.3966062,29.0027139 45.2362953,29.2148003 45.1561399,29.4797989 C45.0759845,29.7977098 45.5300518,30.0627085 46.5179016,30.2218826 C46.7315026,30.2747949 46.8918135,30.3014697 47.0252591,30.3281444 C47.7995078,30.4606438 48.3068653,30.6727301 48.5737565,30.911054 C48.8142228,31.17649 48.8943782,31.5210757 48.7609326,31.9981607 C48.6006218,32.607745 48.2267098,33.0852674 47.612772,33.4298531 C47.0252591,33.7744388 46.2774352,33.9336129 45.3697409,33.9336129 C44.4620466,33.9336129 43.8212435,33.7744388 43.4209067,33.4298531 C43.0201295,33.1115049 42.9135492,32.6344198 43.0738601,32.0248355 L43.0738601,31.9714859 Z M51.7509067,30.4077315 L52.9792228,30.4077315 C53.6200259,30.4077315 54.0203627,30.3543819 54.2339637,30.2218826 C54.4211399,30.1160581 54.5810104,29.9039717 54.6611658,29.5856235 C54.7413212,29.2677125 54.7148964,29.0556262 54.5545855,28.9493643 C54.4211399,28.816865 54.047228,28.7639527 53.4332902,28.7639527 L52.2049741,28.7639527 L51.7509067,30.4077315 Z M49.4814508,33.8273511 L51.1101036,27.8360202 L53.9406477,27.8360202 C54.4744301,27.8360202 54.848342,27.8626949 55.0883679,27.8889324 C55.3288342,27.942282 55.5155699,28.021869 55.6758808,28.1276936 C55.8626166,28.2601929 55.9960622,28.4722793 56.0497927,28.7110405 C56.1030829,28.9493643 56.1030829,29.2677125 55.9960622,29.5856235 C55.9163472,29.9039717 55.7824611,30.1689703 55.6225907,30.4077315 C55.4622798,30.6460554 55.2486788,30.8319043 55.0082124,30.9644036 C54.7946114,31.0969029 54.5277202,31.2027274 54.260829,31.2556397 C53.9939378,31.3089893 53.5667358,31.3352268 53.032513,31.3352268 L51.5108808,31.3352268 L50.8163472,33.8273511 L49.4814508,33.8273511 L49.4814508,33.8273511 Z" id="Fill-9"></path>
                    <path d="M33.5683938,39.2353351 C33.6221244,38.9436617 33.5683938,38.7053378 33.3547927,38.5461637 C33.168057,38.4136643 32.8478756,38.3340773 32.4206736,38.3340773 C31.8062953,38.3340773 31.272513,38.5194889 30.8453109,38.8907494 C30.3912435,39.2620099 30.0710622,39.7924445 29.8843264,40.4282663 C29.6971503,41.117875 29.7240155,41.6478723 29.9909067,42.0191328 C30.2313731,42.3903933 30.685,42.5758049 31.3258031,42.5758049 C31.7530052,42.5758049 32.1269171,42.4962178 32.4206736,42.3108062 C32.7144301,42.1249573 32.9011658,41.8866335 32.9813212,41.5682853 L33.0077461,41.515373 L34.3695078,41.515373 L34.3430829,41.59496 C34.182772,42.2045444 33.8088601,42.6816294 33.2213472,43.0262151 C32.6342746,43.3712381 31.8864508,43.5299749 30.9787565,43.5299749 C29.9376166,43.5299749 29.1897927,43.2649763 28.7625907,42.7083042 C28.3353886,42.1783069 28.2556736,41.4095484 28.5225648,40.4282663 C28.7625907,39.4474215 29.2968135,38.7053378 30.0441969,38.1486657 C30.7920207,37.6182311 31.7261399,37.3532325 32.8210104,37.3532325 C33.6485492,37.3532325 34.2360622,37.5124066 34.5831088,37.8303175 C34.9301554,38.1486657 35.0640415,38.6257507 34.9037306,39.2353351 L33.5683938,39.2353351 Z M34.983886,43.4241504 L36.6125389,37.4328195 L41.418342,37.4328195 L41.1778756,38.3607521 L37.680544,38.3607521 L37.2797668,39.818682 L40.4837824,39.818682 L40.2437565,40.7466145 L37.0397409,40.7466145 L36.5588083,42.4962178 L40.163601,42.4962178 L39.9231347,43.4241504 L34.983886,43.4241504 Z M41.2047409,41.5682853 L42.4594819,41.5682853 C42.3793264,41.8866335 42.433057,42.1516321 42.6730829,42.3108062 C42.9135492,42.4962178 43.2874611,42.5758049 43.7943782,42.5758049 C44.2753109,42.5758049 44.6756477,42.4962178 44.9694041,42.3637185 C45.2895855,42.2045444 45.4767617,41.992458 45.5564767,41.7274594 C45.6366321,41.3828737 45.2631606,41.1441125 44.4351813,41.0116132 C44.2753109,40.9853757 44.1418653,40.9587009 44.0617098,40.9320261 C43.100285,40.7732893 42.4863472,40.5345281 42.219456,40.2695295 C41.9521244,40.0045308 41.8724093,39.6065956 42.0058549,39.1028358 C42.1657254,38.5461637 42.5132124,38.1219909 43.0738601,37.80408 C43.6345078,37.4857318 44.328601,37.3532325 45.2094301,37.3532325 C46.010544,37.3532325 46.6249223,37.4857318 46.9719689,37.7774052 C47.3458808,38.0953161 47.4524611,38.5194889 47.3190155,39.0765983 L46.0906995,39.0765983 C46.1439896,38.8378371 46.0638342,38.6519882 45.8502332,38.4932514 C45.6366321,38.3340773 45.3433161,38.281165 44.9694041,38.281165 C44.4889119,38.281165 44.0881347,38.3340773 43.8212435,38.4932514 C43.527487,38.6257507 43.3407513,38.8111623 43.2874611,39.1028358 C43.1804404,39.421184 43.6345078,39.6595078 44.6223575,39.8453567 C44.8623834,39.8715942 45.0226943,39.898269 45.1561399,39.9249438 C45.9039637,40.0836806 46.4377461,40.2695295 46.6782124,40.5345281 C46.9451036,40.7732893 46.9983938,41.1441125 46.8918135,41.59496 C46.7050777,42.2045444 46.3311658,42.6816294 45.7436528,43.0262151 C45.1561399,43.3712381 44.4087565,43.5299749 43.4741969,43.5299749 C42.5929275,43.5299749 41.9256995,43.3712381 41.5253627,43.0528899 C41.1514508,42.7083042 41.0180052,42.2312192 41.1778756,41.6211975 L41.2047409,41.5682853 Z M49.2414249,37.4328195 L50.6296114,37.4328195 L49.0009585,43.4241504 L47.612772,43.4241504 L49.2414249,37.4328195 L49.2414249,37.4328195 Z" id="Fill-10"></path>
                </g>
            </g>
        </g>
    </g>
</svg>