<?xml version="1.0" encoding="UTF-8"?>
<svg width="172px" height="38px" viewBox="0 0 172 38" version="1.1" xmlns="http://www.w3.org/2000/svg" xmlns:xlink="http://www.w3.org/1999/xlink">
    <!-- Generator: sketchtool 42 (36781) - http://www.bohemiancoding.com/sketch -->
    <title>6B9EB908-C3EF-4C29-9A72-E775251C87F2</title>
    <desc>Created with sketchtool.</desc>
    <defs>
        <polygon id="path-1" points="0 38.7381507 171.842506 38.7381507 171.842506 0.990881119 0 0.990881119"></polygon>
    </defs>
    <g id="Page-1" stroke="none" stroke-width="1" fill="none" fill-rule="evenodd">
        <g id="1--landingpage" transform="translate(-746.000000, -625.000000)">
            <g id="Group-11" transform="translate(107.000000, 613.000000)">
                <g id="logo-minis-saude" transform="translate(639.000000, 11.000000)">
                    <polygon id="Fill-1" fill="#8291AA" points="5.04592048 20.0304783 2.86483614 23.2447254 0.683751807 20.0304783 -0.000103614458 20.0304783 -0.000103614458 25.9207161 0.658884337 25.9207161 0.658884337 21.1579624 2.83996867 24.3049274 2.87416145 24.3049274 5.05524578 21.1487876 5.05524578 25.9207161 5.73081205 25.9207161 5.73081205 20.0304783"></polygon>
                    <polygon id="Fill-2" fill="#8291AA" points="7.14110843 25.9206141 7.8166747 25.9206141 7.8166747 20.0303764 7.14110843 20.0303764"></polygon>
                    <polygon id="Fill-3" fill="#8291AA" points="13.6325542 20.0302744 14.2915422 20.0302744 14.2915422 25.9205122 13.752747 25.9205122 9.88689157 21.0904765 9.88689157 25.9205122 9.22790361 25.9205122 9.22790361 20.0302744 9.86098795 20.0302744 13.6325542 24.7512317"></polygon>
                    <polygon id="Fill-4" fill="#8291AA" points="15.7027711 25.9206141 16.3783373 25.9206141 16.3783373 20.0303764 15.7027711 20.0303764"></polygon>
                    <g id="Group-57" transform="translate(0.000000, 0.028238)">
                        <path d="M19.9364578,22.6270558 C21.271012,22.9135142 21.8864819,23.392644 21.8864819,24.3019711 C21.8864819,25.3193573 21.0306265,25.9768864 19.8421687,25.9768864 C18.8930602,25.9768864 18.1149157,25.6649423 17.3958313,25.0339183 L17.8144337,24.5456137 C18.4392289,25.1012003 19.0381205,25.3795033 19.8680723,25.3795033 C20.6721205,25.3795033 21.2026265,24.9666362 21.2026265,24.3692531 C21.2026265,23.8136665 20.9031807,23.5027419 19.6453012,23.2417691 C18.2682651,22.9471552 17.6351807,22.5098219 17.6351807,21.5332127 C17.6351807,20.5902446 18.4651325,19.9174241 19.6028193,19.9174241 C20.475253,19.9174241 21.099012,20.1610667 21.7072289,20.6412159 L21.313494,21.1550061 C20.7570843,20.7084979 20.2017108,20.5148071 19.5852048,20.5148071 C18.8070602,20.5148071 18.310747,20.9358297 18.310747,21.4740861 C18.310747,22.0378281 18.6195181,22.3487528 19.9364578,22.6270558 Z" id="Fill-5" fill="#8291AA"></path>
                        <polygon id="Fill-7" fill="#8291AA" points="25.0591566 25.8922741 24.3753012 25.8922741 24.3753012 20.6157302 22.3651807 20.6157302 22.3651807 20.0020364 27.0692771 20.0020364 27.0692771 20.6157302 25.0591566 20.6157302"></polygon>
                        <path d="M29.6855422,19.4790713 L30.4989157,18.259839 L31.1827711,18.5707636 L30.2160482,19.4790713 L29.6855422,19.4790713 Z M32.3204578,20.6075748 L28.6680482,20.6075748 L28.6680482,22.6189004 L31.9360482,22.6189004 L31.9360482,23.2244389 L28.6680482,23.2244389 L28.6680482,25.2867357 L32.3629398,25.2867357 L32.3629398,25.8922741 L27.9924819,25.8922741 L27.9924819,20.0020364 L32.3204578,20.0020364 L32.3204578,20.6075748 Z" id="Fill-9" fill="#8291AA"></path>
                        <path d="M35.9034458,20.6157302 L34.056,20.6157302 L34.056,23.0052625 L35.8951566,23.0052625 C36.793494,23.0052625 37.4348675,22.5516183 37.4348675,21.7860301 C37.4348675,21.0530636 36.8701687,20.6157302 35.9034458,20.6157302 M37.503253,25.8922741 L35.7677108,23.603665 L34.056,23.603665 L34.056,25.8922741 L33.3804337,25.8922741 L33.3804337,20.0020364 L35.955253,20.0020364 C37.2721928,20.0020364 38.119759,20.7003425 38.119759,21.7605445 C38.119759,22.7453091 37.4348675,23.3172065 36.4940482,23.4854117 L38.3332048,25.8922741 L37.503253,25.8922741" id="Fill-11" fill="#8291AA"></path>
                        <mask id="mask-2" fill="white">
                            <use xlink:href="#path-1"></use>
                        </mask>
                        <g id="Clip-14"></g>
                        <polygon id="Fill-13" fill="#8291AA" mask="url(#mask-2)" points="39.2823133 25.8923761 39.9578795 25.8923761 39.9578795 20.0021383 39.2823133 20.0021383"></polygon>
                        <path d="M44.1490843,20.5148071 C42.7803373,20.5148071 41.8053253,21.5923394 41.8053253,22.9389998 C41.8053253,24.2846409 42.7969157,25.3795033 44.1656627,25.3795033 C45.5344096,25.3795033 46.5094217,24.3019711 46.5094217,22.9553106 C46.5094217,21.6086502 45.5167952,20.5148071 44.1490843,20.5148071 M44.1490843,25.9931972 C42.326506,25.9931972 41.1038554,24.5884295 41.1038554,22.9553106 C41.1038554,21.3232112 42.3441205,19.9011133 44.1656627,19.9011133 C45.9872048,19.9011133 47.2108916,21.305881 47.2108916,22.9389998 C47.2108916,24.5710993 45.9706265,25.9931972 44.1490843,25.9931972" id="Fill-15" fill="#8291AA" mask="url(#mask-2)"></path>
                        <path d="M52.5988434,20.6157302 L51.1959036,20.6157302 L51.1959036,25.2775608 L52.5988434,25.2775608 C54.1126506,25.2775608 55.0793735,24.2683301 55.0793735,22.9553106 C55.0793735,21.6422912 54.1126506,20.6157302 52.5988434,20.6157302 M52.5988434,25.8922741 L50.5203373,25.8922741 L50.5203373,20.0020364 L52.5988434,20.0020364 C54.4804819,20.0020364 55.7808434,21.2722399 55.7808434,22.9389998 C55.7808434,24.6047403 54.4804819,25.8922741 52.5988434,25.8922741" id="Fill-16" fill="#8291AA" mask="url(#mask-2)"></path>
                        <path d="M58.996,20.7329641 L57.627253,23.7382291 L60.3564578,23.7382291 L58.996,20.7329641 Z M62.0495181,25.8922741 L61.3231807,25.8922741 L60.6206747,24.3356121 L57.362,24.3356121 L56.652241,25.8922741 L55.9590602,25.8922741 L58.6882651,19.9592205 L59.3213494,19.9592205 L62.0495181,25.8922741 Z" id="Fill-17" fill="#8291AA" mask="url(#mask-2)"></path>
                        <path d="M32.8499277,33.5736416 L33.7741687,32.487954 C34.3647711,32.950773 35.0227229,33.195435 35.7159036,33.195435 C36.1604096,33.195435 36.399759,33.0435406 36.399759,32.7907232 L36.399759,32.7744124 C36.399759,32.5297504 36.2028916,32.3951863 35.3905542,32.2106704 C34.1160964,31.924212 33.1327952,31.5704715 33.1327952,30.3593946 L33.1327952,30.3420643 C33.1327952,29.2482213 34.0135181,28.4571475 35.4506506,28.4571475 C36.4681446,28.4571475 37.2639036,28.7262757 37.9135663,29.2400659 L37.0846506,30.3930356 C36.5365301,30.0138095 35.9376386,29.8119633 35.4071325,29.8119633 C35.0061446,29.8119633 34.8092771,29.9801685 34.8092771,30.19017 L34.8092771,30.2075002 C34.8092771,30.4766284 35.0144337,30.5948817 35.8433494,30.7793977 C37.2203855,31.0750309 38.076241,31.5123643 38.076241,32.6143627 L38.076241,32.6306735 C38.076241,33.8346145 37.1095181,34.5502508 35.6558072,34.5502508 C34.5947952,34.5502508 33.5855904,34.221996 32.8499277,33.5736416" id="Fill-18" fill="#8291AA" mask="url(#mask-2)"></path>
                        <path d="M41.9338072,32.1260581 L41.2665301,30.4521622 L40.5899277,32.1260581 L41.9338072,32.1260581 Z M40.4790602,28.5162741 L42.0788675,28.5162741 L44.6277831,34.4493277 L42.8487229,34.4493277 L42.412506,33.3972811 L40.1029398,33.3972811 L39.675012,34.4493277 L37.9301446,34.4493277 L40.4790602,28.5162741 Z" id="Fill-19" fill="#8291AA" mask="url(#mask-2)"></path>
                        <path d="M47.8004578,26.6476681 L49.3142651,27.1278172 L48.0563855,28.2053495 L46.9114458,28.2053495 L47.8004578,26.6476681 Z M44.7894217,31.8650853 L44.7894217,28.5580706 L46.4752289,28.5580706 L46.4752289,31.8314443 C46.4752289,32.6816448 46.9114458,33.0853371 47.5776867,33.0853371 C48.2449639,33.0853371 48.6811807,32.698975 48.6811807,31.8742601 L48.6811807,28.5580706 L50.3659518,28.5580706 L50.3659518,31.8232889 C50.3659518,33.725536 49.263494,34.5584062 47.5611084,34.5584062 C45.8587229,34.5584062 44.7894217,33.7082057 44.7894217,31.8650853 L44.7894217,31.8650853 Z" id="Fill-20" fill="#8291AA" mask="url(#mask-2)"></path>
                        <path d="M53.3427952,33.0017442 C54.3354217,33.0017442 54.9933735,32.4624684 54.9933735,31.5123643 L54.9933735,31.495034 C54.9933735,30.5520659 54.3354217,30.0056541 53.3427952,30.0056541 L52.6672289,30.0056541 L52.6672289,33.0017442 L53.3427952,33.0017442 Z M51.0073253,28.5580706 L53.3168916,28.5580706 C55.455494,28.5580706 56.695759,29.7701669 56.695759,31.4695484 L56.695759,31.4868786 C56.695759,33.1862601 55.4389157,34.4493277 53.2826988,34.4493277 L51.0073253,34.4493277 L51.0073253,28.5580706 L51.0073253,28.5580706 Z" id="Fill-21" fill="#8291AA" mask="url(#mask-2)"></path>
                        <polygon id="Fill-22" fill="#8291AA" mask="url(#mask-2)" points="57.2086506 28.5580706 62.0236145 28.5580706 62.0236145 29.9465274 58.8499036 29.9465274 58.8499036 30.8385243 61.7241687 30.8385243 61.7241687 32.1260581 58.8499036 32.1260581 58.8499036 33.0598514 62.0660964 33.0598514 62.0660964 34.4493277 57.2086506 34.4493277"></polygon>
                        <path d="M76.0327036,38.7381507 C75.1623422,38.7381507 75.0224627,38.163195 75.591306,37.4067817 C76.1383904,36.680951 77.1693542,36.069296 77.9734024,36.069296 C78.4386313,36.069296 78.6334265,36.1946853 78.7484386,36.4189588 C78.5308482,36.5565812 78.422053,36.6248827 78.2034265,36.7625051 C78.1174265,36.5922611 77.992053,36.4852214 77.6501253,36.4852214 C77.1558843,36.4852214 76.4720289,36.8980886 76.0990169,37.3996457 C75.7011373,37.9348438 75.7850651,38.3252836 76.3497639,38.3252836 C76.6108723,38.3252836 76.9030651,38.2478073 77.1579566,38.129554 C77.2968,37.9368827 77.3662217,37.8400373 77.5050651,37.647366 L76.8056675,37.647366 C76.9206795,37.4893551 76.9787036,37.4098399 77.0937157,37.2528485 L78.2510892,37.2528485 C77.9423181,37.6861041 77.7879325,37.9032416 77.4791614,38.3364973 C77.0512337,38.5536348 76.5248723,38.7381507 76.0327036,38.7381507" id="Fill-23" fill="#8291AA" mask="url(#mask-2)"></path>
                        <path d="M84.5250482,36.4855273 C83.9924699,36.4855273 83.3604217,36.8953361 83.0392169,37.3999515 C82.7190482,37.9055863 82.8454578,38.3215117 83.3946145,38.3215117 C83.9427349,38.3215117 84.573747,37.9127223 84.8794096,37.4070875 C85.1850723,36.9024721 85.0576265,36.4855273 84.5250482,36.4855273 M83.1283253,38.7384566 C82.273506,38.7384566 82.0642048,38.1369958 82.5325422,37.4070875 C83.0019157,36.6771792 83.971747,36.0696019 84.7913373,36.0696019 C85.6098916,36.0696019 85.8223012,36.6700432 85.3860843,37.3999515 C84.9498675,38.1298598 83.9821084,38.7384566 83.1283253,38.7384566" id="Fill-24" fill="#8291AA" mask="url(#mask-2)"></path>
                        <path d="M92.2647373,36.1133352 L92.771412,36.1133352 C91.9694361,36.9869824 91.1591711,37.8534937 90.3395807,38.7118496 L89.9106169,38.7118496 C89.9841831,37.6730555 90.0308096,37.1531487 90.1416771,36.1133352 L90.6597494,36.1133352 C90.5654602,36.9064479 90.5229783,37.3030042 90.4483759,38.0971363 C91.1850747,37.3030042 91.5487614,36.9064479 92.2647373,36.1133352" id="Fill-25" fill="#8291AA" mask="url(#mask-2)"></path>
                        <path d="M98.8607301,36.5187605 L97.340706,36.5187605 C97.2298386,36.7868693 97.1738867,36.9214334 97.0630193,37.1895422 L98.4245133,37.1895422 C98.3602723,37.3516308 98.3281518,37.4331848 98.264947,37.5952733 L96.8951639,37.5952733 C96.7801518,37.872557 96.7221277,38.0111988 96.6071157,38.2884824 L98.1893084,38.2884824 C98.1261036,38.4505709 98.0950193,38.5321249 98.0318145,38.6942135 L95.9512361,38.6942135 C96.3864169,37.661536 96.6050434,37.1457069 97.0402241,36.1130294 L99.0192602,36.1130294 C98.9560554,36.2751179 98.9239349,36.356672 98.8607301,36.5187605" id="Fill-26" fill="#8291AA" mask="url(#mask-2)"></path>
                        <path d="M104.433012,36.5262023 L103.746048,36.5262023 C103.638289,36.8728068 103.583373,37.0461091 103.475614,37.3927136 L104.176048,37.3927136 C104.517976,37.3927136 104.786337,37.223489 104.863012,36.9574191 C104.94694,36.674019 104.782193,36.5262023 104.433012,36.5262023 M104.36359,38.6934999 C104.195735,38.3346623 104.11388,38.1542241 103.953277,37.7943671 L103.350241,37.7943671 C103.238337,38.1542241 103.181349,38.3346623 103.069446,38.6934999 L102.581422,38.6934999 C102.910916,37.6618418 103.075663,37.1449933 103.406193,36.1133352 L104.595687,36.1133352 C105.209084,36.1133352 105.497133,36.4262987 105.354145,36.9319335 C105.23188,37.3590726 104.889952,37.6169871 104.477566,37.7168908 C104.657855,38.1073305 104.750072,38.3030601 104.939687,38.6934999 L104.36359,38.6934999" id="Fill-27" fill="#8291AA" mask="url(#mask-2)"></path>
                        <path d="M111.837819,36.1133352 L112.298904,36.1133352 C112.117578,37.1449933 112.026398,37.6618418 111.844036,38.6934999 L111.435795,38.6934999 C110.95606,37.9595139 110.725,37.5925209 110.28153,36.8575155 C110.129217,37.5925209 110.053578,37.9595139 109.902301,38.6934999 L109.42153,38.6934999 C109.642229,37.6618418 109.753096,37.1449933 109.973795,36.1133352 L110.40794,36.1133352 C110.832759,36.8269327 111.052422,37.1837315 111.510398,37.897329 C111.640952,37.1837315 111.707265,36.8269327 111.837819,36.1133352" id="Fill-28" fill="#8291AA" mask="url(#mask-2)"></path>
                        <path d="M118.039041,36.4855273 C117.506463,36.4855273 117.094077,36.8953361 117.044342,37.3999515 C116.995643,37.9055863 117.34586,38.3215117 117.893981,38.3215117 C118.443137,38.3215117 118.854487,37.9127223 118.88868,37.4070875 C118.922872,36.9024721 118.572655,36.4855273 118.039041,36.4855273 M117.851499,38.7384566 C116.997716,38.7384566 116.464101,38.1369958 116.541812,37.4070875 C116.618487,36.6771792 117.261933,36.0696019 118.081523,36.0696019 C118.900077,36.0696019 119.435764,36.6700432 119.39121,37.3999515 C119.346655,38.1298598 118.706318,38.7384566 117.851499,38.7384566" id="Fill-29" fill="#8291AA" mask="url(#mask-2)"></path>
                        <path d="M130.840504,36.5262023 L129.313227,36.5262023 C129.340166,36.8075636 129.354672,36.9482443 129.381612,37.230625 L130.751395,37.230625 C130.771082,37.3957719 130.781443,37.4783453 130.80113,37.6434922 L129.422022,37.6434922 C129.462431,38.0634953 129.483154,38.2734968 129.5246,38.6934999 L129.03554,38.6934999 C128.943323,37.6618418 128.896696,37.1449933 128.803443,36.1133352 L130.789733,36.1133352 C130.810455,36.2784821 130.820817,36.3610555 130.840504,36.5262023" id="Fill-30" fill="#8291AA" mask="url(#mask-2)"></path>
                        <path d="M137.185542,36.5187605 L135.665518,36.5187605 C135.719398,36.7868693 135.746337,36.9214334 135.799181,37.1895422 L137.160675,37.1895422 C137.19694,37.3516308 137.214554,37.4331848 137.250819,37.5952733 L135.88,37.5952733 C135.934916,37.872557 135.962892,38.0111988 136.017807,38.2884824 L137.601036,38.2884824 C137.637301,38.4505709 137.654916,38.5321249 137.691181,38.6942135 L135.610602,38.6942135 C135.412699,37.661536 135.314265,37.1457069 135.116361,36.1130294 L137.094361,36.1130294 C137.130627,36.2751179 137.149277,36.356672 137.185542,36.5187605" id="Fill-31" fill="#8291AA" mask="url(#mask-2)"></path>
                        <path d="M142.605096,36.5262023 L142.075627,36.5262023 C142.287,37.2285862 142.392687,37.5792684 142.605096,38.2806328 L143.149072,38.2806328 C143.729313,38.2806328 143.989386,37.9156786 143.824639,37.4069855 C143.658855,36.8982925 143.169795,36.5262023 142.605096,36.5262023 M143.277554,38.6934999 L142.24141,38.6934999 C141.937819,37.6618418 141.785506,37.1449933 141.481916,36.1133352 L142.476614,36.1133352 C143.315892,36.1133352 144.080566,36.6699413 144.32406,37.3998496 C144.566518,38.1297579 144.151024,38.6934999 143.277554,38.6934999" id="Fill-32" fill="#8291AA" mask="url(#mask-2)"></path>
                        <path d="M150.429646,36.5187605 L148.909622,36.5187605 C149.020489,36.7868693 149.075405,36.9214334 149.186272,37.1895422 L150.547766,37.1895422 C150.617188,37.3516308 150.652417,37.4331848 150.722875,37.5952733 L149.353092,37.5952733 C149.467067,37.872557 149.524055,38.0111988 149.638031,38.2884824 L151.220224,38.2884824 C151.290682,38.4505709 151.325911,38.5321249 151.397405,38.6942135 L149.31579,38.6942135 C148.89926,37.661536 148.690995,37.1457069 148.274465,36.1130294 L150.253501,36.1130294 C150.323959,36.2751179 150.359188,36.356672 150.429646,36.5187605" id="Fill-33" fill="#8291AA" mask="url(#mask-2)"></path>
                        <path d="M156.007834,36.5262023 L155.32087,36.5262023 C155.499087,36.8728068 155.588195,37.0461091 155.766412,37.3927136 L156.466846,37.3927136 C156.808773,37.3927136 156.936219,37.223489 156.794267,36.9574191 C156.64299,36.674019 156.357014,36.5262023 156.007834,36.5262023 M157.72887,38.6934999 C157.263641,38.3346623 157.033617,38.1542241 156.575641,37.7943671 L155.972605,37.7943671 C156.157039,38.1542241 156.250292,38.3346623 156.434725,38.6934999 L155.946701,38.6934999 C155.423448,37.6618418 155.16234,37.1449933 154.640123,36.1133352 L155.829617,36.1133352 C156.443014,36.1133352 156.990099,36.4262987 157.263641,36.9319335 C157.494701,37.3590726 157.366219,37.6169871 157.035689,37.7168908 C157.539255,38.1073305 157.793111,38.3030601 158.304966,38.6934999 L157.72887,38.6934999" id="Fill-34" fill="#8291AA" mask="url(#mask-2)"></path>
                        <path d="M162.69221,36.636708 C162.767848,37.0495751 162.805149,37.2565184 162.874571,37.6693855 L163.816427,37.6693855 C163.363631,37.2565184 163.138788,37.0495751 162.69221,36.636708 M165.447318,38.6939077 L164.931318,38.6939077 C164.657776,38.445168 164.521005,38.3197787 164.249535,38.071039 L162.948137,38.071039 C162.989583,38.3197787 163.00927,38.445168 163.048643,38.6939077 L162.548186,38.6939077 C162.405198,37.6540942 162.323342,37.1341874 162.140981,36.0943739 L162.575125,36.0943739 C163.528378,36.9670017 164.48474,37.8324936 165.447318,38.6939077" id="Fill-35" fill="#8291AA" mask="url(#mask-2)"></path>
                        <path d="M168.029287,36.1133352 L168.49866,36.1133352 C169.130708,36.9798465 169.446733,37.4141215 170.079817,38.2806328 L171.531455,38.2806328 C171.655793,38.4457796 171.717961,38.5283531 171.842299,38.6934999 L169.893311,38.6934999 C169.147287,37.6618418 168.774275,37.1449933 168.029287,36.1133352" id="Fill-36" fill="#8291AA" mask="url(#mask-2)"></path>
                        <polygon id="Fill-37" fill="#8291AA" mask="url(#mask-2)" points="153.070467 19.8581955 158.50919 29.4978785 166.982781 29.4978785 170.438323 34.4267984 154.784251 34.4267984 147.980925 19.8581955"></polygon>
                        <path d="M143.063176,25.8833032 C142.547176,25.6039807 141.972116,25.3654353 141.345248,25.1595114 C140.723561,24.954607 140.049031,24.7813047 139.326839,24.6294104 C138.609827,24.4785355 137.844116,24.3490685 137.039031,24.2328541 C136.587272,24.1665915 136.218405,24.1023677 135.917923,24.0381439 C135.617441,23.9739201 135.385345,23.9086769 135.208164,23.8413949 C135.029947,23.7751322 134.906646,23.7047919 134.822718,23.6293545 C134.73879,23.5549364 134.695272,23.4744019 134.677658,23.3857119 L134.670405,23.3490126 C134.654863,23.2705169 134.663152,23.1981377 134.698381,23.1328945 C134.732573,23.0686707 134.79267,23.0115829 134.879706,22.9646894 C134.966742,22.9177958 135.079682,22.8810965 135.22267,22.8556109 C135.364622,22.8311447 135.535586,22.8168727 135.736598,22.8168727 C136.10961,22.8168727 136.509561,22.8413389 136.925055,22.8902713 C137.342622,22.9402232 137.776766,23.0156606 138.220236,23.1186225 C138.665778,23.2215845 139.121682,23.3530903 139.578622,23.5151789 C140.037634,23.6782869 140.50079,23.8719776 140.956694,24.1003288 L142.525417,21.4131245 L144.448501,26.8690872 C144.048549,26.4908805 143.584357,26.1656839 143.063176,25.8833032 L143.063176,25.8833032 Z M108.540911,24.5213514 L108.530549,24.5600895 C108.475634,24.7690716 108.375128,24.9566458 108.234212,25.1217927 C108.093296,25.287959 107.910935,25.4306785 107.692308,25.5468929 C107.473682,25.6631074 107.21879,25.7528168 106.933851,25.8139823 C106.647875,25.8751478 106.332887,25.90675 105.993031,25.90675 L103.542549,25.90675 L104.450212,23.2572643 L106.812622,23.2572643 C107.125537,23.2572643 107.403224,23.2817305 107.640501,23.3337212 C107.878814,23.3846925 108.076718,23.4621688 108.227995,23.5651307 C108.380308,23.669112 108.487031,23.7995984 108.540911,23.9586287 C108.595827,24.1176591 108.597899,24.3052333 108.540911,24.5213514 L108.540911,24.5213514 Z M97.1930554,27.4318098 C97.1163807,27.2472939 97.0075855,27.0790887 96.8708145,26.9271944 C96.7350795,26.7753001 96.5713687,26.6386971 96.3817542,26.5163661 C96.1931759,26.3930157 95.978694,26.2839372 95.742453,26.1860724 C95.506212,26.089227 95.2471759,26.0025759 94.9674169,25.926119 C95.3818747,25.8211183 95.7797542,25.6967484 96.1569108,25.5509706 C96.5319952,25.4072317 96.8863566,25.2420848 97.2158506,25.0565495 C97.5422361,24.8720336 97.8437542,24.6681486 98.1152241,24.4418362 C98.3846217,24.2185821 98.6250072,23.9739201 98.8312,23.709889 L97.1930554,27.4318098 Z M93.5541157,23.7965402 L93.5344289,23.8352783 C93.4556819,23.9810561 93.3510313,24.1115425 93.219441,24.2257181 C93.0868145,24.3388743 92.9272482,24.4357197 92.739706,24.5142154 C92.5521639,24.5927111 92.3376819,24.6528572 92.0952241,24.6926148 C91.8517301,24.7333918 91.5823325,24.7537803 91.284959,24.7537803 L88.8583084,24.7537803 L89.9783807,22.9076016 L92.302453,22.9076016 C92.5905012,22.9076016 92.8319229,22.9269706 93.0267181,22.9646894 C93.2215133,23.0034275 93.3707181,23.0594959 93.4743325,23.1339139 C93.5789831,23.2093514 93.6370072,23.302119 93.6504771,23.4122169 C93.663947,23.5233343 93.6318265,23.6517818 93.5541157,23.7965402 L93.5541157,23.7965402 Z M91.334694,28.8202667 L91.3108627,28.8651214 C91.2227904,29.0333265 91.0994892,29.1892985 90.9419952,29.3299792 C90.7845012,29.4706598 90.5938506,29.5950297 90.3731518,29.6979916 C90.1514169,29.801973 89.8996337,29.883527 89.6198747,29.9406148 C89.3390795,29.9966831 89.0323807,30.0272659 88.7008145,30.0272659 L85.6618024,30.0272659 L87.070959,27.7019574 L90.0218988,27.7019574 C90.3410313,27.7019574 90.604212,27.7305013 90.8135133,27.7835114 C91.0228145,27.8355021 91.1803084,27.9129784 91.2859952,28.0108432 C91.3927181,28.108708 91.4486699,28.2269613 91.456959,28.3625448 C91.464212,28.4991478 91.4227663,28.653081 91.334694,28.8202667 L91.334694,28.8202667 Z M147.067875,19.8585013 L141.978333,19.8585013 L142.435272,21.1552099 C141.902694,20.8983148 141.359754,20.6750608 140.802308,20.4854477 C140.247971,20.2968541 139.678092,20.1408821 139.084381,20.0175316 C138.494814,19.8931618 137.880381,19.8014135 137.236935,19.7392286 C136.594525,19.6780631 135.922067,19.6474803 135.211272,19.6474803 C134.847586,19.6474803 134.501513,19.6607329 134.170983,19.6862185 C133.093393,21.7852146 131.46561,23.5641113 129.473104,24.8404314 C129.598477,25.1156761 129.75908,25.3705324 129.955947,25.6050002 C130.386983,26.1218486 130.979658,26.5438906 131.691489,26.8945728 C132.412646,27.2503521 133.251923,27.5327329 134.166839,27.7702589 C135.089007,28.0098238 136.085778,28.2014757 137.11467,28.3768168 C137.607875,28.4593902 138.017152,28.5368665 138.355971,28.6143428 C138.69479,28.6918191 138.963152,28.768276 139.173489,28.8508494 C139.383827,28.9334228 139.53614,29.0210934 139.644935,29.1189582 C139.75373,29.2178424 139.816935,29.3269209 139.850092,29.4512908 C139.879104,29.5603692 139.875995,29.658234 139.837658,29.7428463 C139.79932,29.828478 139.725754,29.9018766 139.614887,29.9610033 C139.502983,30.0201299 139.353778,30.066004 139.164164,30.0965868 C138.974549,30.128189 138.744525,30.1434803 138.470983,30.1434803 C137.937369,30.1434803 137.388212,30.1088199 136.82973,30.0354213 C136.27332,29.9620227 135.707586,29.8509054 135.141851,29.6979916 C134.579224,29.5460973 134.016598,29.3544454 133.461224,29.1189582 C132.909995,28.8844904 132.369128,28.6092457 131.842766,28.2891462 L130.164212,30.3137243 L127.607007,25.8394679 C126.005128,26.5408323 124.239537,26.9445246 122.380694,26.9791851 L122.87908,28.1576404 L119.653561,28.1576404 L120.29908,26.8609318 C118.592549,26.6336 116.987561,26.0933047 115.545248,25.2991726 L111.504284,31.5645588 L109.869248,28.6428867 C110.457778,28.4155549 110.999682,28.149485 111.48667,27.8436575 C111.969513,27.5419077 112.397441,27.2014197 112.762164,26.8242325 C113.122742,26.4521423 113.420116,26.0433529 113.649104,25.6009225 C113.848043,25.2155798 113.99414,24.8037321 114.082212,24.3674182 C112.503128,23.2124096 111.189296,21.7250685 110.248477,20.0114151 C110.098236,19.9879683 109.944887,19.9675798 109.784284,19.9492301 C109.242381,19.8901035 108.638308,19.8585013 107.963778,19.8585013 L100.525296,19.8585013 L99.5813687,22.0054104 C99.590694,21.8902154 99.5896578,21.7811369 99.5782602,21.678175 C99.5668627,21.5752131 99.5461398,21.4773483 99.5160916,21.3856 C99.4860434,21.2948712 99.4487422,21.2092395 99.4031518,21.1287049 C99.3575614,21.0481703 99.3047181,20.9737523 99.2446217,20.9044314 C99.0974892,20.7311291 98.9130554,20.5792348 98.688212,20.4487484 C98.4644048,20.318262 98.1981157,20.2091835 97.8852,20.1225324 C97.5733205,20.0348618 97.2137783,19.9685992 96.8003566,19.9247639 C96.3879711,19.8809287 95.9206699,19.8585013 95.3932723,19.8585013 L86.8668386,19.8585013 L76.6545976,34.4271043 L87.4439711,34.4271043 C88.2739229,34.4271043 89.0686458,34.3649193 89.8219229,34.2476855 C90.5720916,34.1304516 91.2787422,33.9602076 91.936694,33.7420507 C92.5894651,33.5249131 93.1925012,33.2619015 93.7395855,32.9611711 C94.2825253,32.663499 94.7705494,32.3291276 95.1995133,31.9641734 L94.115706,34.4271043 L100.622694,34.4271043 L102.31161,29.4981843 L103.599537,29.4981843 L105.682188,34.4271043 L116.610405,34.4271043 L117.82373,32.0161641 L124.390814,32.0161641 L125.451827,34.4271043 L132.513152,34.4271043 L131.926694,33.4005433 C132.467561,33.6237974 133.030188,33.8215658 133.611465,33.9918098 C134.196887,34.1630732 134.799923,34.3078315 135.417465,34.4230266 C136.03708,34.5402605 136.6712,34.627931 137.31361,34.6860382 C137.958092,34.7451649 138.610863,34.7747282 139.267778,34.7747282 C140.23761,34.7747282 141.121441,34.6931742 141.908911,34.5341439 C142.693272,34.376133 143.378164,34.1437041 143.956333,33.8429737 C144.528284,33.5453016 144.992477,33.1823863 145.341658,32.7623832 C145.685658,32.3464578 145.916718,31.8765029 146.029658,31.358635 L147.110357,34.4271043 L153.617345,34.4271043 L147.067875,19.8585013 L147.067875,19.8585013 Z" id="Fill-38" fill="#8291AA" mask="url(#mask-2)"></path>
                        <path d="M123.382439,10.1120845 C116.369812,7.73682424 109.94468,7.92847615 109.029764,10.5412625 C108.824607,11.1264124 108.914752,11.784961 109.255643,12.4791894 C109.269113,12.3446253 109.284655,12.2100612 109.30227,12.0765166 C109.149957,11.5973868 109.137523,11.1447621 109.282583,10.7298561 C110.159161,8.22716768 116.425764,8.0813899 123.280896,10.4036401 C130.134993,12.7248709 134.982077,16.6364047 134.106535,19.1390931 C133.961475,19.5529796 133.668246,19.9026424 133.25068,20.187062 C133.180222,20.3032765 133.108728,20.4194909 133.034125,20.5336665 C133.736631,20.1921591 134.219475,19.7293402 134.423595,19.1441902 C135.338511,16.5314039 130.395065,12.4873448 123.382439,10.1120845" id="Fill-39" fill="#8291AA" mask="url(#mask-2)"></path>
                        <path d="M111.189814,7.82102875 C111.183598,7.88117483 111.189814,7.93214608 111.207429,7.97292308 C111.225043,8.01370008 111.2582,8.04122455 111.304827,8.0554965 C111.352489,8.06976845 111.417766,8.0636519 111.501694,8.03816628 C111.584586,8.01370008 111.66126,7.97598135 111.730682,7.92704895 C111.800104,7.87811655 111.861236,7.82204817 111.916152,7.75884382 C111.971067,7.6966589 112.017694,7.62937685 112.057067,7.55903652 C112.096441,7.48971562 112.127525,7.41937529 112.152393,7.35107382 C112.17726,7.27869464 112.193839,7.21141259 112.200055,7.14922766 C112.207308,7.08704274 112.202128,7.03403263 112.184513,6.99223621 C112.166899,6.95043978 112.134778,6.92291531 112.087116,6.90864336 C112.039453,6.89539083 111.974176,6.90048796 111.891284,6.92597358 C111.807357,6.95145921 111.730682,6.98815851 111.66126,7.03709091 C111.592875,7.08602331 111.530706,7.14209169 111.47579,7.20631546 C111.420875,7.27053924 111.373212,7.33782129 111.333839,7.41020047 C111.293429,7.48257964 111.260272,7.55495882 111.235405,7.627338 C111.211573,7.6966589 111.196031,7.76088267 111.189814,7.82102875 M111.04061,7.38063714 C111.115212,7.26442269 111.201212,7.15636364 111.299646,7.05645998 C111.39808,6.95757576 111.506875,6.86990521 111.624995,6.79446775 C111.744152,6.7190303 111.867453,6.66092308 111.996971,6.62218493 C112.127525,6.58242735 112.23632,6.57019425 112.323357,6.58344678 C112.410393,6.5966993 112.47567,6.63237918 112.519188,6.68946698 C112.562706,6.74553535 112.584465,6.8209728 112.585501,6.91475991 C112.586537,7.00854701 112.565814,7.11660606 112.523333,7.23893706 C112.480851,7.35820979 112.422827,7.47544367 112.34926,7.59063869 C112.275694,7.70583372 112.189694,7.81185392 112.09126,7.90971873 C111.993863,8.00758353 111.886104,8.09423465 111.769019,8.16865268 C111.650899,8.24307071 111.526561,8.30015851 111.396007,8.33991608 C111.266489,8.37865423 111.15873,8.39190676 111.070658,8.37967366 C110.982586,8.36642113 110.916272,8.33278011 110.872754,8.27773116 C110.8282,8.22268221 110.805405,8.14826418 110.804369,8.05651593 C110.802296,7.96476768 110.823019,7.85874747 110.864465,7.73947475 C110.906947,7.61612432 110.966007,7.49685159 111.04061,7.38063714" id="Fill-40" fill="#8291AA" mask="url(#mask-2)"></path>
                        <path d="M113.519482,7.07103776 C113.607554,7.06186294 113.68112,7.03637731 113.738108,6.99560031 C113.795096,6.95380389 113.837578,6.89263838 113.86659,6.80904553 C113.894566,6.72953038 113.89353,6.67448143 113.86141,6.64287925 C113.829289,6.61127708 113.769193,6.6000634 113.68112,6.60923823 L113.258373,6.65205408 L113.096735,7.11385361 L113.519482,7.07103776 Z M113.917361,6.3146244 C113.996108,6.306469 114.062422,6.31156612 114.117337,6.32889635 C114.172253,6.34622657 114.214735,6.37273162 114.244783,6.40943092 C114.275867,6.44613023 114.293482,6.49098493 114.297627,6.5429756 C114.302807,6.59496628 114.294518,6.65205408 114.272759,6.71525843 C114.238566,6.81108438 114.187795,6.89773551 114.11941,6.97215354 C114.051024,7.04759099 113.961916,7.10773706 113.850012,7.15463061 L113.848976,7.15972774 C113.892494,7.16686371 113.924614,7.18113566 113.94741,7.20356301 C113.969169,7.22599037 113.984711,7.25351484 113.991964,7.28511702 C113.999217,7.31773862 114.000253,7.35443792 113.995072,7.39521492 C113.989892,7.43497249 113.981602,7.47574949 113.970205,7.51754592 C113.962952,7.54303155 113.953627,7.5736143 113.943265,7.60827475 C113.931867,7.64395462 113.922542,7.6796345 113.913217,7.71531437 C113.904928,7.75201368 113.898711,7.78667413 113.896639,7.8182763 C113.894566,7.8508979 113.897675,7.87740295 113.908036,7.89779145 L113.521554,7.93754903 C113.518446,7.8875972 113.527771,7.82745113 113.547458,7.75507195 C113.568181,7.6837122 113.584759,7.61541072 113.598229,7.55118695 C113.614807,7.46657467 113.60859,7.40642859 113.580614,7.37074872 C113.551602,7.33506884 113.489434,7.32283574 113.392036,7.33201057 L113.00659,7.37176814 L112.781747,8.01298648 L112.396301,8.05274406 L112.970325,6.41146977 L113.917361,6.3146244 L113.917361,6.3146244 Z" id="Fill-41" fill="#8291AA" mask="url(#mask-2)"></path>
                        <path d="M114.905843,7.60562424 C114.961795,7.60664367 115.018783,7.59848827 115.077843,7.58217747 C115.136904,7.56586667 115.192855,7.53834219 115.247771,7.49960404 C115.302687,7.46086589 115.353458,7.41091406 115.400084,7.34770971 C115.446711,7.28552479 115.486084,7.20906791 115.518205,7.11833908 C115.547217,7.03576566 115.564831,6.96134763 115.570012,6.89406558 C115.576229,6.82780295 115.56794,6.76969573 115.545145,6.72178275 C115.522349,6.67386977 115.482976,6.63717047 115.425988,6.61066542 C115.370036,6.5851798 115.294398,6.57090785 115.199072,6.56988842 L114.922422,6.56683015 L114.559771,7.60154654 L114.905843,7.60562424 Z M115.40112,6.26813862 C115.515096,6.26915804 115.614566,6.28750769 115.701602,6.32216814 C115.787602,6.35682859 115.854952,6.40881927 115.902614,6.47712075 C115.950277,6.54542222 115.977217,6.6300345 115.982398,6.731977 C115.987578,6.8339195 115.965819,6.9521728 115.918157,7.08877576 C115.875675,7.20804848 115.820759,7.31814639 115.752373,7.41906946 C115.683988,7.51999254 115.604205,7.60664367 115.510952,7.68004227 C115.418735,7.75242145 115.31512,7.80950925 115.201145,7.85028625 C115.087169,7.89106325 114.961795,7.91145175 114.827096,7.9094129 L114.06553,7.90023807 L114.64059,6.25896379 L115.40112,6.26813862 L115.40112,6.26813862 Z" id="Fill-42" fill="#8291AA" mask="url(#mask-2)"></path>
                        <polygon id="Fill-43" fill="#8291AA" mask="url(#mask-2)" points="117.695663 6.41595524 117.589976 6.7197439 116.66159 6.63513162 116.538289 6.98683326 117.39 7.06430956 117.291566 7.34465144 116.440892 7.26717514 116.299976 7.66984802 117.247012 7.75547972 117.141325 8.05926838 115.806771 7.9379568 116.381831 6.29668252"></polygon>
                        <polygon id="Fill-44" fill="#8291AA" mask="url(#mask-2)" points="118.426145 6.52065019 118.438578 7.71541632 118.442723 7.71643574 119.22294 6.65011717 119.761735 6.73778772 119.187711 8.379062 118.829205 8.32095478 119.23641 7.15779083 119.231229 7.15677141 118.398169 8.25061445 118.102867 8.20270148 118.079036 6.9814303 118.074892 6.9814303 117.670795 8.13236115 117.313325 8.07425392 117.887349 6.43297964"></polygon>
                        <polygon id="Fill-45" fill="#8291AA" mask="url(#mask-2)" points="121.885728 7.23842735 121.780041 7.54221601 120.875487 7.32100078 120.752186 7.67270241 121.582137 7.87556799 121.483704 8.15590987 120.653752 7.95304429 120.513872 8.35469775 121.437077 8.5810101 121.330354 8.88479876 120.031029 8.56673815 120.605053 6.92546387"></polygon>
                        <path d="M123.049318,8.43309153 C123.0918,8.44634406 123.133246,8.45551888 123.174692,8.46163543 C123.216137,8.46775198 123.255511,8.46673256 123.29074,8.45857716 C123.327005,8.45042176 123.360161,8.43309153 123.389173,8.40658648 C123.418186,8.38008143 123.442017,8.34032385 123.460667,8.28833318 C123.479318,8.2363425 123.484499,8.1914878 123.477246,8.15376908 C123.471029,8.11605035 123.455487,8.08342875 123.431655,8.05590427 C123.407824,8.02939922 123.377776,8.00697187 123.340475,7.98862222 C123.303173,7.97027257 123.2638,7.95396177 123.221318,7.94070925 L122.934306,7.85201927 L122.762306,8.34338213 L123.049318,8.43309153 Z M123.421294,7.69196954 C123.525945,7.72459114 123.610908,7.76740699 123.674113,7.82041709 C123.737318,7.8734272 123.783945,7.93153442 123.812957,7.99473877 C123.841969,8.05896255 123.856475,8.12522517 123.855439,8.19454608 C123.854402,8.26386698 123.841969,8.33216845 123.819173,8.39945051 C123.795342,8.46571313 123.762186,8.52687863 123.718667,8.58396643 C123.675149,8.64105423 123.622306,8.68692836 123.558065,8.72158881 C123.49486,8.75624926 123.421294,8.77663776 123.33633,8.78377374 C123.252402,8.79090971 123.158113,8.77765719 123.052427,8.74503559 L122.663872,8.62372401 L122.45768,9.21295167 L122.087776,9.09775664 L122.6618,7.45648236 L123.421294,7.69196954 L123.421294,7.69196954 Z" id="Fill-46" fill="#8291AA" mask="url(#mask-2)"></path>
                        <path d="M124.618455,8.92893986 C124.702383,8.95952261 124.770769,8.96360031 124.825684,8.94117296 C124.8806,8.91976503 124.922046,8.86777436 124.951058,8.78418151 C124.979034,8.70466636 124.977998,8.63942315 124.948986,8.5884519 C124.919973,8.53748065 124.864022,8.49670365 124.780094,8.46714033 L124.381178,8.3234014 L124.21954,8.78520093 L124.618455,8.92893986 Z M125.008046,8.23267257 C125.082648,8.26019705 125.145853,8.29587692 125.196624,8.34073162 C125.247395,8.38660575 125.287805,8.437577 125.315781,8.49364538 C125.343757,8.55073318 125.359299,8.60985983 125.362407,8.67306418 C125.366552,8.73524911 125.357227,8.79743403 125.334431,8.86063838 C125.301275,8.95748376 125.25154,9.03292121 125.186263,9.08898959 C125.119949,9.14505796 125.033949,9.17462129 124.928263,9.17767956 L124.927227,9.18277669 C124.967636,9.21030117 124.997684,9.24292277 125.018407,9.27860264 C125.03913,9.31428252 125.0526,9.35302067 125.058817,9.39379767 C125.06607,9.43559409 125.06607,9.47840995 125.059853,9.52224522 C125.053636,9.56709992 125.045347,9.6109352 125.033949,9.65273162 C125.026696,9.6802561 125.017371,9.71083885 125.00701,9.74651873 C124.995612,9.7821986 124.985251,9.81991733 124.976961,9.85763605 C124.967636,9.89535478 124.961419,9.9330735 124.958311,9.96875338 C124.955202,10.0054527 124.958311,10.0370549 124.967636,10.0666182 L124.602913,9.93511235 C124.601877,9.8759857 124.611202,9.80972308 124.630889,9.73632448 C124.651612,9.66190645 124.669227,9.5905467 124.682696,9.5212258 C124.700311,9.43151639 124.696166,9.35913722 124.670263,9.30408827 C124.643323,9.25005874 124.585299,9.20622347 124.493082,9.17360186 L124.129395,9.04311546 L123.904552,9.6843338 L123.539829,9.55282797 L124.114889,7.91155369 L125.008046,8.23267257 L125.008046,8.23267257 Z" id="Fill-47" fill="#8291AA" mask="url(#mask-2)"></path>
                        <path d="M125.61419,9.63010039 C125.606937,9.70146014 125.612118,9.77078104 125.628696,9.83806309 C125.645275,9.90432572 125.676359,9.96549122 125.721949,10.0195207 C125.766504,10.0745697 125.829708,10.118405 125.909492,10.152046 C125.990311,10.185687 126.063877,10.1979201 126.131227,10.1897647 C126.198576,10.1816093 126.258672,10.159182 126.311516,10.1214632 C126.364359,10.0837445 126.410986,10.0358315 126.449323,9.97772432 C126.488696,9.91859767 126.519781,9.85539332 126.543612,9.78607242 C126.569516,9.71471267 126.585058,9.64131406 126.593347,9.56689604 C126.6006,9.49349744 126.596455,9.42213768 126.579877,9.35485563 C126.563299,9.28757358 126.533251,9.22640808 126.48766,9.17135913 C126.44207,9.1173296 126.379901,9.0724749 126.299082,9.0398533 C126.219299,9.00621228 126.144696,8.99295975 126.078383,9.00111515 C126.011034,9.00927055 125.950937,9.03271733 125.897058,9.07043605 C125.844214,9.1091742 125.797588,9.15912603 125.758214,9.21927211 C125.717805,9.28043761 125.685684,9.34670023 125.660817,9.41907941 C125.636986,9.48840031 125.621443,9.55874064 125.61419,9.63010039 M125.477419,8.95218275 C125.550986,8.86145392 125.634913,8.79213302 125.730239,8.7421812 C125.8266,8.69222937 125.931251,8.66572432 126.046263,8.66266605 C126.161275,8.65960777 126.281467,8.68407397 126.405805,8.73606465 C126.531178,8.78805532 126.635829,8.85737622 126.71872,8.94300793 C126.801612,9.02863963 126.863781,9.12446558 126.905227,9.23048578 C126.945636,9.33752541 126.966359,9.45068159 126.966359,9.57097374 C126.965323,9.69126589 126.9446,9.81257747 126.901082,9.93490847 C126.859636,10.0541812 126.801612,10.1581625 126.729082,10.2468525 C126.656552,10.3345231 126.572624,10.4028246 126.478335,10.451757 C126.38301,10.4996699 126.278359,10.5251556 126.164383,10.5282138 C126.050407,10.5302527 125.930214,10.5057865 125.804841,10.4527764 C125.680504,10.4018051 125.575853,10.3335037 125.491925,10.247872 C125.407998,10.1632597 125.344793,10.0684531 125.303347,9.96345237 C125.261901,9.85845159 125.241178,9.74631484 125.241178,9.62704211 C125.240142,9.50878881 125.261901,9.38951608 125.303347,9.27024336 C125.345829,9.14791235 125.403853,9.04189215 125.477419,8.95218275" id="Fill-48" fill="#8291AA" mask="url(#mask-2)"></path>
                        <path d="M127.721294,11.2635251 C127.634258,11.2604668 127.552402,11.2400783 127.475728,11.2023596 C127.354499,11.1442524 127.252957,11.0698343 127.171101,10.9791055 C127.089246,10.8893961 127.029149,10.7894925 126.98874,10.680414 C126.949366,10.5723549 126.92968,10.4571599 126.930716,10.3368678 C126.930716,10.2165756 126.952475,10.0962834 126.99392,9.97701072 C127.037439,9.8536603 127.094427,9.74865952 127.166957,9.66098897 C127.239487,9.57331841 127.322378,9.50603636 127.416667,9.46016224 C127.50992,9.41428811 127.613535,9.39186076 127.725439,9.39389961 C127.838378,9.39695789 127.955463,9.42652121 128.076692,9.48564786 C128.157511,9.52438601 128.232113,9.57535726 128.299463,9.63754219 C128.366812,9.69972712 128.422764,9.77006744 128.467318,9.84856317 C128.510836,9.9270589 128.540884,10.0116712 128.55539,10.1034194 C128.569896,10.1941483 128.565752,10.2889548 128.54192,10.3868196 L128.208282,10.2267699 C128.220716,10.1248274 128.204137,10.0361374 128.161655,9.96171935 C128.118137,9.88730132 128.054933,9.82919409 127.969969,9.78841709 C127.892258,9.75069837 127.819728,9.73438757 127.754451,9.73948469 C127.688137,9.74458182 127.629077,9.76497032 127.576234,9.80166962 C127.524427,9.83836892 127.478836,9.8862819 127.439463,9.94642797 C127.400089,10.006574 127.367969,10.0728367 127.343101,10.1441964 C127.318234,10.2135173 127.302692,10.2838577 127.295439,10.3572563 C127.288186,10.4296354 127.29233,10.4999758 127.307872,10.5682772 C127.324451,10.6375981 127.353463,10.7008025 127.398017,10.7578903 C127.441535,10.8159975 127.502667,10.8639105 127.580378,10.9016292 C127.696427,10.9576976 127.795896,10.9699307 127.879824,10.9393479 C127.963752,10.9097846 128.031101,10.8394443 128.081872,10.7293464 L127.731655,10.5601218 L127.825945,10.2909936 L128.491149,10.6121125 L128.180306,11.5000317 L127.958571,11.3929921 L127.988619,11.1891071 C127.897439,11.2421172 127.80833,11.2665834 127.721294,11.2635251" id="Fill-49" fill="#8291AA" mask="url(#mask-2)"></path>
                        <path d="M129.360164,11.0771742 C129.437875,11.1199901 129.502116,11.134262 129.553923,11.1189706 C129.60573,11.1036793 129.64614,11.0547469 129.675152,10.9721734 C129.702092,10.8916389 129.703128,10.8233374 129.677224,10.7662496 C129.65132,10.7081423 129.599513,10.6581905 129.521802,10.6153747 L129.151899,10.4094508 L128.99026,10.8712503 L129.360164,11.0771742 Z M129.740429,10.4012954 C129.809851,10.4400336 129.866839,10.4859077 129.914501,10.5409566 C129.961128,10.5949862 129.997393,10.6541128 130.02226,10.7173172 C130.047128,10.7805215 130.060598,10.8457647 130.061634,10.9110079 C130.063706,10.9772706 130.053345,11.0414943 130.031586,11.1046987 C129.998429,11.2005246 129.94973,11.2739232 129.887561,11.3228556 C129.824357,11.3728075 129.743537,11.3921765 129.644067,11.3809629 L129.643031,11.3850406 C129.680333,11.4207204 129.708308,11.4584392 129.726959,11.4992162 C129.744573,11.5399932 129.757007,11.5817896 129.762188,11.6256249 C129.767369,11.6694601 129.766333,11.7153343 129.760116,11.760189 C129.752863,11.8060631 129.743537,11.8509178 129.73214,11.8937336 C129.724887,11.9202387 129.715561,11.9518409 129.704164,11.9885402 C129.693802,12.02422 129.683441,12.0619388 129.674116,12.1006769 C129.66479,12.1394151 129.658573,12.1771338 129.654429,12.2148525 C129.65132,12.2515518 129.653393,12.2862123 129.660646,12.3178145 L129.322863,12.1302402 C129.322863,12.0680553 129.333224,11.9997538 129.353947,11.9253358 C129.37467,11.8509178 129.392284,11.7785386 129.40679,11.7071789 C129.425441,11.6154306 129.423369,11.5389737 129.399537,11.4778082 C129.376742,11.4176622 129.322863,11.3636326 129.237899,11.3167391 L128.900116,11.1291649 L128.675272,11.7703832 L128.337489,11.582809 L128.912549,9.94153473 L129.740429,10.4012954 L129.740429,10.4012954 Z" id="Fill-50" fill="#8291AA" mask="url(#mask-2)"></path>
                        <polygon id="Fill-51" fill="#8291AA" mask="url(#mask-2)" points="131.448824 11.4538517 131.343137 11.7576404 130.561884 11.2571027 130.438583 11.6088044 131.155595 12.0675456 131.057161 12.3478875 130.341186 11.8891462 130.20027 12.2918191 130.997065 12.802551 130.891378 13.1053203 129.768198 12.3866256 130.343258 10.7453514"></polygon>
                        <path d="M131.410176,12.9777902 C131.413284,13.0287615 131.425718,13.0766744 131.445405,13.1215291 C131.465092,13.1663838 131.492031,13.2091997 131.526224,13.2489573 C131.559381,13.2897343 131.596682,13.3243947 131.638128,13.3549775 C131.665067,13.375366 131.696152,13.3957545 131.729308,13.4130847 C131.762465,13.4314343 131.795622,13.4436674 131.827742,13.4487646 C131.860899,13.4538617 131.890947,13.4508034 131.918923,13.4375509 C131.946899,13.4242984 131.967622,13.3967739 131.982128,13.3559969 C131.99767,13.3111422 131.998706,13.2662875 131.9842,13.2204134 C131.969694,13.1745392 131.945863,13.1276457 131.912706,13.0797327 C131.879549,13.0318197 131.841212,12.9818679 131.795622,12.9308967 C131.751067,12.8799254 131.706513,12.8269153 131.660923,12.7718664 C131.614296,12.7168174 131.569742,12.6597296 131.52726,12.5995835 C131.485814,12.5404569 131.451622,12.478272 131.424682,12.4130287 C131.397742,12.348805 131.381164,12.2805035 131.374947,12.2091437 C131.369766,12.1388034 131.380128,12.0654048 131.406031,11.9899674 C131.43608,11.9063745 131.476489,11.8441896 131.529333,11.8054514 C131.58114,11.7667133 131.6402,11.7453054 131.704441,11.7412277 C131.768682,11.73715 131.834995,11.7483636 131.905453,11.7758881 C131.974875,11.8034126 132.041188,11.8411313 132.104393,11.8880249 C132.176923,11.9430738 132.244272,12.0052587 132.305405,12.0755991 C132.365501,12.14492 132.415236,12.2213768 132.452537,12.3039503 C132.489839,12.3855043 132.511598,12.4721554 132.518851,12.5618648 C132.52714,12.6515742 132.51367,12.7443419 132.480513,12.8391484 L132.182104,12.6148749 C132.19661,12.5639037 132.20179,12.5159907 132.198682,12.4731748 C132.194537,12.4293395 132.18314,12.3885625 132.164489,12.3518632 C132.146875,12.3151639 132.123043,12.2805035 132.092995,12.2489013 C132.063983,12.2172991 132.02979,12.1867164 131.992489,12.1581725 C131.967622,12.1398228 131.941718,12.123512 131.914778,12.1112789 C131.887839,12.0990458 131.860899,12.0929293 131.834995,12.0929293 C131.810128,12.0929293 131.786296,12.0990458 131.765573,12.1122984 C131.743814,12.1255509 131.727236,12.1500171 131.714802,12.1846775 C131.703405,12.2172991 131.700296,12.2468625 131.703405,12.2743869 C131.706513,12.3029308 131.721019,12.3365719 131.745887,12.3763294 C131.770754,12.416087 131.807019,12.4650194 131.855718,12.5231267 C131.904417,12.5812339 131.967622,12.6556519 132.046369,12.7474002 C132.0702,12.7739052 132.10232,12.8116239 132.143766,12.8625952 C132.184176,12.9135664 132.221477,12.9747319 132.254634,13.0440528 C132.288827,13.1133737 132.311622,13.19085 132.324055,13.2744429 C132.337525,13.3590552 132.327164,13.4467257 132.295043,13.538474 C132.26914,13.6139114 132.231839,13.6740575 132.184176,13.7199316 C132.137549,13.7658057 132.080561,13.7933302 132.015284,13.8035245 C131.950007,13.8126993 131.876441,13.8035245 131.794586,13.7749806 C131.71273,13.7464367 131.623622,13.6964848 131.528296,13.6241057 C131.451622,13.5659984 131.380128,13.4987164 131.315887,13.4222595 C131.25061,13.3447832 131.198802,13.2622098 131.159429,13.1725004 C131.121092,13.0838104 131.09726,12.9900233 131.091043,12.8911391 C131.08379,12.7932743 131.098296,12.6943901 131.135598,12.5944864 L131.434007,12.8187599 C131.41432,12.8738089 131.406031,12.926819 131.410176,12.9777902" id="Fill-52" fill="#8291AA" mask="url(#mask-2)"></path>
                        <path d="M132.645364,13.9612295 C132.647436,14.0142396 132.656761,14.0641915 132.674376,14.1121044 C132.69199,14.1600174 132.715822,14.2058915 132.746906,14.2497268 C132.776954,14.2935621 132.811147,14.3323002 132.848448,14.3669607 C132.873316,14.3904075 132.901292,14.4128348 132.93134,14.4342427 C132.962424,14.4556507 132.992472,14.470942 133.023557,14.4790974 C133.053605,14.4872528 133.081581,14.485214 133.107484,14.4740003 C133.134424,14.4627866 133.154111,14.4362816 133.168617,14.3955046 C133.184159,14.3506499 133.186231,14.3047758 133.173798,14.2558434 C133.161364,14.2079304 133.139605,14.1579786 133.110593,14.1059879 C133.081581,14.0539972 133.046352,13.9999677 133.005942,13.9438993 C132.965533,13.8878309 132.924087,13.8297237 132.883677,13.7695776 C132.841195,13.7094315 132.801822,13.6472466 132.763484,13.5820034 C132.726183,13.5177796 132.695099,13.4504976 132.672304,13.3821961 C132.648472,13.3138946 132.635002,13.2425349 132.631894,13.1691363 C132.627749,13.0947183 132.639147,13.0213197 132.665051,12.9458822 C132.695099,12.8612699 132.734472,12.8011239 132.784207,12.765444 C132.833942,12.7297641 132.888858,12.7124339 132.948954,12.7134533 C133.009051,12.7144727 133.071219,12.731803 133.13546,12.765444 C133.199701,12.799085 133.260834,12.8429203 133.317822,12.8959304 C133.384135,12.9591347 133.445267,13.0284556 133.500183,13.1049125 C133.555099,13.1813694 133.598617,13.2639428 133.631773,13.3516134 C133.66493,13.4382645 133.683581,13.5289933 133.687725,13.621761 C133.692906,13.7145287 133.6784,13.8093352 133.645243,13.9041417 L133.372737,13.6492855 C133.387243,13.5983142 133.39346,13.5504012 133.391388,13.5045271 C133.38828,13.4596724 133.378954,13.417876 133.363412,13.3781184 C133.346834,13.3383608 133.325075,13.3006421 133.299171,13.2659817 C133.272231,13.2313212 133.242183,13.1976802 133.206954,13.1650586 C133.184159,13.1436507 133.160328,13.125301 133.13546,13.1110291 C133.110593,13.0957377 133.086761,13.0865629 133.06293,13.0855434 C133.039099,13.0824852 133.016304,13.0875823 132.996617,13.0998154 C132.97693,13.1120485 132.960352,13.1354953 132.947918,13.1701557 C132.93652,13.2027773 132.932376,13.2333601 132.935484,13.261904 C132.937557,13.2904479 132.94999,13.3271472 132.972786,13.369963 C132.994545,13.4127789 133.027701,13.465789 133.071219,13.5289933 C133.114737,13.5921977 133.171725,13.6747711 133.243219,13.7756942 C133.264978,13.8032186 133.29399,13.8460345 133.331292,13.9010834 C133.367557,13.9571518 133.400713,14.022395 133.429725,14.0968131 C133.459773,14.1712311 133.47946,14.2517657 133.488786,14.3394362 C133.499147,14.4271068 133.487749,14.5168162 133.455629,14.6085644 C133.429725,14.6829824 133.39346,14.7421091 133.348906,14.7859444 C133.303316,14.8287602 133.249436,14.8532264 133.188304,14.8583235 C133.127171,14.8624012 133.059822,14.8471099 132.984183,14.81143 C132.908545,14.7757501 132.826689,14.7166235 132.739653,14.6350695 C132.669195,14.5698263 132.604954,14.4943888 132.54693,14.410796 C132.48787,14.3261837 132.441243,14.2364743 132.407051,14.1416678 C132.372858,14.0468612 132.354207,13.947977 132.350063,13.8470539 C132.345918,13.7451114 132.362496,13.6452078 132.398761,13.5442847 L132.671267,13.7991409 C132.651581,13.8541899 132.643292,13.9082194 132.645364,13.9612295" id="Fill-53" fill="#8291AA" mask="url(#mask-2)"></path>
                        <path d="M133.854337,14.90012 C133.841904,14.9786157 133.836723,15.0601697 133.840867,15.1417237 C133.845012,15.2242971 133.859518,15.3058511 133.883349,15.3863857 C133.908217,15.4659009 133.945518,15.5413383 133.996289,15.6106592 C134.04706,15.6809995 134.095759,15.7248348 134.142386,15.742165 C134.189012,15.7594953 134.23253,15.756437 134.27294,15.7350291 C134.313349,15.7136211 134.349614,15.6769218 134.382771,15.6249312 C134.415928,15.5739599 134.443904,15.5138138 134.467735,15.4444929 C134.493639,15.3731332 134.512289,15.2966763 134.526795,15.2151223 C134.540265,15.1335683 134.54441,15.0509949 134.541301,14.9684214 C134.538193,14.8848286 134.523687,14.8032746 134.498819,14.7237594 C134.474988,14.6432249 134.436651,14.5677874 134.38588,14.4984665 C134.335108,14.4281262 134.28641,14.3853103 134.239783,14.3679801 C134.193157,14.3506499 134.149639,14.3526887 134.109229,14.3751161 C134.068819,14.3985629 134.031518,14.4362816 133.998361,14.4892917 C133.964169,14.5433212 133.935157,14.6065256 133.909253,14.6778853 C133.885422,14.7472062 133.866771,14.8216242 133.854337,14.90012 M133.837759,14.0743857 C133.896819,14.0009871 133.962096,13.9540936 134.03359,13.9357439 C134.104048,13.9163748 134.177614,13.9286079 134.256361,13.9704044 C134.335108,14.0122008 134.413855,14.0866188 134.492602,14.1946779 C134.572386,14.3037563 134.63559,14.4240485 134.682217,14.5535155 C134.728843,14.6840019 134.759928,14.8175465 134.776506,14.9551689 C134.792048,15.0927913 134.793084,15.2293943 134.779614,15.3659972 C134.765108,15.5026002 134.737133,15.6330866 134.694651,15.7554176 C134.652169,15.8746903 134.601398,15.9705162 134.542337,16.041876 C134.483277,16.1142552 134.419036,16.1591099 134.348578,16.1764401 C134.279157,16.1937703 134.204554,16.1805178 134.126843,16.1387214 C134.049133,16.0969249 133.970386,16.0214875 133.891639,15.912409 C133.812892,15.80435 133.749687,15.6850772 133.702024,15.5556103 C133.654361,15.4251239 133.622241,15.2925986 133.605663,15.1559956 C133.589084,15.0204121 133.588048,14.8848286 133.600482,14.7502645 C133.613952,14.614681 133.641928,14.4872528 133.683373,14.3679801 C133.726892,14.2456491 133.777663,14.1477843 133.837759,14.0743857" id="Fill-54" fill="#8291AA" mask="url(#mask-2)"></path>
                        <path d="M127.077745,7.90910707 L126.492323,7.53293924 L125.91001,7.86017467 L126.057142,7.23118943 L125.532853,6.79691437 L126.199094,6.77856472 L126.440516,6.21278384 L126.715094,6.8142446 L127.38548,6.89885688 L126.887094,7.28012183 L127.077745,7.90910707 Z M122.122901,0.991288889 C117.782492,0.991288889 113.943576,3.09742098 111.599817,6.32594002 C114.113504,5.26777685 119.057986,5.60112883 124.336106,7.38920031 C129.61319,9.17727179 133.718395,11.9093308 135.037407,14.2662415 C135.045696,14.0817256 135.050877,13.8961902 135.050877,13.7096354 C135.050877,6.68579705 129.262973,0.991288889 122.122901,0.991288889 L122.122901,0.991288889 Z" id="Fill-55" fill="#8291AA" mask="url(#mask-2)"></path>
                        <path d="M133.352429,18.9615092 L133.134839,18.8075761 L132.862333,19.0216553 L132.974236,18.6719925 L132.771152,18.4701464 L133.07267,18.4110197 L133.215658,18.0623764 L133.289224,18.3916507 L133.570019,18.3783981 L133.329634,18.6240796 L133.352429,18.9615092 Z M132.103875,20.2959366 L131.825152,20.1195761 L131.477007,20.3723935 L131.616887,19.9697206 L131.353706,19.733214 L131.743296,19.658796 L131.925658,19.2581619 L132.024092,19.6322909 L132.386742,19.6129218 L132.06761,19.9136522 L132.103875,20.2959366 Z M131.4252,21.330653 L131.138188,21.1634673 L130.780718,21.4162847 L130.931995,21.0207478 L130.667778,20.7974937 L131.065658,20.7179786 L131.254236,20.3214222 L131.349561,20.6863764 L131.714284,20.6649685 L131.39308,20.9585629 L131.4252,21.330653 Z M130.219128,21.9209001 L129.951802,21.7781806 L129.637851,21.9861433 L129.761152,21.6538107 L129.524911,21.4621588 L129.873055,21.3999739 L130.042983,21.0645831 L130.1352,21.3734688 L130.474019,21.3540998 L130.179754,21.6028395 L130.219128,21.9209001 Z M128.937417,21.7261899 L128.988188,22.0493476 L128.703248,21.8974533 L128.367537,22.1064354 L128.494983,21.7669669 L128.238019,21.5661402 L128.611031,21.5080329 L128.781995,21.1655061 L128.883537,21.4845862 L129.24308,21.4743919 L128.937417,21.7261899 Z M128.851417,22.8842567 L128.903224,23.2349389 L128.584092,23.0718309 L128.199682,23.3073181 L128.349923,22.9382862 L128.052549,22.7272653 L128.479441,22.6610026 L128.685634,22.2797377 L128.795465,22.6243033 L129.204742,22.6059537 L128.851417,22.8842567 Z M128.654549,24.2992186 L128.390333,24.1911596 L128.070164,24.3726172 L128.199682,24.0820811 L127.965513,23.9250897 L128.316766,23.8578076 L128.494983,23.5642132 L128.574766,23.8313026 L128.909441,23.8098946 L128.617248,24.0300904 L128.654549,24.2992186 Z M127.403923,22.4703702 L127.099296,22.3042039 L126.761513,22.50605 L126.889995,22.1676009 L126.607128,21.9616771 L126.988429,21.9137641 L127.163537,21.575315 L127.280622,21.8954145 L127.649489,21.8923562 L127.344863,22.1339599 L127.403923,22.4703702 Z M126.103561,23.7640205 L125.740911,23.5886794 L125.337851,23.7976615 L125.473586,23.4347462 L125.137875,23.2023173 L125.602067,23.1533849 L125.805152,22.7843531 L125.940887,23.1442101 L126.386429,23.1411518 L126.023778,23.4041635 L126.103561,23.7640205 Z M124.689224,22.1105131 L124.33279,22.3042039 L124.446766,21.9555605 L124.148357,21.7292482 L124.554525,21.6956071 L124.720308,21.3418667 L124.858116,21.6864323 L125.258067,21.6986654 L124.937899,21.9463857 L125.018718,22.2797377 L124.689224,22.1105131 Z M123.617851,18.1847074 L123.199248,17.9267929 L122.767176,18.1785908 L122.896694,17.7178107 L122.520573,17.4048472 L123.016887,17.3752839 L123.21479,16.9145038 L123.39508,17.3793616 L123.89761,17.4048472 L123.502839,17.7178107 L123.617851,18.1847074 Z M122.117513,16.4476071 L122.237706,16.9257175 L121.808742,16.6586281 L121.377706,16.9145038 L121.499971,16.4343546 L121.119706,16.116294 L121.626381,16.0867307 L121.818067,15.6147369 L122.006646,16.0959055 L122.511248,16.1254688 L122.117513,16.4476071 Z M122.181754,21.1655061 L121.688549,20.8831254 L121.198453,21.1553119 L121.340405,20.6486577 L120.893827,20.304092 L121.471995,20.2724898 L121.695802,19.7688939 L121.912357,20.2826841 L122.486381,20.3214222 L122.042911,20.6557936 L122.181754,21.1655061 Z M121.916501,24.7916009 L121.721706,24.6937361 L121.515513,24.7916009 L121.58079,24.621357 L121.402573,24.499026 L121.633634,24.4857734 L121.721706,24.3094129 L121.80667,24.4888317 L122.040839,24.5020842 L121.858477,24.6264541 L121.916501,24.7916009 Z M120.524959,18.8881106 L120.60267,18.5934968 L120.365393,18.4008255 L120.679345,18.3824758 L120.794357,18.0990757 L120.916622,18.3885924 L121.23679,18.414078 L120.988116,18.6047105 L121.065827,18.9013632 L120.796429,18.7341775 L120.524959,18.8881106 Z M120.045224,18.2305815 L119.692935,18.0083469 L119.330284,18.2193678 L119.431827,17.8238309 L119.11373,17.5567416 L119.526116,17.5363531 L119.687754,17.157127 L119.84732,17.5455279 L120.269031,17.5771301 L119.943682,17.8421806 L120.045224,18.2305815 Z M116.123417,14.3496305 L116.236357,14.8124494 L115.841586,14.5484183 L115.449923,14.7981775 L115.554573,14.3282225 L115.205393,14.0213756 L115.667513,13.9877346 L115.844694,13.5279739 L116.012549,13.9938511 L116.480887,14.036667 L116.123417,14.3496305 Z M116.172116,22.0024541 L115.71414,21.7078402 L115.30279,21.915803 L115.38361,21.4652171 L114.966043,21.1104572 L115.471682,21.1288068 L115.631248,20.6802598 L115.861272,21.1665256 L116.390742,21.2460407 L116.008405,21.5263826 L116.172116,22.0024541 Z M114.441754,19.0797625 L114.060453,18.8228674 L113.719561,19.0165582 L113.796236,18.6057299 L113.461561,18.2937859 L113.869802,18.2937859 L114.008646,17.891113 L114.196188,18.3243686 L114.62308,18.3845147 L114.307055,18.6505846 L114.441754,19.0797625 Z M114.02108,20.3469078 L113.704019,20.126712 L113.427369,20.2837035 L113.480212,19.9391378 L113.200453,19.6791845 L113.538236,19.6903981 L113.639778,19.3641821 L113.799345,19.7209809 L114.155778,19.7841852 L113.907104,19.9931674 L114.02108,20.3469078 Z M125.022863,13.0182614 L125.18761,12.6186468 L125.345104,13.0253974 L125.764742,13.0569995 L125.436284,13.3240889 L125.53679,13.736956 L125.180357,13.5055465 L124.812525,13.7288006 L124.922357,13.32205 L124.602188,13.0478247 L125.022863,13.0182614 Z M131.385827,18.3845147 L131.5972,17.8809187 L131.72879,18.3580096 L132.18573,18.3518931 L131.800284,18.7158278 L131.861417,19.1949576 L131.503947,18.9635481 L131.074983,19.270395 L131.240766,18.7606825 L130.902983,18.4568939 L131.385827,18.3845147 Z M112.774598,16.579113 L112.55079,16.416005 L112.340453,16.5546468 L112.389152,16.2773632 L112.195393,16.075517 L112.441995,16.0734782 L112.53214,15.8012917 L112.635754,16.0806141 L112.906188,16.1122163 L112.697923,16.2977517 L112.774598,16.579113 Z M111.919778,17.6964028 L111.523971,17.3885364 L111.173754,17.6199459 L111.241104,17.1275636 L110.905393,16.775862 L111.326067,16.7728037 C111.326067,16.7728037 111.453513,16.3048876 111.463875,16.2957128 L111.656598,16.8003282 L112.112501,16.8696491 L111.77679,17.1815932 L111.919778,17.6964028 Z M110.800742,18.5833026 L110.489899,18.3223298 L110.240188,18.4997097 L110.275417,18.1123282 L110.004983,17.8126172 L110.32308,17.8299475 L110.413224,17.4507214 L110.57279,17.8635885 L110.915754,17.9329094 L110.675369,18.1745131 L110.800742,18.5833026 Z M110.450525,11.120092 L110.632887,10.6317874 L110.755152,11.1037812 L111.186188,11.1149949 L110.828718,11.4738325 L110.904357,11.9723313 L110.570718,11.7093197 L110.213248,11.9978169 L110.335513,11.4891239 L110.05679,11.1832963 L110.450525,11.120092 Z M123.199248,10.6368845 C120.083561,9.58076022 116.964766,8.99968796 114.417923,8.99968796 C111.781971,8.99968796 110.021561,9.62459549 109.556333,10.7174191 C109.321128,11.6777175 109.195754,12.6787929 109.195754,13.710451 C109.195754,20.7342894 114.983658,26.4287975 122.12373,26.4287975 C127.35626,26.4287975 131.862453,23.369503 133.896405,18.9696646 C134.559537,16.6311037 129.714525,12.8439397 123.199248,10.6368845 L123.199248,10.6368845 Z" id="Fill-56" fill="#8291AA" mask="url(#mask-2)"></path>
                    </g>
                </g>
            </g>
        </g>
    </g>
</svg>